<?xml version="1.0" standalone="no"?>
<!DOCTYPE svg PUBLIC "-//W3C//DTD SVG 1.1//EN" "http://www.w3.org/Graphics/SVG/1.1/DTD/svg11.dtd" >
<svg xmlns="http://www.w3.org/2000/svg" xmlns:xlink="http://www.w3.org/1999/xlink" version="1.1">
<metadata>
Created by FontForge 20170731 at Wed Nov 29 08:47:59 2017
 By Aleksey,,,
Copyright 2014 The Caveat Project Authors (https://github.com/googlefonts/caveat)
</metadata>
<defs>
<font id="Caveat-Regular" horiz-adv-x="450" >
  <font-face 
    font-family="Caveat"
    font-weight="400"
    font-stretch="normal"
    units-per-em="1000"
    panose-1="0 0 5 0 0 0 0 0 0 0"
    ascent="800"
    descent="-200"
    x-height="353"
    cap-height="682"
    bbox="-119 -299 952 960"
    underline-thickness="50"
    underline-position="-150"
    unicode-range="U+000D-0491"
  />
<missing-glyph horiz-adv-x="603" 
d="M456 -290h-519l455 1250h519zM473 897l-14 -460l318 460h-304zM64 -136l329 477l14 469zM785 807l-330 -478l-14 -470zM375 -228l14 461l-318 -461h304z" />
    <glyph glyph-name="f_f" unicode="ff" horiz-adv-x="500" 
d="M319 -104.5q-7 5.5 -22 22.5q-6 6 -8 11.5t-2 14.5l2 25q5 15 5 35q0 8 7 50.5t11 61.5l3 12q8 33 12 61q12 43 17 71q-23 0 -79 -7.5t-59 -10.5q-6 -3 -17.5 -35.5t-17.5 -66.5q-13 -52 -13 -110q0 -34 5 -56q4 -15 4 -30q0 -23 -15 -29q-20 -2 -34 28.5t-14 78.5
q-1 8 -1 25q0 79 41 222q14 50 50 134t44 91h2q4 0 4 9q0 2 8 15.5t15 27.5q20 29 50 55t54 36q15 6 30 6q24 0 48.5 -21t35.5 -48q15 19 36 39.5t36 32.5q22 12 35.5 15.5t33.5 3.5q17 0 23.5 -3.5t21.5 -17.5q13 -15 15.5 -20t2.5 -19q-4 -21 -20 -54t-24 -34q-3 -1 -8 -1
q-15 0 -15 25q0 6 -3 12l-4 8q0 15 7 25q3 6 3 11t-3.5 6.5t-10.5 -0.5q-9 -5 -44.5 -35.5t-35.5 -36.5q-1 -2 -5.5 -10.5t-13.5 -19.5q-18 -25 -18 -31q0 -13 -6 -13q-1 -2 -4.5 -11.5t-9.5 -20.5q-4 -9 -10 -20t-10 -15h1q-3 -8 -11 -29.5t-8 -24.5q0 -4 14 -4q31 0 71 11
q13 4 19 4q7 0 20 -4q11 -7 18 -23t3 -22q-1 -4 -21.5 -11t-42.5 -11q-31 -7 -51 -10q-5 -1 -31.5 -6t-26.5 -9q-4 0 -7 -4t-3 -8q0 -14 -4 -21q-5 -15 -17.5 -65.5t-12.5 -62.5q-8 -10 -8 -36q-6 -11 -6 -25q0 -6 -1 -10q0 -5 -2 -24t-2 -35l-3 -29q-1 -12 -3 -22t-7 -15
q-6 -4 -13 1.5zM288.5 308.5q42.5 5.5 80.5 11.5l6 11q11 29 11 30q21 61 34 90l2 9q0 2 4.5 12.5t4.5 19.5q8 38 8 55q0 19 -7.5 26.5t-25.5 7.5q-9 1 -26 -7.5t-17 -15.5v-4q-5 1 -35.5 -36.5t-47.5 -66.5q-5 -12 -22 -56l-25 -65l-8 -24l16 -2q5 -1 47.5 4.5z" />
    <glyph glyph-name="f_f_i" unicode="ffi" horiz-adv-x="654" 
d="M319 -104.5q-7 5.5 -22 22.5q-6 6 -8 11.5t-2 14.5l2 25q5 15 5 35q0 8 7 50.5t11 61.5l3 12q8 33 12 61q12 43 17 71q-23 0 -79 -7.5t-59 -10.5q-6 -3 -17.5 -35.5t-17.5 -66.5q-13 -52 -13 -110q0 -34 5 -56q4 -15 4 -30q0 -23 -15 -29q-20 -2 -34 28.5t-14 78.5
q-1 8 -1 25q0 79 41 222q14 50 50 134t44 91h2q4 0 4 9q0 2 8 15.5t15 27.5q20 29 50 55t54 36q15 6 30 6q24 0 48.5 -21t35.5 -48q15 19 36 39.5t36 32.5q22 12 35.5 15.5t33.5 3.5q17 0 23.5 -3.5t21.5 -17.5q13 -15 15.5 -20t2.5 -19q-4 -21 -20 -54t-24 -34q-3 -1 -8 -1
q-15 0 -15 25q0 6 -3 12l-4 8q0 15 7 25q3 6 3 11t-3.5 6.5t-10.5 -0.5q-9 -5 -44.5 -35.5t-35.5 -36.5q-1 -2 -5.5 -10.5t-13.5 -19.5q-18 -25 -18 -31q0 -13 -6 -13q-1 -2 -4.5 -11.5t-9.5 -20.5q-4 -9 -10 -20t-10 -15h1q-3 -8 -11 -29.5t-8 -24.5q0 -4 14 -4q31 0 71 11
q13 4 19 4q7 0 20 -4q11 -7 18 -23t3 -22q-1 -4 -21.5 -11t-42.5 -11q-31 -7 -51 -10q-5 -1 -31.5 -6t-26.5 -9q-4 0 -7 -4t-3 -8q0 -14 -4 -21q-5 -15 -17.5 -65.5t-12.5 -62.5q-8 -10 -8 -36q-6 -11 -6 -25q0 -6 -1 -10q0 -5 -2 -24t-2 -35l-3 -29q-1 -12 -3 -22t-7 -15
q-6 -4 -13 1.5zM288.5 308.5q42.5 5.5 80.5 11.5l6 11q11 29 11 30q21 61 34 90l2 9q0 2 4.5 12.5t4.5 19.5q8 38 8 55q0 19 -7.5 26.5t-25.5 7.5q-9 1 -26 -7.5t-17 -15.5v-4q-5 1 -35.5 -36.5t-47.5 -66.5q-5 -12 -22 -56l-25 -65l-8 -24l16 -2q5 -1 47.5 4.5zM726 392
q-4 0 -13 6q-10 1 -26.5 17.5t-16.5 21.5q-2 20 6 43t29 24q3 0 8 -1.5t17 -6.5l8.5 -17t10 -25t3.5 -22q0 -24 -20 -37q-3 -3 -6 -3zM606.5 50q-11.5 19 -13.5 38q4 38 6 54q8 37 25.5 101.5t21.5 72.5q3 5 9 5t13 -4t12 -9q8 -11 8 -25q0 -21 -20 -88q-14 -50 -18 -71
t-3 -45q-1 -7 -3.5 -23.5t-4.5 -20.5t-6 -4q-15 0 -26.5 19z" />
    <glyph glyph-name="f_f_l" unicode="ffl" horiz-adv-x="670" 
d="M319 -104.5q-7 5.5 -22 22.5q-6 6 -8 11.5t-2 14.5l2 25q5 15 5 35q0 8 7 50.5t11 61.5l3 12q8 33 12 61q12 43 17 71q-23 0 -79 -7.5t-59 -10.5q-6 -3 -17.5 -35.5t-17.5 -66.5q-13 -52 -13 -110q0 -34 5 -56q4 -15 4 -30q0 -23 -15 -29q-20 -2 -34 28.5t-14 78.5
q-1 8 -1 25q0 79 41 222q14 50 50 134t44 91h2q4 0 4 9q0 2 8 15.5t15 27.5q20 29 50 55t54 36q15 6 30 6q24 0 48.5 -21t35.5 -48q15 19 36 39.5t36 32.5q22 12 35.5 15.5t33.5 3.5q17 0 23.5 -3.5t21.5 -17.5q13 -15 15.5 -20t2.5 -19q-4 -21 -20 -54t-24 -34q-3 -1 -8 -1
q-15 0 -15 25q0 6 -3 12l-4 8q0 15 7 25q3 6 3 11t-3.5 6.5t-10.5 -0.5q-9 -5 -44.5 -35.5t-35.5 -36.5q-1 -2 -5.5 -10.5t-13.5 -19.5q-18 -25 -18 -31q0 -13 -6 -13q-1 -2 -4.5 -11.5t-9.5 -20.5q-4 -9 -10 -20t-10 -15h1q-3 -8 -11 -29.5t-8 -24.5q0 -4 14 -4q31 0 71 11
q13 4 19 4q7 0 20 -4q11 -7 18 -23t3 -22q-1 -4 -21.5 -11t-42.5 -11q-31 -7 -51 -10q-5 -1 -31.5 -6t-26.5 -9q-4 0 -7 -4t-3 -8q0 -14 -4 -21q-5 -15 -17.5 -65.5t-12.5 -62.5q-8 -10 -8 -36q-6 -11 -6 -25q0 -6 -1 -10q0 -5 -2 -24t-2 -35l-3 -29q-1 -12 -3 -22t-7 -15
q-6 -4 -13 1.5zM583 6q-6 11 -7 31q0 14 6 42.5t7 35.5l1 8q1 5 3.5 18t2.5 6l7 27q7 27 14 50t10 33l12 34q34 98 56 127q1 4 3 7.5t3 7.5q1 12 7 21q9 15 15 27l4 11q16 34 28 52q4 9 11.5 21t12.5 17l-1 1q5 8 11.5 10t17.5 2q13 0 15.5 -3.5t2.5 -18.5v-9
q0 -10 -1.5 -15t-7.5 -12h1l-2 -5t-4 -9q-7 -17 -10 -20q-6 -7 -40.5 -78.5t-46.5 -101.5l-5 -15l-2 -6q-11 -24 -12 -26l-17 -58l-5 -21l-9 -22l-6 -19q-2 -4 -3 -10t-4 -9l-1 -5q-12 -55 -16 -106l-1 -4q-2 -17 -7 -25t-14 -8q-2 0 -10 2q-13 4 -19 15zM288.5 308.5
q42.5 5.5 80.5 11.5l6 11q11 29 11 30q21 61 34 90l2 9q0 2 4.5 12.5t4.5 19.5q8 38 8 55q0 19 -7.5 26.5t-25.5 7.5q-9 1 -26 -7.5t-17 -15.5v-4q-5 1 -35.5 -36.5t-47.5 -66.5q-5 -12 -22 -56l-25 -65l-8 -24l16 -2q5 -1 47.5 4.5z" />
    <glyph glyph-name="f_i" unicode="fi" horiz-adv-x="459" 
d="M110 -104.5q-7 5.5 -22 22.5q-6 6 -8 11.5t-2 14.5l2 25q5 15 5 35q0 8 7 50.5t11 61.5l3 12q8 33 12 61q8 25 13.5 49.5t5.5 33.5q0 18 14 26q1 8 15 33q24 68 35.5 97.5t24.5 51.5q18 50 29 63q7 17 38 50t55 53q22 12 35.5 15.5t33.5 3.5q17 0 23.5 -3.5t21.5 -17.5
q13 -15 15.5 -20t2.5 -19q-4 -21 -20 -54t-24 -34q-3 -1 -8 -1q-15 0 -15 25q0 6 -3 12l-4 8q0 15 7 25q3 6 3 11t-3.5 6.5t-10.5 -0.5q-9 -5 -44.5 -35.5t-35.5 -36.5q-1 -2 -5.5 -10.5t-13.5 -19.5q-18 -25 -18 -31q0 -13 -6 -13q-1 -2 -4.5 -11.5t-9.5 -20.5
q-4 -9 -10 -20t-10 -15h1q-3 -8 -11 -29.5t-8 -24.5q0 -4 14 -4q31 0 71 11q13 4 19 4q7 0 20 -4q15 -10 15 -32q0 -10 -3 -13q-2 -5 -18.5 -11.5t-36.5 -10.5q-31 -7 -51 -10q-5 -1 -31.5 -6t-26.5 -9q-4 0 -7 -4t-3 -8q0 -14 -4 -21q-5 -15 -17.5 -65.5t-12.5 -62.5
q-8 -10 -8 -36q-6 -11 -6 -25q0 -6 -1 -10q0 -5 -2 -24t-2 -35l-3 -29q-1 -12 -3 -22t-7 -15q-6 -4 -13 1.5zM517 392q-4 0 -13 6q-10 1 -26.5 17.5t-16.5 21.5q-2 20 6 43t29 24q3 0 8 -1.5t17 -6.5l8.5 -17t10 -25t3.5 -22q0 -24 -20 -37q-3 -3 -6 -3zM397.5 50
q-11.5 19 -13.5 38q4 37 6 54q8 37 25.5 101.5t21.5 72.5q3 5 9 5t13 -4t12 -9q8 -11 8 -25q0 -21 -20 -88q-14 -50 -18 -71t-3 -45q-1 -7 -3.5 -23.5t-4.5 -20.5t-6 -4q-15 0 -26.5 19z" />
    <glyph glyph-name="f_l" unicode="fl" horiz-adv-x="460" 
d="M110 -104.5q-7 5.5 -22 22.5q-6 6 -8 11.5t-2 14.5l2 25q5 15 5 35q0 8 7 50.5t11 61.5l3 12q8 33 12 61q8 25 13.5 49.5t5.5 33.5q0 18 14 26q1 8 15 33q24 68 35.5 97.5t24.5 51.5q18 50 29 63q7 17 38 50t55 53q22 12 35.5 15.5t33.5 3.5q17 0 23.5 -3.5t21.5 -17.5
q13 -15 15.5 -20t2.5 -19q-4 -21 -20 -54t-24 -34q-3 -1 -8 -1q-15 0 -15 25q0 6 -3 12l-4 8q0 15 7 25q3 6 3 11t-3.5 6.5t-10.5 -0.5q-9 -5 -44.5 -35.5t-35.5 -36.5q-1 -2 -5.5 -10.5t-13.5 -19.5q-18 -25 -18 -31q0 -13 -6 -13q-1 -2 -4.5 -11.5t-9.5 -20.5
q-4 -9 -10 -20t-10 -15h1q-3 -8 -11 -29.5t-8 -24.5q0 -4 14 -4q31 0 71 11q13 4 19 4q7 0 20 -4q11 -7 18 -23t3 -22q-1 -4 -21.5 -11t-42.5 -11q-31 -7 -51 -10q-5 -1 -31.5 -6t-26.5 -9q-4 0 -7 -4t-3 -8q0 -14 -4 -21q-5 -15 -17.5 -65.5t-12.5 -62.5q-8 -10 -8 -36
q-6 -11 -6 -25q0 -6 -1 -10q0 -5 -2 -24t-2 -35l-3 -29q-1 -12 -3 -22t-7 -15q-6 -4 -13 1.5zM373 6q-6 11 -7 31q0 14 6 42.5t7 35.5l1 8q1 5 3.5 18t2.5 6l7 27q7 27 14 50t10 33l12 34q34 98 56 127q1 4 3 7.5t3 7.5q1 12 7 21q9 15 15 27l4 11q16 34 28 52q4 9 11.5 21
t12.5 17l-1 1q5 8 11.5 10t17.5 2q13 0 15.5 -3.5t2.5 -18.5v-9q0 -10 -1.5 -15t-7.5 -12h1l-2 -5t-4 -9q-7 -17 -10 -20q-6 -7 -40.5 -78.5t-46.5 -101.5l-5 -15l-2 -6q-11 -24 -12 -26l-17 -58l-5 -21l-9 -22l-6 -19q-2 -4 -3 -10t-4 -9l-1 -5q-12 -55 -16 -106l-1 -4
q-2 -17 -7 -25t-14 -8q-2 0 -10 2q-13 4 -19 15z" />
    <glyph glyph-name="f_t" unicode="ft" horiz-adv-x="582" 
d="M110 -104.5q-7 5.5 -22 22.5q-6 6 -8 11.5t-2 14.5l2 25q5 15 5 35q0 8 7 50.5t11 61.5l3 12q8 33 12 61q8 25 13.5 49.5t5.5 33.5q0 18 14 26q1 8 15 33q24 68 35.5 97.5t24.5 51.5q18 50 29 63q7 17 38 50t55 53q22 12 35.5 15.5t33.5 3.5q17 0 23.5 -3.5t21.5 -17.5
q13 -15 15.5 -20t2.5 -19q-4 -21 -20 -54t-24 -34q-3 -1 -8 -1q-15 0 -15 25q0 6 -3 12l-4 8q0 15 7 25q3 6 3 11t-3.5 6.5t-10.5 -0.5q-9 -5 -44.5 -35.5t-35.5 -36.5q-1 -2 -5.5 -10.5t-13.5 -19.5q-18 -25 -18 -31q0 -13 -6 -13q-1 -2 -4.5 -11.5t-9.5 -20.5
q-4 -9 -10 -20t-10 -15h1q-3 -10 -10.5 -32.5t-11.5 -36.5q16 2 41 6q28 6 47 8q55 6 89.5 12.5t65.5 20.5q13 32 33 73.5t27 49.5q16 8 22 8t10 -4t11 -14q1 -2 5 -7t4 -10q0 -8 -7.5 -24t-29.5 -56l-13 -25q3 -1 14 -1t18 1q22 4 41 4q10 0 14 -1q23 0 33.5 -8.5
t12.5 -28.5q2 -11 -4 -13t-34 -2q-116 -5 -117 -9q-4 -3 -15 -35t-19 -61q-13 -60 -13 -106q0 -42 12 -56q5 -5 19 -5t30.5 5.5t27.5 14.5q18 15 30 15q6 0 9.5 -3.5t3.5 -8.5q0 -11 -12 -28q-15 -23 -40 -38t-48 -15q-11 0 -16 2q-14 4 -23 9t-24 19q-18 24 -23.5 44.5
t-5.5 65.5q0 24 27 132q-2 -7 7 29q-4 7 -23 7q-23 0 -103 -12q-31 -7 -51 -10q-5 -1 -31.5 -6t-26.5 -9q-4 0 -7 -4t-3 -8q0 -14 -4 -21q-5 -15 -17.5 -65.5t-12.5 -62.5q-8 -10 -8 -36q-6 -11 -6 -25q0 -6 -1 -10q0 -5 -2 -24t-2 -35l-3 -29q-1 -12 -3 -22t-7 -15
q-6 -4 -13 1.5z" />
    <glyph glyph-name=".notdef" horiz-adv-x="603" 
d="M456 -290h-519l455 1250h519zM473 897l-14 -460l318 460h-304zM64 -136l329 477l14 469zM785 807l-330 -478l-14 -470zM375 -228l14 461l-318 -461h304z" />
    <glyph glyph-name=".null" horiz-adv-x="0" 
 />
    <glyph glyph-name="nonmarkingreturn" unicode="&#xd;" horiz-adv-x="242" 
 />
    <glyph glyph-name="NULL" horiz-adv-x="0" 
 />
    <glyph glyph-name="NULL" horiz-adv-x="0" 
 />
    <glyph glyph-name="space" unicode=" " horiz-adv-x="242" 
 />
    <glyph glyph-name="exclam" unicode="!" horiz-adv-x="210" 
d="M167 181q-11 15 -11 44q0 26 9 60q14 28 14 42q5 17 16 43.5t18 40.5q4 0 8.5 7t4.5 14q0 9 3.5 18.5t7.5 13.5q0 3 4 10.5t4 10.5q0 2 2.5 6.5t2.5 7.5q18 30 52 113t35 96q3 17 18 14q5 4 16 4l14 -16q7 -7 8.5 -14.5t1.5 -22.5q-1 -15 -9 -32.5t-19 -36.5t-15 -27
l-13 -24q-16 -28 -16 -33q0 -4 -5 -14.5t-8 -17.5q-9 -15 -20 -37.5t-11 -26.5q-1 -2 -2.5 -7t-5.5 -9q-3 0 -4 -4.5t-1 -6.5q0 -5 -5 -20t-14 -33q-34 -97 -37 -138q-2 -24 -3.5 -28t-9.5 -8q-19 -4 -30 11zM114 3q-13 0 -30 12q-14 14 -14 28q0 22 34 45q20 12 29 12
q5 0 24 -7q27 -16 27 -37q0 -12 -10.5 -24t-30.5 -22q-19 -7 -29 -7z" />
    <glyph glyph-name="quotedbl" unicode="&#x22;" horiz-adv-x="237" 
d="M190 440q-4 0 -7 1.5t-7 5.5v4q0 9 10 22q38 62 48 90q1 8 6 28t5 37v4q0 10 3 18t9 5q4 -2 17 -8t19.5 -14t4.5 -18q-2 -23 -16 -63q-5 -12 -8 -22q-5 -20 -17.5 -38t-33.5 -42q0 -2 -3 -3.5t-8.5 -3t-12.5 -3.5h-9zM310 440q-4 0 -7 1.5t-7 5.5v4q0 9 10 22
q38 62 48 90q1 8 6 28t5 37v4q0 10 3 18t9 5q4 -2 17 -8t19.5 -14t4.5 -18q-2 -23 -16 -63q-5 -12 -8 -22q-5 -20 -17.5 -38t-33.5 -42q0 -2 -3 -3.5t-8.5 -3t-12.5 -3.5h-9z" />
    <glyph glyph-name="numbersign" unicode="#" horiz-adv-x="559" 
d="M686 403q0 -9 -7.5 -13t-20.5 -2l-63 -5q-2 0 -12 -0.5t-35 -0.5q-10 -20 -25 -55t-15 -39q0 -11 -5 -16q-3 0 -4 -4.5t-1 -6.5q0 -3 -5 -21q30 1 65 1q26 0 35 -2.5t20 -12.5q12 -12 12 -23q0 -9 -7.5 -13t-20.5 -2l-63 -5q-2 0 -15 -0.5t-45 -0.5q-34 -112 -54.5 -185
t-20.5 -94q0 -26 -1.5 -32.5t-8.5 -10.5q-3 -1 -10 -1q-16 0 -25 16t-9 44q0 23 6 53q11 29 11 42q2 12 18 63.5t34 103.5l-161 -2l-9 -29q-5 -18 -24 -82t-30 -107.5t-11 -57.5q0 -26 -1.5 -32.5t-8.5 -10.5q-3 -1 -10 -1q-16 0 -25 16t-9 44q0 23 6 53q11 29 11 42
q4 20 51 164h-47q-20 0 -35 5q-14 0 -19.5 3t-9.5 11q-6 9 -6 14q0 6 11 9.5t39 6.5q14 4 85 7q7 20 10 28t4 10q4 0 7 6.5t3 14.5q0 9 3.5 18.5t7.5 13.5q0 3 2.5 11t2.5 11q0 2 2.5 7.5t2.5 8.5q2 3 3.5 7t3.5 8h-56q-20 0 -35 5q-14 0 -19.5 3t-9.5 11q-6 9 -6 14
q0 6 11 9.5t39 6.5q15 4 100 7q35 87 75 193.5t40 115.5q0 16 16 16q5 5 16 5l16 -16q7 -7 9 -14.5t2 -22.5t-4 -26t-20 -45q-3 -7 -8 -16.5t-11 -23.5q-3 -10 -23 -53q-13 -31 -25.5 -60t-21.5 -51q40 2 138 4h23q35 88 74 191t39 112q0 16 16 16q5 5 16 5l16 -16
q7 -7 9 -14.5t2 -22.5t-4 -26t-20 -45q-3 -7 -8 -16.5t-11 -23.5l-11 -25q-42 -98 -57 -134h49q26 0 35 -2.5t20 -12.5q12 -12 12 -23zM484 381l-158 -2q-12 -25 -25 -56.5t-13 -34.5q0 -11 -5 -16q-3 0 -4 -4.5t-1 -6.5q0 -5 -6 -25q45 2 161 4l12 32q4 0 7 6.5t3 14.5
q0 9 3.5 18.5t7.5 13.5q0 3 2.5 11t2.5 11q0 2 2.5 7.5t2.5 8.5q5 10 8 18z" />
    <glyph glyph-name="dollar" unicode="$" 
d="M546.5 566.5q19.5 -13.5 19.5 -27.5q0 -12 -15 -23q-11 -2 -32 8q-24 11 -41 13q-23 -40 -45 -80t-22 -42q0 -5 -16 -31l-28 -51q20 -19 20 -22v-4q2 0 16 -19.5t14 -23.5q1 -1 3 -5t6 -10q5 -3 9.5 -30.5t4.5 -42.5q0 -12 -11.5 -27.5t-28.5 -28.5q-21 -16 -60.5 -36
t-68.5 -25l-28 -6q-44 -108 -49 -136q-2 -24 -4.5 -31.5t-11.5 -9.5q-32 -7 -32 36q0 25 15 77q15 21 17 44l6 16q-53 -2 -64 6q-9 3 -21 12q-21 10 -32 23.5t-12 35.5q0 6 13.5 17t28.5 11q8 0 18 -5q-9 -20 -9 -28q0 -10 9.5 -15.5t33.5 -9.5q10 -1 27 -1q18 0 28 1
q74 169 82 182q4 0 9 7t6 14q0 5 2 13q-23 36 -40 46q-3 3 -8 12.5t-7 10.5q-1 1 -3 4t-5 8q-8 13 -8 28q0 20 12.5 42.5t35.5 42.5q11 13 40 33.5t35 20.5q2 1 8 3t15 6q9 2 24.5 6.5t27.5 4.5l7 2q66 138 66 148q3 8 7.5 11t12.5 2q6 6 16 2l14 -14q9 -15 7 -39
q-2 -10 -6 -19t-8.5 -17t-7.5 -13q-14 -22 -33 -57v-1q22 -5 41.5 -18.5zM413 531q-46 -11 -74 -42q-24 -15 -36 -32t-12 -30q5 -19 17 -34l23 -24q26 44 82 162zM373 226.5q-4 9.5 -25 42.5q0 3 -7 10l-6 -7q-3 0 -4.5 -4.5t-1.5 -6.5q0 -5 -5.5 -18.5t-15.5 -28.5
l-46 -113q17 4 20 6q29 9 52 21.5t30 24.5q10 9 12 15t2 14.5v11.5q-1 23 -5 32.5z" />
    <glyph glyph-name="percent" unicode="%" horiz-adv-x="600" 
d="M244 315q-6 3 -15 12q-26 26 -26 50q0 6 1 9q2 6 1.5 11t-0.5 7q-4 4 -2 6t3 4q5 0 3 9q-2 6 6.5 28t20.5 41q8 14 25 35.5t31 32.5q20 17 35 25t33 12q13 4 22 4q10 0 22 -13q22 -9 30 -24t8 -46q0 -51 -42 -113q-19 -26 -35 -40.5t-42 -29.5q-18 -12 -32 -17t-31 -6
q-10 0 -16 3zM99 -62q0 32 34 79q22 18 25 28q8 14 99 115q61 69 64 74h1q4 0 8.5 5t6.5 12q3 8 10 14t14 8q2 4 5 8t4 7q0 2 4 6.5t5 7.5q27 23 142.5 141.5t120.5 128.5q5 9 11 9q2 0 8 -2q4 2 8 2t8 -2q0 -1 1.5 -6t5.5 -13q4 -7 4 -15q0 -9 -7 -20q-7 -13 -14.5 -22
t-32.5 -31l-30 -27q-9 -10 -68 -67q-60 -56 -61 -60q-11 -2 -20 -20l-19 -19q-53 -51 -54 -55q-3 -4 -16 -9q-1 1 -2.5 -1.5t-1.5 -3.5q0 -4 -9.5 -16t-24.5 -25q-50 -60 -109 -135t-70 -96q-8 -19 -12.5 -25t-11.5 -7q-26 5 -26 32zM366 441.5q11 18.5 21 46.5q4 16 4 32
q0 23 -5 26q-7 4 -16 4q-18 0 -35 -16q-22 -18 -39 -45t-38 -72q-7 -15 -7 -31q0 -12 5.5 -19t15.5 -7q26 0 65 42q18 21 29 39.5zM384 -55q-6 3 -15 12q-26 26 -26 50q0 6 1 9q2 6 1.5 11t-0.5 7q-4 4 -2 6t3 4q5 0 3 9q-2 6 6.5 28t20.5 41q8 14 25 35.5t31 32.5
q20 17 35 25t33 12q13 4 22 4q10 0 22 -13q22 -9 30 -24t8 -46q0 -51 -42 -113q-19 -26 -35 -40.5t-42 -29.5q-18 -12 -32 -17t-31 -6q-10 0 -16 3zM505 72.5q11 18.5 21 46.5q4 16 4 32q0 23 -5 26q-7 4 -16 4q-18 0 -35 -16q-22 -18 -39 -45t-38 -72q-7 -15 -7 -31
q0 -12 5.5 -19t15.5 -7q26 0 65 42q18 21 29 39.5z" />
    <glyph glyph-name="ampersand" unicode="&#x26;" horiz-adv-x="564" 
d="M641 -68q-17 0 -45.5 12t-52.5 26q-18 5 -52 36t-74 79q-69 -38 -95 -50.5t-64 -23.5q-11 -1 -32 -1q-48 0 -89 14q-11 3 -32 19.5t-30 26.5q-5 3 -5 16t5 33q6 19 56.5 86t99.5 116q-19 27 -28 50.5t-9 47.5q0 50 42 124q12 20 34 44t40.5 40t20.5 13q3 -5 7 -5
q2 0 4.5 1t4.5 1q4 2 12 2q24 0 56 -10q39 -5 52.5 -9t24.5 -17q38 -29 38 -63q0 -13 -21 -40t-54 -57q-11 -13 -23.5 -25.5t-16.5 -15.5q0 -5 -5.5 -11.5t-12.5 -9.5q-23 -20 -53 -48t-31 -31q-1 -4 25 -40t54.5 -69.5t34.5 -33.5q37 36 71 64q25 22 70 63q20 22 32.5 34
t18.5 12q5 0 13 -8q14 -3 14 -17q0 -8 -3 -15.5t-5 -10.5q-19 -26 -61 -63t-49 -44q-33 -29 -62 -58q3 -4 13.5 -16t23.5 -24q34 -35 51.5 -48.5t40.5 -20.5q32 -11 47 -26t15 -37q0 -12 -16 -12zM329 401q58 48 93.5 84.5t35.5 64.5q0 5 -1 8q-4 7 -33 18.5t-45 10.5
q-19 1 -44 -20t-50 -57q-31 -44 -31 -86q0 -37 26 -67q8 9 49 44zM212 60q32 0 66.5 14t78.5 43l19 14l-25 29l-29 36q-12 17 -20 27q-12 11 -20.5 23.5t-10.5 16.5q-5 0 -24.5 -21t-28.5 -36q-18 -14 -29 -27.5t-20 -28t-13 -20.5q-8 -17 -8 -33q0 -18 18 -30q21 -7 46 -7z
" />
    <glyph glyph-name="quotesingle" unicode="'" horiz-adv-x="117" 
d="M180 440q-4 0 -7 1.5t-7 5.5v4q0 9 10 22q38 62 48 90q1 8 6 28t5 37v4q0 10 3 18t9 5q4 -2 17 -8t19.5 -14t4.5 -18q-2 -23 -16 -63q-5 -12 -8 -22q-5 -20 -17.5 -38t-33.5 -42q0 -2 -3 -3.5t-8.5 -3t-12.5 -3.5h-9z" />
    <glyph glyph-name="parenleft" unicode="(" horiz-adv-x="330" 
d="M212 -90q-33 30 -46 73q-18 41 -18 106q0 67 20 141q12 41 14 66q2 7 35 83q38 86 48 114q21 46 75.5 124.5t72.5 92.5q2 2 12 11t18 11q4 10 15.5 17.5t21.5 7.5q17 9 28 9t18 -9t12 -28l2 -12q0 -6 -4 -8.5t-20 -10.5q-13 -5 -27 -12.5t-20 -14.5q-9 -12 -20 -22.5
t-17 -14.5q-18 -7 -18 -16q-2 -5 -11 -21.5t-25 -36.5q-20 -32 -27 -45q-5 -9 -26 -44q-3 -5 -11 -20t-19 -28q0 -5 -3.5 -16t-11.5 -23q-6 -22 -24 -59q-12 -25 -25.5 -68.5t-13.5 -57.5q-3 0 -5.5 -12t-5.5 -41l-5 -36q-2 -66 8 -100t38 -64q12 -10 23 -15t25 -6l34 -21
q-5 -19 -12 -26t-19 -7q-7 0 -11 1q-42 8 -75 38z" />
    <glyph glyph-name="parenright" unicode=")" horiz-adv-x="330" 
d="M31 -82q0 2 0.5 8.5t4.5 12.5q1 -1 4.5 -2.5t10.5 -1.5q8 0 14 2q19 -1 27 3.5t24 22.5q3 6 12 16q29 40 33 52q14 10 21 18.5t15 21.5q0 22 18 51q13 29 19 38q12 24 12 27q1 2 3.5 9t1.5 15q6 3 10.5 13.5t3.5 21.5q1 4 9.5 24.5t9.5 40.5q16 51 21 90t10 124l2 53
q1 13 1 31q0 15 -2 23.5t-8 18.5q-10 32 -17 32q-3 0 -5.5 5t-2.5 13t2 13v1q0 5 4.5 9t11.5 3q6 0 14.5 -5.5t12.5 -9.5q4 4 12.5 -10t18.5 -42q9 -20 11.5 -30t2.5 -28l-2 -42l-2 -33q-1 -50 -9 -113t-19 -116q-13 -52 -45.5 -135.5t-47.5 -107.5q4 1 -34 -54l-39 -60
q-20 -27 -46 -44.5t-47 -17.5q-7 0 -10 1q-40 11 -41 38z" />
    <glyph glyph-name="asterisk" unicode="*" horiz-adv-x="363" 
d="M398.5 412.5q-13.5 11.5 -24.5 31.5q-6 15 -9 26l-9 24l-2 37q-2 2 -32.5 -22.5t-69.5 -63.5q-23 -21 -33 -28t-16 -7q-8 0 -11 4t-3 7q-1 2 -1 10q0 12 3 21q10 12 56 58.5t54 52.5q8 7 8 11q0 3 -8 10l-4 4t-2.5 4t1.5 2q0 1 -1 3.5t-4 3.5q-6 9 -6 17v10q-6 5 -6 22
q0 14 3 17q1 0 3 -1t6 -4q4 0 10 -9.5t10 -14.5q8 -16 14.5 -23.5t13.5 -7.5l8.5 17t8.5 28q8 11 14.5 21.5t12.5 19.5l12 20q2 5 5.5 10t4.5 6q0 2 2.5 6t5.5 5q6 8 9 9.5t5 -0.5q3 -4 8 -9t7 -11l10 -16l-13 -17q-14 -20 -23.5 -40t-14.5 -34t-3 -14q3 1 11.5 4.5
t17.5 5.5q12 6 22 8.5t11 2.5q10 0 24 9q9 3 14 3t10 -3q7 -7 10.5 -18.5t3.5 -18.5q-35 -18 -62 -26q-63 -19 -65 -26q-5 0 -5 -5q0 -4 5 -12q1 -6 2 -17.5t1 -17.5q5 -19 7.5 -30t3.5 -14q3 0 3.5 1.5t0.5 4.5q0 4 9 4q4 0 10 -9.5t3 -11.5v-6q2 0 2 -3q0 -6 -6 -16
t-9 -10q-10 -6 -23.5 5.5z" />
    <glyph glyph-name="plus" unicode="+" horiz-adv-x="446" 
d="M477 203q0 -9 -7.5 -13t-20.5 -2l-63 -5l-64 -2l1 -86q0 -20 -5 -35q0 -14 -3 -19.5t-11 -9.5q-9 -6 -14 -6q-6 0 -9.5 11t-6.5 39q-7 34 -10 104l-86 -1q-20 0 -35 5q-14 0 -19.5 3t-9.5 11q-6 9 -6 14q0 6 11 9.5t39 6.5q34 7 104 10l-2 90q0 26 2.5 35t12.5 20
q12 12 23 12q9 0 13 -7.5t2 -20.5l5 -63l2 -64l90 2q26 0 35 -2.5t20 -12.5q12 -12 12 -23z" />
    <glyph glyph-name="comma" unicode="," horiz-adv-x="198" 
d="M39 -78q-2 1 -6 9q0 6 4 11.5t10 12.5q17 17 37 41t27 37q7 22 15 59q0 20 5 25q6 6 11 6q12 0 18 -45q2 -14 2 -21q0 -23 -17 -63q-4 -10 -24.5 -34.5t-24.5 -24.5q-5 0 -14 -9q-3 -3 -11.5 -4t-18.5 -1q-11 0 -13 1z" />
    <glyph glyph-name="hyphen" unicode="-" horiz-adv-x="326" 
d="M143 183q-14 0 -19.5 3t-9.5 11q-6 9 -6 14q0 6 11 9.5t39 6.5q35 8 63.5 11t68.5 3q26 0 35 -2.5t20 -12.5q12 -12 12 -23q0 -9 -7.5 -13t-20.5 -2l-63 -5q-6 0 -32.5 -2.5t-55.5 -2.5q-20 0 -35 5z" />
    <glyph glyph-name="period" unicode="." horiz-adv-x="198" 
d="M124 45q-14 0 -30 12q-14 14 -14 28q0 22 34 45q20 12 29 12q5 0 24 -7q27 -16 27 -37q0 -12 -10.5 -24t-30.5 -22q-19 -7 -29 -7z" />
    <glyph glyph-name="slash" unicode="/" horiz-adv-x="330" 
d="M41 -84q-9 11 -9 31q0 31 21 76q3 6 10 18.5t9 20.5q8 18 90 167t88 157q4 -1 8 5t6 14q2 9 7.5 17.5t9.5 10.5l5.5 11t4.5 10q0 2 3.5 7t4.5 8q22 27 83 123.5t64 108.5q3 15 20 12q5 4 16 2q1 -1 3.5 -6t8.5 -13q6 -7 6 -19q0 -8 -3 -19q-3 -15 -9 -24.5t-29 -39.5
l-27 -36l-22 -30q-14 -17 -14 -20q-2 -4 -7 -11.5t-11 -18.5q-11 -14 -36.5 -50t-26.5 -40q-1 -2 -2.5 -6.5t-6.5 -7.5q-3 1 -5 -3.5t-2 -6.5q0 -8 -26 -49q-45 -82 -114 -214t-74 -155q-5 -24 -8 -31t-10 -9q-17 -1 -26 10z" />
    <glyph glyph-name="zero" unicode="0" 
d="M243 35q-26 14 -41 27q-28 27 -44.5 68.5t-16.5 84.5q0 9 2 29q11 63 47.5 125.5t85.5 104.5q26 23 47.5 35.5t50.5 19.5q14 4 44 4q19 0 39.5 -8t34.5 -19.5t14 -21.5q0 -9 -1.5 -11t-8.5 1h-10l10 -29q4 -9 7 -22t3 -24q0 -18 -11 -69.5t-19 -69.5q-4 -8 -4 -21
l-25 -55q-4 -3 -6 -7t1 -7q0 -4 -10.5 -22.5t-13.5 -18.5q-1 0 -3 -0.5t-2 -3.5q0 -4 -13.5 -21t-30.5 -34q-15 -16 -44.5 -32.5t-44.5 -16.5q-11 0 -37 14zM315 98q19 13 42.5 40.5t34.5 52.5q10 14 16.5 29t21.5 59q7 10 10.5 25.5t3.5 28.5q0 44 5 62q0 28 -1 35.5
t-8 15.5q-11 9 -24 9q-7 0 -26 -7.5t-27 -12.5q-6 -2 -9 -2q-6 0 -10.5 2.5t-4.5 6.5q0 7 -6 7q-8 0 -22 -12t-30 -31q-16 -16 -29.5 -35.5t-13.5 -23.5q0 -3 -3.5 -11t-5.5 -13q-7 -11 -19 -38.5t-15 -39.5v-54q0 -25 3 -39t11 -29q4 -7 13 -17t11 -13q7 -7 11.5 -9.5
t11.5 -2.5q8 0 21 3q24 0 38 14z" />
    <glyph glyph-name="one" unicode="1" 
d="M289 6q-6 5 -6 12q0 5 8 42q2 14 4 20q5 24 12.5 51.5t9.5 35.5q8 4 36 98q15 54 34 111q9 28 14 49t7 27q-9 -5 -38.5 -22.5t-55.5 -37.5q-2 -1 -38 -27q-8 -5 -21.5 -15t-22.5 -15q-15 -12 -24.5 -18.5t-13.5 -6.5q-2 0 -10 4q-19 17 -19 33q0 6 3 12q4 1 36 24
q36 26 41 28q2 0 11 7.5t17 12.5q3 4 47 35l53 39q84 52 92 50q5 -1 16.5 -9.5t12.5 -16.5q2 -4 2 -7q0 -7 -8 -25q-9 -19 -32.5 -88t-35.5 -109q-7 -26 -21 -64l-8.5 -25.5t-9.5 -33.5q-9 -22 -20 -61t-17 -66l-10 -30q-9 -27 -13 -30q-9 -7 -32 16z" />
    <glyph glyph-name="two" unicode="2" 
d="M139 37q-13 11 -17 20q-1 1 -1 6q0 7 3 16t6 9q3 -3 16.5 15.5t14.5 23.5q1 4 6.5 7.5t7.5 4.5q5 8 14.5 17.5t12.5 13.5q4 5 15 16.5t20 20.5q24 22 35 34q52 56 54 65l4 4t8 6q15 10 28 23q1 7 11 22t20 25q8 11 14.5 24.5t9.5 23.5l2 9q0 4 -5 6.5t-11.5 4.5t-10.5 3
q-23 7 -40 7q-37 0 -76 -27q-14 -3 -22 -7q-18 -6 -23 -5q-3 1 -9 9t-11 13l-10 21l31 17q62 41 108 41q16 0 28 -4q9 0 18 -2t11 -3q12 1 31.5 -19t29.5 -41q12 -18 12 -37q0 -30 -32 -77q-22 -26 -67 -75t-55 -57q-12 -6 -58 -58t-42 -52v-2q0 6 62.5 15.5t96.5 9.5
q11 0 15 -2q2 -4 3.5 -3.5t1.5 1.5q1 4 14 4q23 0 54 -9q3 -1 10.5 -3t10.5 -4t3 -4q1 -1 3.5 -5.5t7.5 -10.5q9 -7 9 -12q0 -7 -17 -7q-12 0 -40 5q-26 0 -43 -3q-3 -2 -18.5 -2.5t-23.5 -0.5q-5 1 -14 1q-23 0 -65 -14q-22 -9 -72 -22t-59 -10q-7 3 -20 14z" />
    <glyph glyph-name="three" unicode="3" 
d="M172.5 28.5q-30.5 12.5 -28.5 29.5q1 11 3.5 14.5t10.5 3.5l21 -2q22 -4 36 -4q45 0 92 17t71 41q24 23 24 48q0 28 -31 49q-19 13 -58 24t-60 9q-3 -1 -8 -1q-10 0 -25 9q-9 10 -18 28q-1 5 5.5 10t31.5 19.5t65 35.5q61 34 87.5 50.5t41.5 28.5q8 10 13 18t5 12t-6 7
t-20 6q-29 3 -53 3q-18 0 -18 -3h-4q-7 3 -38.5 -4t-32.5 -11q-1 -3 -21 -10t-25 -7q-8 2 -17.5 19t-6.5 24q3 9 62 37q19 5 63.5 7.5t65.5 0.5q90 -10 102 -75q3 -10 3 -18q0 -11 -7.5 -20.5t-30.5 -30.5l-24 -16q-33 -21 -65 -39q-2 -2 -25 -17q-26 -16 -26 -19
q2 -2 9.5 -6.5t15.5 -11.5q26 -9 50 -29.5t37 -38.5q12 -27 12 -52q0 -32 -18.5 -59.5t-55.5 -49.5q-27 -15 -64 -26t-70 -13q-40 0 -70.5 12.5z" />
    <glyph glyph-name="four" unicode="4" 
d="M310 27q0 11 9 50q6 35 16 73l7 32q7 16 11.5 31.5t5.5 19.5q-4 0 -16.5 -2t-27.5 -8q-36 -9 -59 -9q-22 0 -36.5 8t-25.5 26q-5 5 -8.5 17t-3.5 24q0 14 5 18q5 11 9.5 20t7.5 16q11 22 11 25q0 2 2.5 6.5t2.5 7.5q9 19 55.5 87.5t61.5 83.5q9 4 17.5 6t11.5 -1
q4 -9 8 -25t1 -16q-1 0 -3 -1t-2 -4q0 -6 -32 -44q-58 -79 -91 -140q-13 -38 -13 -48q0 -5 3 -8q6 -2 15 -2q24 0 65 12q48 10 59 15q8 0 14.5 3t6.5 7q0 3 7.5 18.5t9.5 22.5l15 30q20 42 28 55q18 39 24 55q7 17 11.5 25.5t6.5 8.5q5 0 12 -4t10 -11q4 -4 6.5 -8t2.5 -9
t-6 -17q-3 -12 -7 -22t-11 -23l-16 -31q-26 -51 -59.5 -127.5t-44.5 -111.5q-13 -37 -21 -63t-8 -38q0 -9 5 -19q1 -18 -9 -31t-21 -13q-12 0 -15 13q-7 8 -7 20z" />
    <glyph glyph-name="five" unicode="5" 
d="M154.5 35.5q-5.5 6.5 -5.5 10.5q-2 4 -4 5t-5 1q-4 -2 -8 13.5t-2 22.5q4 9 16 9q7 0 13 -3.5t7 -9.5q2 -8 14.5 -12.5t31.5 -4.5q40 0 88.5 27t74.5 61q8 17 14.5 44.5t6.5 42.5q0 9 -3 9q0 2 -1.5 8t-4.5 14q-5 14 -23 30t-35 23q-28 4 -42 4q-12 0 -17 -1l-15 -1
q-10 0 -17 1t-9 1q-8 2 -24 15.5t-16 20.5q3 15 30 58.5t49 65.5q29 31 64.5 47.5t73.5 16.5q37 0 50.5 -4t25.5 -20q7 -13 7 -23q0 -8 -4 -13t-11 -5q-6 0 -12 3q-11 7 -32 7q-23 0 -58 -10q-21 -8 -44.5 -25.5t-28.5 -28.5q-2 -2 -5 -5.5t-6 -2.5q-1 -1 -3.5 -4.5
t-2.5 -6.5q-3 -3 -5 -6t-3.5 -3.5t-3.5 2.5l-1 -10v-5q0 -6 4.5 -9t18.5 -4q28 -4 40.5 -8t35.5 -18q34 -20 53 -57.5t19 -82.5q0 -9 -2 -29q-3 -25 -6.5 -36t-16.5 -31q-35 -48 -91 -78.5t-105 -30.5q-30 0 -52 14q-7 5 -12.5 11.5z" />
    <glyph glyph-name="six" unicode="6" 
d="M209 24q-31 0 -54 23q-15 11 -21.5 21.5t-9.5 29.5q-6 20 -6 30q0 11 9 56q9 41 15 59.5t23 42.5q7 20 18 42t16 28q4 5 14.5 20.5t21.5 26.5l27 36q14 9 19 16q18 21 58 45.5t69 27.5q12 4 21 4q11 0 9 -5l4 -4t10 -4q3 -1 6.5 -7.5t5.5 -9.5q2 -9 -1 -15t-16 -18
q-14 -10 -19.5 -11.5t-9.5 3.5q1 3 -3 5t-6 2q-10 2 -47.5 -22t-58.5 -48q-22 -20 -25 -28q-11 -11 -20.5 -22.5t-12.5 -15.5q1 -4 8 -4q6 0 12 3t7 5q0 4 22.5 10.5t45.5 8.5q6 2 12 2q8 0 38 -6q23 -5 31 -9t19 -18q19 -18 26.5 -35.5t7.5 -41.5q0 -20 -3.5 -32.5
t-13.5 -25.5q-13 -21 -34.5 -47.5t-33.5 -34.5q-4 -2 -7 -4t-4 -3q-2 -11 -47.5 -36t-77.5 -33q-24 -7 -44 -7zM210 76q13 0 39 11q22 6 26 5q4 3 16.5 11t30.5 19q48 31 77.5 69t29.5 67q0 5 -1 8v2q0 5 -2.5 14t-2.5 11q-4 0 -11.5 2t-16.5 4q-12 2 -18 2q-16 0 -78 -14
q-5 -1 -12.5 -3t-17.5 -4q-7 -2 -17 -6.5t-17 -6.5q-14 -11 -27 -14q-12 -1 -20 -19t-19 -68q-8 -43 -8 -51q0 -10 4 -15q1 -11 6 -14.5t15 -5.5q20 -4 24 -4z" />
    <glyph glyph-name="seven" unicode="7" 
d="M185 20q-7 33 70 178q22 35 22 42q0 4 -5.5 5t-14.5 1q-5 1 -19 4t-17 7q-19 10 -19 21q0 6 7 7q10 2 10 6q0 3 -12 7l11 -2l50 -1q18 0 26 -1q3 -1 8 -1q7 0 11 3.5t10 11t9 11.5l19 30q20 28 36 56q54 77 54 98q0 14 -20 14q-16 0 -35.5 -5.5t-61.5 -21.5
q-22 -9 -38.5 -15t-24.5 -6q-9 0 -14 4q-7 1 -10.5 8t-3.5 16q0 7 1 10q4 18 131 50q32 5 55 5q38 0 45 -13q1 -1 3 -2.5t3 1.5q3 -1 6.5 -8.5t7.5 -15.5q2 -4 8 -15t6 -19q0 -4 -2 -14q-3 -10 -10 -21t-11 -15t-6.5 -8.5t-3.5 -5.5q-1 -3 -6.5 -7.5t-9.5 -9.5
q-1 -3 -4.5 -8.5t-4.5 -8.5l-55 -83q-14 -13 -14 -19t13 -12q35 -16 43 -40v-9q0 -11 -5 -14q-4 -6 -14 -6q-12 0 -15 5q-4 8 -22.5 15.5t-24.5 7.5q-5 -3 -17 -19q-8 -11 -33 -61l-26 -47q-1 -3 -5.5 -10t-6.5 -12q-4 -7 -7 -21t-3 -25q0 -10 3 -10q2 1 5 1q9 0 12 -14
q5 -7 -3 -17t-21 -16t-24 -4q-22 4 -36 38z" />
    <glyph glyph-name="eight" unicode="8" 
d="M158 -24.5q-9 6.5 -22 18.5q-2 4 -7 15t-5 23q0 4 2 18q0 35 12 54q12 34 50 91t66 92q11 13 11 21q0 6 -6 16t-15 23q-3 8 -7.5 15t-2.5 7q-1 1 -3 4t-5 10q-15 14 -15 43t15 57q16 36 35.5 54.5t49.5 22.5q28 -4 70.5 -12.5t65.5 -18.5q18 -7 42 -26.5t26 -27.5
q0 -2 3 -6.5t5 -8.5q6 -13 6 -33q0 -29 -11 -46q-25 -28 -35 -32q-3 -2 -10.5 -9t-15.5 -9q-13 -17 -18 -17q-5 3 -8.5 3.5t-3.5 -3.5q-1 -4 -27 -15.5t-32 -8.5h-1q-5 0 -11 -4q-5 1 -1.5 -7.5t16.5 -24.5q39 -73 39 -113q0 -19 -8 -30q-19 -43 -41 -71t-35 -26l-14 -9
q-2 -6 -8 -9t-12 -2l-3 1q-11 0 -28 -11q-13 -9 -31.5 -14t-34.5 -5q-13 0 -19 3q-9 1 -18 7.5zM389 371q12 0 16 -9q2 -4 23.5 9.5t37.5 29.5q4 6 6 11.5t2 11.5l-2 16q1 15 -6.5 23t-38.5 20q-44 16 -79 16q-61 0 -77 -57q-6 -18 -6 -33q0 -18 8 -33q8 -3 11.5 -9t3.5 -8
q0 -3 2 -6t6 -3q1 -4 6.5 -8t13.5 -4q13 0 31 11q25 22 42 22zM237 33q32 15 57 32q30 25 44.5 47t14.5 45q0 15 -6 28q-20 41 -25 48q-9 14 -20 20q-2 -1 -9 -7t-11 -15q-18 -22 -28 -41l-22 -22q0 -3 -6 -17t-14 -29q-14 -24 -21.5 -46.5t-7.5 -38.5t9 -18q13 -1 45 14z
" />
    <glyph glyph-name="nine" unicode="9" 
d="M297 -18q-9 8 -9 12q1 3 0 4t-4 1q-1 2 -2.5 8t-0.5 12q0 4 1 13.5t1 20.5q2 27 17.5 82.5t32.5 105.5q13 34 13 41q0 10 -14 10q-7 0 -12 -1q-6 -1 -16 -1q-39 0 -66.5 28t-27.5 67q0 18 5 31.5t20 37.5q31 46 72 78t80 39q14 2 26 2q31 0 46 -6q22 -9 41 -39.5
t14 -47.5q-6 -31 -15 -48.5t-23 -32.5q-23 -20 -58 -89t-60 -140q-19 -54 -19 -94q0 -17 5 -17q3 0 11 -3t10 -3q3 -4 3 -8t-5 -17q-5 -14 -24 -35t-26 -20t-16 9zM296 343q27 0 60 23.5t57 60.5l19 25q12 15 14 17q15 17 15 26q0 7 -6 13q-7 12 -23 12q-10 0 -34 -8
q-15 -3 -28.5 -9.5t-35.5 -20.5q-6 -6 -16 -4q-1 0 -2.5 -1t-1.5 -4q1 -1 1 -4q0 -9 -13 -19q-19 -19 -29 -40.5t-10 -38.5q0 -10 5 -17q10 -11 28 -11z" />
    <glyph glyph-name="colon" unicode=":" horiz-adv-x="198" 
d="M200 255q-14 0 -30 12q-14 14 -14 28q0 22 34 45q20 12 29 12q5 0 24 -7q27 -16 27 -37q0 -12 -10.5 -24t-30.5 -22q-19 -7 -29 -7zM130 45q-13 0 -30 12q-14 14 -14 28q0 22 34 45q20 12 29 12q5 0 24 -7q27 -16 27 -37q0 -12 -10.5 -24t-30.5 -22q-19 -7 -29 -7z" />
    <glyph glyph-name="semicolon" unicode=";" horiz-adv-x="198" 
d="M200 255q-14 0 -30 12q-14 14 -14 28q0 22 34 45q20 12 29 12q5 0 24 -7q27 -16 27 -37q0 -12 -10.5 -24t-30.5 -22q-19 -7 -29 -7zM46.5 -77.5q-2.5 1.5 -6.5 8.5q0 6 4 11.5t10 12.5q17 17 37 41t27 37q7 22 15 59q0 20 5 25q6 6 11 6q12 0 18 -45q2 -14 2 -21
q0 -23 -17 -63q-4 -10 -24.5 -34.5t-24.5 -24.5q-5 0 -14 -9q-3 -3 -11.5 -4t-18.5 -1t-12.5 1.5z" />
    <glyph glyph-name="less" unicode="&#x3c;" horiz-adv-x="446" 
d="M349 60q-31 8 -46 14t-30 17q-35 11 -58.5 28t-47.5 44l-37 44l-7 30q8 1 22.5 11t17.5 11q16 13 46 31.5t81 46.5q47 22 64.5 34.5t21.5 15.5q22 17 30 16h4q6 0 12 -6q5 -6 13 -9.5t12 -6t4 -7.5q-1 -2 -5.5 -9t-10.5 -11l-28 -15q-46 -21 -118 -64l-37 -21
q-29 -16 -40.5 -26t-9.5 -23q9 -20 56.5 -45t123.5 -48q32 -8 54 -20t22 -23q0 -6 -9 -11q-2 -1 -13.5 -4t-29.5 -3t-37 4z" />
    <glyph glyph-name="equal" unicode="=" horiz-adv-x="446" 
d="M199 280q-14 0 -19.5 3t-9.5 11q-8 10 -8 14q0 6 13 9.5t46 6.5q73 14 173 14q31 0 41 -2.5t21 -12.5q14 -12 14 -23q0 -7 -6 -11.5t-16 -4.5l-8 1l-77 -5q-75 -5 -122 -5q-20 0 -42 5zM145 138q-15 0 -20.5 3t-9.5 11q-8 10 -8 14q0 6 13 9.5t46 6.5q73 14 173 14
q31 0 41 -2.5t21 -12.5q13 -12 13 -23q0 -8 -8 -12.5t-21 -2.5l-87 -5q-75 -5 -112 -5q-20 0 -41 5z" />
    <glyph glyph-name="greater" unicode="&#x3e;" horiz-adv-x="446" 
d="M184 43q-6 0 -9 3.5t-4 4.5q-5 6 -13 10t-12 7t-2 7q1 2 5 8.5t10 11.5l29 12q55 22 124 56q14 8 37 18q30 14 42.5 23.5t11.5 23.5q-8 21 -54 48.5t-120 55.5q-31 11 -51.5 24t-20.5 23q0 8 10 12q2 0 10.5 2t21.5 2q22 0 49 -8l27 -9q27 -9 39.5 -14.5t26.5 -17.5
q33 -14 55 -32.5t45 -48.5l34 -46l5 -30q-8 -1 -24 -9.5t-18 -9.5q-14 -10 -42 -24.5t-71 -34.5l-18 -9q-42 -16 -62 -28.5t-28 -16.5q-8 -6 -17.5 -10.5t-13.5 -3.5h-2z" />
    <glyph glyph-name="question" unicode="?" horiz-adv-x="374" 
d="M227.5 203q-7.5 11 -7.5 25q0 11 3 22q0 5 9 25q8 18 10 25q11 19 33.5 44.5t39.5 37.5l17 12q0 4 14 15t24 16q4 3 14 10t19 15q22 22 33 41.5t16 39.5t15 68l1 36q0 13 -2.5 20t-10.5 13q-12 6 -26 6q-34 0 -72 -26.5t-56 -66.5q-7 -18 -7 -26q0 -5 3 -13q0 -6 2.5 -15
t2.5 -12q-3 -1 -17 -1q-27 0 -37 5q-1 2 -4 6.5t-6 9.5q-4 6 -5 12t-0.5 12.5t0.5 13.5q12 36 35.5 70t58.5 52q20 9 33 15.5l17 8.5q2 0 10 0.5t23 2.5h5h6q10 0 10 -4h29q19 -5 38.5 -16t29.5 -23q6 -19 6 -46q0 -50 -19 -108.5t-49 -91.5l-22 -20q-49 -44 -62 -59
q-32 -18 -58.5 -54.5t-40.5 -76.5q-6 -14 -10.5 -21.5t-8.5 -9t-14 -1.5q-15 1 -22.5 12zM193 3q-13 0 -30 12q-14 14 -14 28q0 22 34 45q20 12 29 12q5 0 24 -7q27 -16 27 -37q0 -12 -10.5 -24t-30.5 -22q-19 -7 -29 -7z" />
    <glyph glyph-name="at" unicode="@" horiz-adv-x="643" 
d="M172 -73q-31 29 -55 70q-8 11 -13.5 29.5t-6.5 37.5q-2 26 5.5 67t18.5 62q0 4 1.5 8t2.5 8q0 6 7 20t16 27l15 21q49 65 75.5 94.5t76.5 64.5q29 22 71.5 40.5t76.5 23.5l9 1l34 -2q30 -3 58 -15.5t49 -32.5q61 -48 78 -124q4 -20 4 -44q0 -26 -3 -50t-9 -36
q-21 -45 -60.5 -88.5t-61.5 -49.5q-16 0 -40.5 7t-35.5 17q2 0 -19 12l-8.5 -8.5t-16.5 -15.5q-20 -20 -48 -32.5t-41 -9.5q-31 8 -42.5 15t-31.5 34q-7 18 -7 34t10 49q6 26 16 45.5t28 45.5q16 23 34.5 37.5t47.5 26.5q12 6 36 6q21 0 36 -10q9 -1 21.5 -17t19.5 -32
q3 -15 3 -22t-3 -24q-2 -6 -3 -11.5t-2 -10.5q-3 -15 -7 -30q-6 -16 -6 -24q0 -3 2 -9q-1 -5 14 -12t23 -7q6 0 16.5 5.5t19.5 16.5q5 6 22 23.5t26.5 33.5t15.5 37q2 16 2 34q0 54 -25 99t-75 66q-20 8 -55 8q-50 0 -87 -16q-26 -9 -76.5 -49t-75.5 -69q-83 -100 -98 -206
q-1 -8 -1 -22q0 -26 9 -44q22 -44 71 -75q57 -23 120 -19q8 -2 10.5 -5t1.5 -11l8 -16q0 -9 -3.5 -13t-12.5 -8q-19 -8 -47 -8q-69 0 -135 52zM407.5 113q19.5 18 23.5 29l8 16q21 33 26 63q0 1 8 22q0 7 -1.5 10.5t-9.5 8.5h1q-22 5 -33 5q-12 0 -24 -5q-19 -8 -39.5 -37.5
t-33.5 -64.5t-11 -56q12 -23 33 -23q9 0 17 4q16 10 35.5 28z" />
    <glyph glyph-name="A" unicode="A" horiz-adv-x="502" 
d="M69 -33q-11 6 -15.5 11t-4.5 13q0 10 8.5 28.5t29.5 58.5q6 13 23 46q58 111 58 121q-1 2 -1 6q0 10 16 18q23 23 38 49q10 22 27 52.5t42 72.5q12 21 36 61q37 66 95 144q23 31 38 30q19 0 42.5 -17.5t32.5 -39.5q4 -7 4 -30q0 -31 -7 -105q-2 -13 -4 -41q-3 -45 -9 -96
q-11 -112 -16 -175t-5 -118q0 -28 1 -41v-7l-1 -23q-6 -6 -18 -6q-14 0 -27 6.5t-15 15.5q-1 1 -3 2t-2 9l1 22l3 56l5 162l-13 -1q-20 0 -89 -8t-86 -13q-9 0 -22 -12t-23 -31q-3 -10 -14 -28.5t-11 -21.5q-6 -4 -10.5 -10.5t-5.5 -8.5q0 -11 -20.5 -56t-40.5 -75l-21 -32z
M302 293.5q20 3.5 36 4.5q72 17 88 17q7 0 13 -3q3 -4 6.5 -5.5t4.5 -1.5q2 6 12.5 108.5t11.5 136.5l3 50q-6 0 -26 -23t-44.5 -59.5t-43.5 -74.5q-10 -18 -19.5 -33.5t-13.5 -15.5q-7 -7 -33 -54t-21 -51q6 1 26 4.5z" />
    <glyph glyph-name="B" unicode="B" horiz-adv-x="512" 
d="M149.5 -22q-15.5 15 -15.5 28t17 23q5 3 17.5 -5.5t24.5 -20.5q26 -24 68 -24q18 0 48 7q41 12 72.5 35t60.5 59q18 24 27 53t9 55q0 32 -12 47q-40 54 -114 54q-32 0 -60 -8l-58 -12q-2 -1 -9 -2.5t-22 -43.5t-39 -110q-21 -61 -33 -85.5t-22 -24.5t-24 22
q-11 18 -11 31t9 28q5 9 8.5 18t7.5 25q13 39 75.5 194t97.5 234q25 57 15 60q0 3 -3 9t-2 9q0 6 28 18t41 10h6q13 0 13 5q2 0 18.5 2t35.5 0q67 -6 104 -39t36 -88q-1 -25 -35 -73.5t-68 -79.5q-16 -14 -36.5 -29.5t-26.5 -19.5l25 -9q49 -18 77.5 -44.5t39.5 -70.5
q2 -10 2 -18q0 -22 -7.5 -50t-16.5 -49q-6 -6 -10 -13t-5 -9q-1 -4 -18 -30.5t-30 -42.5q-50 -43 -89 -57q-42 -19 -95 -19q-49 0 -74 16q-32 20 -47.5 35zM290.5 336.5q33.5 6.5 46.5 11.5q2 1 12.5 6.5t21.5 16.5q24 22 59 65.5t51 73.5q25 41 25 60q0 13 -11 24
q-13 16 -62 16q-32 0 -55 -6q-14 -4 -20.5 -9.5t-6.5 -16.5q0 -15 -16 -31q-1 -6 -4.5 -11.5t-4.5 -6.5q0 -3 -12 -30q-16 -31 -30 -70q-38 -90 -38 -101q11 2 44.5 8.5z" />
    <glyph glyph-name="C" unicode="C" horiz-adv-x="482" 
d="M173.5 -31q-19.5 14 -32.5 46q-16 45 -16 106q0 59 7 100.5t24 84.5l9 21q16 41 23 54q17 39 60 101q38 58 60 84.5t42.5 42.5t75.5 54q23 17 53 17q25 0 46.5 -12.5t32.5 -35.5q11 -19 11 -51q0 -45 -20 -94t-51 -77q-10 -9 -19 -9q-11 0 -29 16q-9 17 -10 20t4 4
q9 11 26.5 42.5t23.5 49.5q2 6 4 20q8 35 8 47t-7 19q-3 3 -8 3q-8 0 -28 -10q-24 -10 -61 -45t-67 -76q-46 -60 -70.5 -99t-37.5 -79l-11 -26q1 -4 -3 -20t-9 -26q-14 -58 -14 -115q0 -43 7.5 -76t21.5 -45q8 -7 24 -7q20 0 49.5 10t72.5 29q23 9 43.5 21t30.5 22
q26 19 42 19q11 4 15 4q2 0 2.5 -2.5t0.5 -6.5q0 -14 -15 -30.5t-40 -31.5q-20 -20 -48 -31q-32 -23 -74.5 -41t-77.5 -18q-8 0 -20 2q-31 11 -50.5 25z" />
    <glyph glyph-name="D" unicode="D" horiz-adv-x="578" 
d="M191 -99q-20 0 -48 8q-13 4 -19 9t-13.5 14.5t-11.5 14.5q-18 25 -18 44q0 15 14 11q10 -5 22 -20q12 -12 26 -17.5t34 -5.5q7 0 27 2q24 4 56 15t47 23q48 33 78.5 53t38.5 25q2 5 21 12l27 26q26 28 34 34q1 7 3.5 14.5t2.5 11.5q12 13 36 62.5t33 85.5q9 47 9 83
q0 61 -21.5 102.5t-62.5 76.5q-21 17 -69.5 37.5t-56.5 17.5q-5 -1 -27 -57.5t-60 -162.5l-32 -89q-4 -16 -9 -30t-8 -25q-13 -37 -13 -42q-11 -17 -17.5 -44.5t-14.5 -93.5q-9 -33 -8 -30q-4 -17 -7 -28t-6 -10l-4 -4q0 -6 -9 -6q-8 0 -18 4.5t-16 10.5q-4 14 -4 20
q0 13 8 40q8 34 26.5 95.5t31.5 100.5q7 17 20 64q11 37 24.5 76t19.5 49q2 7 13.5 40t27.5 73l7 33l-11 5q-9 -3 -16 -3q-5 0 -11 3q-10 -3 -27.5 8.5t-19.5 21.5q-2 3 -2.5 9t-0.5 8q2 10 40 18.5t83 8.5q19 0 29 -1q18 -1 34.5 -6t40.5 -15l24 -9q32 -12 68.5 -42
t65 -70.5t38.5 -82.5q3 -13 6 -36t3 -41q0 -21 -4 -26q-3 -4 -3 -10t4 -7q-2 -6 -7 -22t-11 -34q-6 -63 -56 -148q-5 0 -8 -1.5t1 -2.5q0 -5 -11 -19q-3 -2 -12.5 -14.5t-13.5 -15.5q-1 -7 -6 -11.5t-9 -4.5l-1.5 -0.5t-1.5 -3.5q-18 -26 -65.5 -64t-84.5 -54
q-10 -7 -23.5 -13t-18.5 -8q-8 -7 -40.5 -19.5t-52.5 -16.5q-26 -4 -34 -4z" />
    <glyph glyph-name="E" unicode="E" horiz-adv-x="548" 
d="M209 -13q-19 10 -43 29l-20 14q-18 18 -27.5 37.5t-15.5 50.5q-2 12 -2 21q0 29 10 68.5t22 64.5q22 53 97 170l5.5 5.5t1 2l-0.5 0.5q0 7 29 62q17 18 17 31q0 7 -3 11q-4 5 18.5 24.5t56.5 38.5q27 21 53 21q8 0 13.5 -2.5t6.5 -7.5q0 -6 40 4q18 4 26 5q4 5 20.5 8.5
t46.5 7.5q16 -1 33 0t22 2q8 3 17.5 -2.5t16.5 -21.5q3 -7 3 -13q0 -11 -13.5 -17.5t-46.5 -10.5t-41 -5q-55 -6 -116 -19q-39 -8 -56.5 -20t-39.5 -46q-7 -5 -18 -25.5t-22 -42.5q-3 -4 -7 -10t-10 -13q-29 -39 -40 -56.5t-8 -21.5q3 -1 11.5 -3t14.5 -3q9 5 25 7t23 4
q159 41 180 44q9 6 17 6q18 0 32 -24q3 -6 3 -11q0 -9 -14 -17t-53 -19.5t-94 -26.5l-32 -9q-65 -19 -101 -19q-31 0 -30 17q-10 5 -22.5 -22t-21.5 -66.5t-9 -66.5q0 -14 3 -22q9 -25 22.5 -38t45.5 -22q7 -1 17.5 -2t24.5 -1q20 0 40 8q51 9 87.5 20t44.5 16q6 3 10 4t8 1
l-1 -2v-0.5t1 -0.5q3 0 18 17q17 14 46.5 27t30.5 6q2 -6 2 -10q0 -19 -23.5 -45.5t-63.5 -49.5q-49 -26 -109.5 -38.5t-116.5 -13.5q-22 1 -41 11z" />
    <glyph glyph-name="F" unicode="F" horiz-adv-x="466" 
d="M134 -22q-6 0 -13.5 3t-12.5 9q-7 6 -10.5 10t-3.5 10q0 8 6 26q8 36 29.5 103t38.5 101q7 12 11 25t5 17q5 18 6 21l-1 10q0 4 2 8t7 9q14 12 30 47l38 109l12 34q1 4 4 14t3 14t-2 4q-8 -2 -32 -3q-12 -2 -18 -2.5t-9 -1.5h-7q-19 0 -19 14q2 16 11.5 26.5t24.5 11.5
l39 9q9 2 24.5 5.5t21.5 1.5q13 9 13 14t5 8t12 3q14 0 20 -9q4 -6 17 -6q21 0 70 11q8 1 27.5 2.5t32.5 1.5q18 0 29 -3q9 2 16 2t12 1q17 0 21 3q9 -2 20.5 -3.5t16.5 -3.5t9 -5q3 -4 3 -7t-1 -4l-2 1q1 0 3.5 -1.5t5.5 -4.5q15 -8 10 -23q-1 -6 -4.5 -8.5t-16.5 -3
t-34 0.5q-38 5 -66 5q-42 0 -115 -10q-18 -1 -33.5 -5t-19.5 -5q-5 0 -15 -15t-18 -38q-6 -9 -21 -47.5t-20 -50.5q-22 -58 -25 -63q12 -4 48 -4q52 0 138 8q46 9 53 6q6 -4 10.5 -15t4.5 -20q0 -5 -2 -9q-3 -7 -21.5 -11t-65.5 -9q-44 -4 -128 -4q-44 0 -52 2
q-2 -1 -5.5 -6t-3.5 -12q-18 -32 -53 -124t-35 -110q-7 -18 -11 -41q-1 -4 -3 -11t-4 -9q0 -3 -7 -3z" />
    <glyph glyph-name="G" unicode="G" horiz-adv-x="498" 
d="M139.5 17q-15.5 31 -13.5 64q-1 118 41 249q18 53 44 111.5t44 89.5q28 46 62 81t55 47q13 7 35.5 13t47.5 6q20 0 37 -4q24 -6 47 -16.5t31 -17.5q4 -6 9.5 -14t8.5 -14t3 -13q1 -10 -8.5 -24t-19.5 -14q-6 0 -12 7q-10 15 -20 22.5t-21 12.5t-16 8q-13 8 -36 8
q-18 0 -36.5 -5.5t-31.5 -16.5q-18 -16 -44 -47.5t-40 -58.5q-60 -105 -85 -198q-8 -29 -18 -73t-13 -66q-6 -37 -6 -67q0 -37 12.5 -56.5t41.5 -19.5q20 0 49 10q33 4 75 38.5t70 78.5q45 84 45 113q0 20 -19 20q-20 2 -50 2q-20 0 -31 1t-20 6q-7 11 -7 19q0 12 13 25
q14 6 55 6q58 0 91 -16q31 -15 31 -61q0 -22 -4 -39q-9 -39 -61 -117q-23 -32 -68.5 -69.5t-73.5 -48.5q-55 -25 -99 -25q-31 0 -52 15q-27 17 -42.5 48z" />
    <glyph glyph-name="H" unicode="H" horiz-adv-x="564" 
d="M122 -80q-6 2 -13 2q-12 3 -19.5 13t-7.5 23q0 7 1 11q3 3 5.5 15.5t2.5 22.5q3 6 5 12.5t5 18.5q8 44 37 148t36 111v11q0 3 2 12t9 19q4 12 6.5 23.5t3.5 17.5q4 5 13.5 30t12.5 33q7 19 17.5 44.5t14.5 33.5v5q2 2 10.5 20.5t14.5 31.5q7 16 37 83q3 7 9.5 17.5
t6.5 14.5q4 7 14 7q9 0 18.5 -6.5t14.5 -16.5l10 -16l-36 -72q-15 -26 -26 -50t-11 -28q-4 -10 -15.5 -41t-18.5 -53q-5 -15 -12 -31.5t-10 -23.5q-8 -18 -8 -20q0 4 120 4q19 0 67.5 1t60.5 3l52 5l34 103q10 35 44 136q15 43 24 55.5t22 12.5q5 0 14.5 -4.5t12.5 -11.5
q11 -11 11 -23q0 -14 -16 -39q-12 -21 -34 -79q-9 -27 -11 -31q0 -21 -10 -31q-4 -4 -14 -28.5t-10 -28.5q0 -8 -3 -17.5t-7 -13.5l-7 -24q-35 -127 -55 -176q0 -5 -5 -18t-5 -18q-2 -7 -9 -28t-7 -25q-2 -11 -8 -35q-15 -68 -15 -74q-2 -2 -6 -2t-12.5 3t-12.5 5
q-24 13 -24 30q0 11 9 29q3 5 19 65l9 37q6 16 27 95q17 61 19 63v10q-3 5 -73 5q-79 0 -145 -8h-47h-26q-5 -11 -30.5 -92.5t-28.5 -102.5q-7 -33 -22 -91.5t-23 -85.5q-2 1 -8 3z" />
    <glyph glyph-name="I" unicode="I" horiz-adv-x="400" 
d="M101 -16l-9 -1q-19 0 -33 9t-11 20q2 26 83 27l53 1l10 20q8 23 23 74q5 19 21 64q31 96 33 104q5 12 16 48t17 59q47 145 38 147q-10 1 -54.5 -3.5t-49.5 -7.5q-3 -4 -10 -4q-6 0 -13 4.5t-9 10.5q-1 4 -1 11t6 11q11 9 48.5 20.5t72.5 15.5q17 2 34.5 7.5t26.5 13.5
q21 7 35 6q7 -5 34 -5q23 0 35 1q36 4 61 4q19 0 27.5 -4t13.5 -13q4 -16 4 -21q0 -19 -22 -18q-17 -4 -82 -6q-71 -6 -76 -14q-5 -5 -7.5 -9t-5.5 -8q1 -4 -4.5 -25.5t-13.5 -43.5l-18 -53q-28 -87 -36 -107q-7 -17 -10 -35q-17 -59 -28 -93.5t-17 -55.5q-19 -56 -29 -94
l57 5q59 6 77 6q14 0 19.5 -3t8.5 -12q12 -15 12 -25q0 -12 -19 -17t-59 -4q-46 -2 -76.5 -3.5t-41 -4.5t-12.5 -10q0 -8 -9 -8q-10 0 -19 4q-13 18 -91 15z" />
    <glyph glyph-name="J" unicode="J" horiz-adv-x="306" 
d="M57 -188q-23 0 -46 10.5t-40 29.5q-10 10 -10 21q0 6 3 15q5 18 13 18q4 0 11.5 -5.5t13.5 -13.5q20 -17 38 -17q36 0 76 62l26 58q56 123 63 144q0 1 1 4t4 7q1 4 5.5 17t7.5 27l42 119q4 20 11.5 43.5t13.5 39.5q4 8 30 86q12 38 21 65q4 12 15 48t9 39l-56 -10
q-11 -5 -27 -5q-10 0 -16.5 2t-5.5 5v5q-5 -4 -13.5 5.5t-7.5 17.5q0 8 19.5 14.5t51.5 10.5l72 10q5 4 25 -3.5t28 -15.5q8 -11 8 -22q0 -14 -8.5 -39.5t-38.5 -106.5l-33 -93q-24 -73 -37 -103q-4 -13 -11 -32q-17 -49 -25 -78q-12 -28 -26 -76q0 -8 -4 -18t-9 -15
l-24 -59l-9 -24q-2 -6 -10.5 -27t-15.5 -31q-3 -8 -11 -21t-8 -16q0 -1 -1 -3.5t-4 -2.5l-3.5 -3.5t-2.5 -6.5q-5 -12 -31 -37t-42 -32q-18 -7 -32 -7z" />
    <glyph glyph-name="K" unicode="K" horiz-adv-x="494" 
d="M669.5 583.5q-6.5 -7.5 -28.5 -19.5q-45 -22 -51 -33q-5 -4 -22.5 -17t-43.5 -32q-39 -26 -67.5 -49t-37.5 -35q-3 0 -7.5 -3t-7.5 -2q-2 -1 -9 -6t-10 -9q-3 -8 -9.5 -15.5t-15.5 -6.5q-19 -10 -75 -55q7 -77 39 -135q29 -64 59 -94q21 -23 39.5 -36t28.5 -13
q9 -3 25 -14t17 -18q1 -2 1 -8q0 -15 -5 -22q-4 -7 -7 -10.5t-10 -3.5q-11 0 -27 8q-16 -1 -55 30t-60 57q-27 39 -46.5 71t-29.5 70q-4 18 -15 54q-7 19 -8 27v19l-12 -30q-1 -3 -12.5 -33t-32.5 -106l-16 -52q-23 -72 -30.5 -91t-15.5 -19q-4 0 -10.5 4.5t-9.5 6.5
q-8 5 -11 9t-3 10q0 7 5 25q-1 13 2 25t3 14q7 0 7 16q0 8 9 35l9 31l12 29q11 28 11 30q0 13 13 33q4 12 7 26t3 23q2 5 11 23t13 36q1 5 3.5 11t5.5 15l33 90l15 34q2 5 13.5 31t15.5 26v11q0 4 11 26l12 24q8 12 12.5 25t5.5 17q1 2 4 7t7 9q11 8 20 8q14 0 24 -20
q7 -14 7 -25q0 -10 -9 -24q-34 -73 -68.5 -150t-34.5 -89l34 25q26 26 83 69l123 100q28 14 66 44q10 6 16 11t10 7q6 5 24 17.5t23 11.5q11 5 24 -10t11 -28q2 -10 -4.5 -17.5z" />
    <glyph glyph-name="L" unicode="L" horiz-adv-x="426" 
d="M146 1.5q-32 29.5 -41 62.5q-4 30 -4 67q0 24 3 27q3 2 3 12q-1 6 7 33q7 18 4 31l3.5 7t6.5 10q5 5 5.5 10.5t-0.5 7.5v1q0 4 2.5 10.5t5.5 10.5q3 3 5.5 8l3.5 7q1 7 15.5 44.5t19.5 45.5v2q4 10 11 21q2 14 14 39q23 51 64.5 117.5t65.5 89.5q10 11 16.5 15.5
t12.5 4.5q9 0 23 -14q12 -12 12 -32q0 -11 -4 -11q-13 -9 -52 -65t-63 -100q-13 -28 -22.5 -47l-12.5 -25l-4 -9q-24 -51 -45 -110q-5 -6 -6.5 -12.5t-1.5 -8.5q-2 1 -3.5 -5.5t-3.5 -11.5q-7 -6 -7 -29q-11 -27 -18 -68t-5 -61q4 -33 55 -53q23 -9 34 -9q7 -1 21.5 1
t33.5 5h-1q5 1 55 12q24 3 40 9q30 9 39 9q6 0 8 -2q8 -6 8 -15l-2 -9q-3 -8 -32 -24t-56 -24q-21 -9 -48.5 -14t-53.5 -5q-27 0 -40 5q-39 10 -71 39.5z" />
    <glyph glyph-name="M" unicode="M" horiz-adv-x="720" 
d="M654 -52q-5 0 -12 4t-11 11q-8 17 -8 42l1 41q31 182 73 366q14 49 23.5 93t11.5 56q0 3 -5.5 -2.5t-10.5 -13t-4 -10.5l-25 -37q-6 -6 -28 -46q-15 -32 -27 -50l-28 -53q-31 -57 -38 -69q-10 -15 -29 -52q-10 -24 -36 -57q-8 -11 -15.5 -24t-9.5 -17q0 -5 -20.5 -34
t-37.5 -48q-23 -24 -38 -34.5t-28 -10.5q-17 0 -37 19q-13 14 -18.5 33t-5.5 47q0 25 7 84q1 5 19 107q19 103 23 113q1 6 1 14q0 9 -3 9t-11 -13q-3 -4 -35.5 -56t-69.5 -133q-58 -107 -86 -160.5t-41 -76.5q-17 -33 -20 -36q-15 0 -38 25q-3 6 -3 11q0 7 6.5 23t18.5 42
q31 61 41 69q12 16 14 35q13 18 37 65q15 24 35.5 60t36.5 69l28 49q39 68 62.5 105t35.5 49q16 19 16 30q0 21 8.5 38.5t17.5 15.5q12 0 19.5 -2.5t15.5 -12.5q2 -3 6.5 -9.5t7 -14t2.5 -18.5q0 -12 -3 -30q-1 -13 -8 -59q-4 -22 -4 -27q-26 -79 -46.5 -197.5t-20.5 -166.5
q0 -11 2 -15q7 -5 12.5 -1t16.5 26q13 24 44 62q2 3 39 66q92 151 179 303l26 41q15 24 29 44.5t22 26.5q10 8 19 8q19 0 34 -23t15 -58q0 -27 -11 -82.5t-29 -111.5q-6 -28 -17 -70t-23 -76q-2 -17 -8 -43q-1 -5 -5.5 -30.5t-2.5 -34.5q-15 -27 -15 -108l-3 -23
q-2 -28 -4 -38t-6 -9q-2 1 -6 1q-7 0 -7 -6q0 -4 -7 -4z" />
    <glyph glyph-name="N" unicode="N" horiz-adv-x="566" 
d="M49 -35q0 7 3.5 19.5t5.5 19.5q9 35 24 67q8 19 16 42t13 50q20 46 35.5 89.5t19.5 55.5q1 5 22 49q17 33 31 63q5 14 25 74q14 45 25 72t28 54q18 30 43 30q12 0 21.5 -7.5t14.5 -22.5q8 -19 12.5 -46.5t6.5 -92.5q1 -20 1 -59v-95q0 -51 2 -84t9 -57q8 -46 22 -99.5
t22 -53.5q12 0 40 71.5t71 245.5q6 20 14 58t12 74q11 41 21.5 85.5t10.5 48.5q0 5 0.5 10t-0.5 12q4 0 8.5 13t4.5 24q0 29 14 43q3 7 15 7t23.5 -6.5t15.5 -15.5q3 -21 -28 -153q0 -12 -14 -72q-9 -34 -14 -65q-4 -29 -9.5 -50t-9.5 -20q-41 -176 -105 -322
q-29 -69 -64 -69q-24 0 -49 32q-27 35 -37.5 71t-27.5 126q-17 47 -17 109q0 36 5 84l4 69q-1 40 -2.5 55.5t-5.5 15.5t-12 -18t-23 -61q-16 -40 -44 -106l-26 -64q-18 -36 -27 -73q-42 -109 -70 -200l-9 -28q-15 -40 -29 -40q-10 0 -23 14q-15 15 -15 27z" />
    <glyph glyph-name="O" unicode="O" horiz-adv-x="496" 
d="M129 22.5q-11 15.5 -13 38.5q-1 5 -1 18q0 28 5 70t10 67q4 4 4.5 12t-0.5 10q0 3 5 20q12 37 17 62q27 82 53 131t58 92q43 44 67.5 64.5t54.5 34.5q39 23 56 23q3 0 9 -2q56 -12 84 -45.5t41 -103.5q9 -61 9 -92q0 -50 -18 -101t-65 -128q-54 -106 -127.5 -170
t-138.5 -64q-35 0 -64 21q-35 27 -46 42.5zM303.5 35.5q30.5 22.5 75.5 74.5q39 45 55.5 68t29.5 55t32 98q11 42 14.5 65.5t3.5 56.5l-1 65q-1 17 -7 35.5t-14 27.5q-15 17 -39 17q-15 0 -29 -7q-19 -8 -56 -46.5t-66.5 -79t-29.5 -52.5q0 -1 -1 -6t-4 -9q-17 -18 -38 -73
t-37 -119t-18 -107l-2 -34q0 -9 1.5 -14t6.5 -11.5t9 -13.5q5 -8 16 -13t23 -5q7 0 11 1q34 4 64.5 26.5z" />
    <glyph glyph-name="P" unicode="P" horiz-adv-x="472" 
d="M107.5 -44.5q-5.5 3.5 -9.5 9.5q-8 6 -8 18q0 23 34 121q7 28 15 54q7 18 7 27q0 8 2.5 18.5t2.5 14.5q12 0 22 41q4 15 7 25.5t4 16.5q2 3 4.5 9t4.5 11q8 24 19 46q12 45 28.5 94.5t27.5 73.5l12 30q1 3 4.5 11.5t3.5 12.5t-3 6q-5 3 -5 10q0 13 24 34q12 15 20.5 19.5
t23.5 4.5l32 -2q12 -1 64 -1q11 -5 26 -10q30 -10 30 -14q0 -5 3.5 -7t10.5 -3q10 0 31.5 -22.5t32.5 -46.5q7 -16 10.5 -26.5t3.5 -24.5q0 -15 -2 -24q-2 -16 -5 -31t-7 -19q-16 -12 -16 -21q0 -8 -25.5 -42t-48.5 -56q-26 -30 -62 -53q-118 -53 -165 -51q-32 -5 -39 -8.5
t-11 -16.5q-5 -13 -9.5 -27t-4.5 -18q-6 -11 -26.5 -74t-27.5 -94q-4 -13 -9 -16t-16 -3q-5 0 -10.5 3.5zM255 260q13 0 34.5 4t41.5 12q36 12 80 39q13 9 32.5 27t37.5 41q6 10 24 47q8 14 15.5 36t7.5 39q0 8 -1 12q-5 26 -26.5 48.5t-49.5 30.5q-21 4 -38 4q-14 0 -30 -3
q-16 -5 -23.5 -14t-19.5 -38q-23 -44 -42 -96q-18 -67 -36 -111t-21 -51v-4q0 -6 -1 -12t2 -9q2 -2 13 -2z" />
    <glyph glyph-name="Q" unicode="Q" horiz-adv-x="490" 
d="M568.5 413.5q-9.5 -52.5 -24 -91.5t-27.5 -39q-1 0 -3.5 -1t-2.5 -5q2 -8 -4.5 -33t-20.5 -52q-43 -115 -100 -182q10 -22 16 -30q2 -7 12 -23q12 -18 15 -28q23 -35 23 -45q0 -6 -6.5 -8.5t-20.5 -1.5q-15 -1 -31.5 11t-20.5 26q-6 6 -7 11.5t-2 7.5q-4 2 -11 11t-10 19
l-3 7q-51 -39 -104 -39q-11 0 -17 1q-24 4 -51 22.5t-37 39.5q-28 57 -28 124q0 52 15 124q10 38 33 105.5t27 67.5q3 3 3 17q0 11 31 60t55 70q33 44 96 76q10 6 31.5 14t36.5 9q49 3 74 -11.5t45 -54.5q14 -16 18.5 -30.5t7.5 -40.5q0 -6 2 -20q0 -35 -9.5 -87.5zM514 533
q0 27 -9 42t-29 24q-15 5 -28 5q-48 0 -98.5 -47.5t-85.5 -134.5q-51 -108 -75 -186t-24 -138q0 -29 6 -56q2 -27 13 -42t29 -15q9 0 14 2q41 6 80 45l-18 33q-30 59 -35 65q-3 3 -3 8q0 7 5 12q4 9 7.5 12t9.5 3q2 0 20 -4q23 0 42 -48q3 -11 13 -33q60 85 109 221l12 31
q19 45 30.5 85t12.5 85q2 12 2 31z" />
    <glyph glyph-name="R" unicode="R" horiz-adv-x="498" 
d="M601 513q0 -24 -11 -51q-16 -40 -81 -94.5t-121 -78.5q-22 -10 -51 -20t-57 -19q-20 -5 -40 -4l2 -2q23 -51 89 -124q31 -36 85 -82.5t93 -65.5q4 -4 4 -12q0 -9 -5.5 -19.5t-9.5 -11.5q-2 -1 -5 -2t-7 -1q-14 0 -40 17q-47 28 -91 65.5t-96 97.5q-23 27 -36.5 47.5
t-28.5 55.5l-2 -6q-30 -102 -91 -263q-5 -12 -15 -12q-11 0 -27 13l-7 7t-7 8.5t-2 7.5q0 9 16 45l12 27q6 36 29 83q7 24 81 204l18 44l11 26q27 68 73 169q5 15 5 19q0 13 -17 13q-11 13 -11 24t10 15l52 21q35 8 68 8q67 0 122 -29q89 -53 89 -120zM485 417.5
q57 49.5 54 96.5q0 19 -20 40t-41 27q-61 14 -82 14q-18 0 -28.5 -7.5t-14.5 -23.5q0 -3 -13 -29q-29 -63 -37 -86l-23 -47q-32 -64 -38.5 -80t-1.5 -21q41 3 116 34q72 33 129 82.5z" />
    <glyph glyph-name="S" unicode="S" horiz-adv-x="486" 
d="M214 -38l1 3q0 10 -17 11q-21 13 -37.5 34t-22.5 37q-7 16 -7 17q0 3 3.5 5t8.5 5q6 5 13 5q4 0 7.5 -4.5t9.5 -15.5q12 -21 41 -33.5t66 -12.5q45 0 84 18q26 11 38 21.5t12 23.5q0 12 -11 29q-3 8 -8.5 14.5t-15.5 15.5q-6 5 -23 22q-16 6 -33 16l-21 10
q-27 12 -62.5 41.5t-47.5 51.5q-14 13 -22 36t-8 50q0 36 15 66q12 27 53 75t63 63l26 25q1 4 3 4.5t3 0.5q3 2 21 9.5t38 26.5q68 33 109.5 47.5t68.5 14.5q38 -2 64.5 -23.5t31.5 -56.5q2 -6 2 -18q0 -36 -26 -77.5t-59 -60.5q-25 -11 -35 -11q-7 0 -9.5 5t-1.5 16
q0 9 6.5 20.5t29.5 37.5q41 59 41 88q0 17 -15 18q-11 3 -55.5 -5t-44.5 -13q0 -1 -0.5 -3.5t-3.5 -1.5q-4 1 -74 -41.5t-72 -47.5q-1 -5 -7.5 -10.5t-15.5 -9.5q-19 -11 -35 -32t-38 -60q-12 -17 -19.5 -37t-7.5 -36q0 -11 3 -19q5 -17 31 -41.5t65 -47.5
q51 -29 85.5 -56.5t43.5 -46.5q23 -32 23 -71q0 -14 -3 -26q-8 -17 -25 -33.5t-29 -15.5q-10 -3 -17 -7.5t-12 -6.5q-11 -7 -52.5 -11.5t-76.5 -2.5z" />
    <glyph glyph-name="T" unicode="T" horiz-adv-x="458" 
d="M643 571q0 -4 -2.5 -6.5t-5.5 -3.5t-4 -2q-22 -7 -36 -7q-10 0 -23 5q-10 9 -24 13t-58 7q-29 -3 -51 -3q-7 -37 -23 -66q-4 -19 -11 -34q-7 -20 -6 -23q-3 -4 -19 -50.5t-30 -90.5q-10 -31 -15 -45q-5 -10 -12.5 -31.5t-10.5 -30.5l-25 -69q-8 -15 -19.5 -47.5
t-18.5 -58.5l-10 -35q-5 -18 -8.5 -27t-5.5 -10t-10 0q-8 0 -17.5 12.5t-9.5 24.5q0 22 15.5 74t29.5 83q4 18 7.5 29t4.5 16q3 4 9.5 21.5t10.5 32.5q3 18 62 201l7 21q9 15 17 38q8 5 8 21q0 3 3.5 8t3.5 7q2 2 4.5 9.5t6.5 11.5v1l-16 -1l-49 -5l-22 -2q-58 -5 -67 -7
q-30 -2 -42.5 3t-8.5 20q3 12 12.5 18t29.5 9q9 2 35 6l27 5l34 4q58 9 123 12q27 1 45.5 2.5t24.5 2.5q14 -1 45.5 -5t45.5 -9q22 -5 32.5 -14t15.5 -26q1 -4 1 -9z" />
    <glyph glyph-name="U" unicode="U" horiz-adv-x="482" 
d="M147.5 4.5q-23.5 38.5 -23.5 108.5q0 62 20 162q15 73 51.5 174.5t74.5 168.5q22 38 34 50t24 10q16 -4 25 -15.5t9 -24.5q0 -21 -20 -34q-8 -9 -22 -35.5t-18 -33.5l-24 -45q-35 -100 -51.5 -154t-26.5 -114q-14 -67 -17.5 -98.5t-3.5 -49.5v-23q3 -6 8 -15.5t9 -14
t9 -5.5q10 -5 25 -5q27 0 56 17q4 8 11.5 12.5t9.5 5.5q2 -3 3 -3q3 0 5 7v1q0 5 9 14q10 4 33 31t42.5 56t19.5 35q0 5 5.5 11t7.5 8q7 7 35.5 61t52.5 104q15 49 41.5 138t31.5 114q2 13 6 22t5 12q7 2 21.5 -5.5t18.5 -9.5q5 -6 5 -17q0 -12 -9 -50q-5 -20 -13 -60
q-16 -63 -38 -119t-57 -135q-4 -9 -9 -19.5t-10 -23.5v-6q-12 -7 -19 -21q-3 -5 -7.5 -13.5t-9.5 -11.5q-3 -9 -5.5 -15t-3.5 -8q-1 -6 -9 -11t-10 -6q-4 -2 -6 -9t-4 -9q-36 -53 -80.5 -96.5t-83.5 -57.5q-20 -8 -35 -8q-13 0 -20 2q-49 18 -72.5 56.5z" />
    <glyph glyph-name="V" unicode="V" horiz-adv-x="490" 
d="M253 -52.5q-2 4.5 -4 16.5q0 10 -6 15.5t-23 9.5q-11 11 -16 25t-7.5 41.5t-6.5 100.5q2 28 2 37q2 43 5.5 79t11.5 93q-2 15 2 50q3 18 3 32q0 8 -1 11q5 16 9 50q3 30 9 51l3 21q4 28 4 36q-1 5 -1 14q0 36 19 45q6 3 19 3q9 0 14 -3q15 -9 13 -33q1 -4 1 -18
q0 -27 -4.5 -67.5t-12.5 -75.5q-14 -68 -19 -167l-6 -104q-4 -74 -4 -88q0 -16 1 -22q0 -9 4 -30.5t9 -21.5q8 1 16 16t18 39q2 4 3.5 9.5t4.5 10.5q33 64 50 111q17 40 38 75q22 40 32 64q12 30 51 103q5 8 25.5 39t43.5 75q30 49 46 66.5t31 17.5q4 1 9 1q3 0 5.5 -2
t4.5 -5t4 -5q8 -13 8 -23q0 -12 -10.5 -31.5t-35.5 -56.5q-28 -42 -65.5 -105t-53.5 -93q-3 -8 -8.5 -22t-12.5 -23q-9 -9 -26.5 -42t-33.5 -66l-73 -168q-8 -23 -14 -37q-9 -18 -9 -23q-9 -14 -24 -23.5t-27 -9.5q-4 0 -8 2q-5 1 -7 5.5z" />
    <glyph glyph-name="W" unicode="W" horiz-adv-x="720" 
d="M474.5 -47.5q-10.5 6.5 -14.5 16.5q-6 6 -13 18t-9 23q-4 48 -4 70q0 28 3 76q3 46 11.5 86.5t23.5 99.5q6 19 9 32.5t0 13.5q-5 -1 -18 -25.5t-26 -52.5q-6 -11 -11.5 -23.5t-11.5 -23.5q-28 -62 -103 -188q-9 -11 -25 -35q-31 -47 -51 -65q-25 -24 -50 -24
q-18 0 -30 12q-13 16 -13 31q0 4 2 14q-3 25 5.5 102.5t17.5 129.5q7 48 31 158l22 108q6 15 19 60l9 33q1 18 8 26.5t17 8.5q14 0 24 -13q16 -18 16 -43q0 -20 -9 -41q-45 -110 -72 -290q-10 -59 -18.5 -126.5t-4.5 -68.5q8 -2 22 12.5t25 38.5q68 113 159 290q2 3 44 82
l24 45q3 6 7.5 13.5t9.5 15.5q22 41 34.5 61t19.5 23q17 -1 28 -8.5t19 -25.5q1 -5 -1.5 -16.5t-6.5 -21.5q-2 -6 -9.5 -30t-12.5 -48q-19 -50 -28 -97q-7 -36 -15 -70q-17 -77 -25.5 -127t-9.5 -90q-1 -51 6 -69q3 -10 15 -10q9 0 15 7q29 38 48 67t41 69q61 114 145 313
q32 92 43.5 120t26.5 36q6 4 12 4q11 0 20 -8q4 -4 7.5 -13t2.5 -20q-10 -35 -46.5 -130.5t-56.5 -138.5q-4 -7 -16 -27q-2 -3 -8.5 -14.5t-6.5 -17.5q0 -10 -52.5 -104.5t-77.5 -126.5q-33 -42 -66.5 -65.5t-46.5 -23.5q-13 -1 -23.5 5.5z" />
    <glyph glyph-name="X" unicode="X" horiz-adv-x="524" 
d="M661 611q0 -36 -36 -88q-23 -23 -26 -39q-22 -26 -56.5 -65.5t-41.5 -44.5q-24 -21 -49 -44.5t-31 -31.5q-3 -4 -11 -13t-13 -11l-5 -8v0q11 -49 23 -81.5t33 -75.5q12 -25 26.5 -45t26.5 -27q3 -3 11 -3q9 0 10 3q25 6 27 -39q3 -10 -12 -18t-35 -8l-10 1q-20 2 -39 20
t-41 58q-47 66 -77 159q-22 -21 -24 -24q-29 -28 -113 -119.5t-89 -102.5q-7 -12 -21 -12q-5 0 -8 1q-4 -2 -6 -2q-5 0 -9 2q-1 1 -2.5 6t-3.5 15q-4 5 -4 13q0 7 3.5 15t4.5 11q7 15 15.5 24.5t39.5 37.5l35 33l29 27l21 21q1 3 8 11t14 17q22 17 93 88q-4 19 -10 59
q-5 33 -11 59.5t-8 28.5q-1 3 1 5t3 2q2 2 2 4t-2 5t-3 6q-2 6 -6 28.5t-7 51.5q-9 85 -11 97q-2 2 -2.5 5.5t-0.5 4.5q3 8 13 18q9 6 18 6q18 0 31.5 -20t13.5 -50q0 -26 6 -32q-2 -4 1.5 -44t6.5 -50q-4 -12 0 -17q1 -6 3 -20.5t1 -19.5t3 -20.5t6 -22.5l8 -28l16 18
l23 24q48 48 76 80q54 64 80 97.5t38 58.5q2 5 7.5 17t9.5 16t9 4q28 -1 28 -32z" />
    <glyph glyph-name="Y" unicode="Y" horiz-adv-x="504" 
d="M678 600q-1 -6 -10 -14.5t-12 -11.5q-22 -19 -70 -69t-76 -85q-40 -46 -73 -81.5t-48 -50.5q-1 -2 -20 -21q-10 -35 -18 -70l-20 -65q-5 -15 -14 -47.5t-15 -47.5q-3 -12 -6 -23.5t-6 -22.5q-6 -23 -10.5 -38t-8.5 -19.5t-12 -1.5q-4 1 -30 19q-9 10 -9 18q0 7 6 27l8 30
q1 24 9.5 57t20.5 54q0 15 10 46.5t21 58.5l17 48l-17 21q-22 33 -33 58.5t-16 61.5q-11 40 -11 84q0 14 2 78q1 43 10 60t10 20q6 6 10 6q11 0 19.5 -25t7.5 -59q6 -219 50 -247q8 -2 10 -2q11 0 23.5 11.5t49.5 51.5l22 24q16 17 85 96q40 47 64.5 74t38.5 35q3 5 8 8
t8.5 4t4.5 1q4 -1 6 -5.5t4.5 -13t6.5 -14.5q4 -9 3 -18z" />
    <glyph glyph-name="Z" unicode="Z" horiz-adv-x="522" 
d="M76.5 -28.5q-14.5 5.5 -14.5 28.5q0 12 5.5 24.5t14.5 21.5q48 52 100 103.5t154 142.5q54 47 81.5 73t67.5 68q83 87 93 124q2 5 2 14q0 18 -19.5 23t-71.5 9q-34 2 -49 2q-39 0 -71.5 -4t-80.5 -12l-4 -1q-7 0 -14.5 5t-7.5 9q4 6 4 9q0 7 -8 12q-2 6 -2 9q0 7 10 17
q7 4 36 7q23 3 31 4q32 5 98 5q27 0 55 -2l29 -3q59 -5 89 -13.5t41 -33.5q6 -15 6 -26q0 -14 -12 -43q-5 -16 -7 -20q-18 -34 -71 -96t-109 -113q-126 -118 -189 -171q-61 -53 -112 -101q-7 -9 -7 -14q0 -11 34 -11q35 0 65 7q3 1 18.5 4t39.5 4q40 2 59 4q25 1 62 3t54 2
q7 0 12 -3t14 -15q13 -4 13 -13t-14 -20q-5 0 -10.5 -1t-12.5 -2q-50 -9 -76 -8q-29 2 -128 -9q-48 -8 -116 -8q-26 0 -36 1q-31 2 -45.5 7.5z" />
    <glyph glyph-name="bracketleft" unicode="[" horiz-adv-x="330" 
d="M59 -103q0 10 9 24q5 3 9 11t4 15q0 18 28 118t36 112q0 6 8 24t23 41q31 101 81.5 225.5t74.5 161.5q2 8 5 19.5t3 15.5q0 20 10.5 28.5t38.5 8.5l39 4q32 3 53 7t55 15q12 2 29.5 9.5t19.5 7.5q10 2 13 2q9 0 19 -15q12 -15 12 -21q0 -5 -5 -8.5t-18 -9.5
q-27 -9 -73 -19.5t-78 -14.5q-18 -5 -32 -9.5t-17 -7.5q-9 -16 -27 -51t-18 -38q-5 -5 -29 -54.5t-27 -65.5l-10 -24q-27 -66 -31 -79q-8 -19 -15 -44q-8 -27 -15 -43q0 -6 -3 -17t-7 -18q-11 -18 -18 -45q-3 -5 -7.5 -13t-4.5 -11q0 -11 -5 -26q-2 -3 -3 -8t-1 -6
q-3 -5 -8 -21q-7 -27 -13 -41q-19 -57 -19 -76l-5 -28l30 6q108 15 140 15q19 4 28 4q6 0 11.5 -3.5t11.5 -10.5q1 -2 3.5 -8t3 -9t-1.5 -5q-6 -8 -111 -23h-37q0 -4 -9 -6.5t-24 -2.5q-11 -6 -33 -11l-21 -7q-22 -9 -31 -9q-8 0 -19 9q-22 9 -22 26z" />
    <glyph glyph-name="backslash" unicode="\" horiz-adv-x="330" 
d="M331 -102.5q-4 1.5 -5 4.5q-18 4 -14 18q-1 13 -24.5 105t-34.5 124q0 3 -1 8t0 9q0 1 -3.5 8.5t-1.5 13.5q-7 5 -5 30q-2 24 -9 24q-10 53 -32.5 181t-21.5 146q1 7 -2 20t-4 22q-2 50 8.5 80t31.5 30q5 0 13 -3q6 -6 6 -17q0 -9 -3 -27q-1 -25 31 -238q19 -129 19 -134
q6 -20 8 -36t0 -20v-4q0 -7 3 -8q6 -6 6 -15q-1 -4 10.5 -46.5t19.5 -57.5q0 -10 1.5 -22t1.5 -14t7 -23t10 -37q7 -20 17 -38q4 -9 7 -16.5t3 -13.5q0 -5 -1 -8q1 -12 -2 -20.5t-13 -14.5l-18 -12q-4 0 -8 1.5z" />
    <glyph glyph-name="bracketright" unicode="]" horiz-adv-x="330" 
d="M110 -111q-15 0 -23 2q-5 -1 -27 -1q-20 0 -30 2q-12 -1 -29 1.5t-19 2.5q-2 1 -6.5 4t-8.5 8l-14 10l12 5q7 9 57.5 18t62.5 6q2 0 12.5 -1.5t21.5 -0.5l36 3l10 27q5 27 5 41q6 4 9.5 12.5t2.5 14.5l14 44l6 20q1 13 12 44q12 40 14 52l12 36q9 26 13 43q1 7 4 16t4 13
q8 22 9 33q10 34 38 116q44 134 51 157q9 18 15 37.5t7 25.5l-68 -5q-104 -7 -119 -7q-10 0 -10 3q-2 2 -4 3t-4 1h-1q-4 0 -7.5 4.5t-4.5 10.5q-1 12 32.5 21t93.5 17q32 4 50 4q11 0 16 -1t6 -1q37 10 66 10q15 0 20 -4q4 0 10 -6t6 -15q8 -16 8 -18q0 -3 -6 -11
q-10 -14 -29.5 -56t-18.5 -48q0 -8 -7 -9q-1 0 -3 -1.5t-2 -5.5q1 -8 -3.5 -22.5t-8.5 -14.5q-1 0 -3 -1.5t-2 -5.5q0 -12 -10 -38q-9 -30 -19 -54.5t-11 -29.5q-1 -2 -3.5 -8t-4.5 -13q-4 -9 -8.5 -27.5t-5.5 -33.5q-8 -12 -15 -29t-10 -27t-4.5 -17.5t-1.5 -10.5
q0 -6 -10 -41.5t-17 -48.5q-1 -8 -5.5 -27.5t-12.5 -42.5q-12 -62 -16 -70q0 -2 -4.5 -7t-4.5 -8v-8q0 -9 -5 -13q-2 -4 -2.5 -9t-0.5 -7q3 0 2 -1.5t-1 -2.5q-4 0 -4 -20q0 -25 -5.5 -33t-23.5 -8q-6 0 -30 2q-37 4 -35 1.5t0 -1.5h-10z" />
    <glyph glyph-name="asciicircum" unicode="^" horiz-adv-x="446" 
d="M388 334.5q-8 17.5 -23 50.5q-8 16 -12 26q-14 22 -25 47q-12 24 -17.5 31t-14.5 4q-22 -8 -52.5 -44.5t-58.5 -99.5q-17 -51 -39 -51q-4 0 -12 4q-6 5 -6 15q0 15 15 57l17 35q14 30 26 44q20 35 63 70t72 32q17 -2 45 -58.5t62 -139.5l12 -28q3 -6 3 -12
q0 -12 -8.5 -21t-18.5 -9q-12 0 -15 14q-5 16 -13 33.5z" />
    <glyph glyph-name="underscore" unicode="_" horiz-adv-x="446" 
d="M82 -3q-14 0 -19.5 3t-9.5 11q-6 9 -6 14q0 6 11 9.5t39 6.5q30 7 113 10.5t139 3.5q26 0 35 -2.5t20 -12.5q12 -12 12 -23q0 -9 -7.5 -13t-20.5 -2l-63 -5q-33 -1 -97.5 -3t-110.5 -2q-20 0 -35 5z" />
    <glyph glyph-name="grave" unicode="`" horiz-adv-x="353" 
d="M334 435q-4 0 -7 5t-7 17q-2 3 -18 29q-18 29 -27.5 46.5t-9.5 30.5q0 8 3 12q20 18 29 18q8 0 13 -6q9 -5 22.5 -30.5t24 -53.5t10.5 -36q1 -5 -5.5 -14.5t-14.5 -11.5q-9 -6 -13 -6z" />
    <glyph glyph-name="a" unicode="a" horiz-adv-x="437" 
d="M97.5 48.5q-6.5 6.5 -6.5 8.5q0 11 -5 17q-2 2 -2 9q0 16 15.5 54.5t40.5 83.5q6 6 15.5 21t12.5 17q0 4 3 7.5t7 3.5v6q0 9 33 43.5t54 47.5q25 17 51 17q18 0 31 -10q5 -6 46 -43l37 -33l-18 -50q-9 -27 -9 -49q0 -38 22 -73q5 -11 20 -21t30 -12q22 -4 22 -22
q0 -20 -18 -24q-4 -1 -12 -1q-59 0 -102 83q-4 6 -10.5 22t-7.5 22q-6 -8 -15 -19t-17 -19q-109 -109 -172 -109q-20 0 -36 10q-3 6 -9.5 12.5zM153.5 89q10.5 2 26 10t31.5 21q86 74 124 129l22 36q-10 21 -21 30.5t-20 9.5q-21 0 -66 -52.5t-82 -123.5q-9 -17 -16 -34.5
l-9 -22.5q0 -5 10.5 -3z" />
    <glyph glyph-name="b" unicode="b" horiz-adv-x="435" 
d="M186.5 22q-4.5 3 -10.5 16q-8 8 -9.5 13t-0.5 10q12 0 14 4q0 3 3.5 4t7.5 0q27 -2 78 28t102 77q29 37 40.5 58t11.5 34q0 8 -3 15t-21 7q-31 0 -64 -22q-43 -27 -69 -49.5t-48 -52.5q-10 -13 -20 -32.5t-13 -25.5q0 -4 -11.5 -10t-19.5 -6q-5 2 -11.5 8t-7.5 14
q-2 2 -6.5 5t-6 6t-1.5 7q0 6 5.5 26.5t8.5 30.5q8 38 20.5 79t17.5 45q1 2 4.5 11t3.5 19q2 9 6.5 20.5t4.5 13.5q5 4 32 79q0 4 22 53q33 75 40 96q9 13 16 27q11 20 16 22q8 2 20.5 -3t19.5 -15q5 -7 5 -10q0 -5 -5.5 -18.5t-12.5 -27.5t-10 -21l-25 -52
q-27 -57 -44 -101.5t-36 -101.5l-18 -49l-5 -22l25 24q12 9 44 37q7 6 12.5 10.5t8.5 7.5q12 8 35 18t32 12q20 5 44 5q21 0 35 -10t27 -32q9 -18 9 -39q0 -31 -16 -58q-5 -4 -10 -10.5t-5 -10.5q-1 -6 -17 -27t-35 -42q-26 -27 -68.5 -54t-70.5 -37q-6 -1 -22.5 -3.5
t-23.5 -4.5q-20 2 -24.5 5z" />
    <glyph glyph-name="c" unicode="c" horiz-adv-x="355" 
d="M188 9q-37 0 -61 23t-24 64q-4 44 19.5 109t59.5 109q25 29 43 47t33 24q21 9 47 9q18 -4 35.5 -15t17.5 -22l5 -5q6 0 11 -14.5t5 -31.5q0 -14 -5 -24q-4 -19 -13.5 -33t-18.5 -14q-11 0 -11 -6q0 -4 -4 -4q-5 0 -12 6t-10 14q0 3 4 17t8 31q3 12 3 21q0 20 -15 20
q-8 0 -16 -4q-40 -22 -71 -70t-52 -132q-5 -22 -5 -35q0 -10 1.5 -16t3.5 -7q5 -2 21 -2q37 0 52 9q32 17 71 46q4 3 12 10.5t15 10.5q7 11 13 13.5t19 2.5q13 -4 21 -10.5t0 -10.5q-3 0 -4 -2t-1 -3q2 -5 -16 -25t-40 -37.5t-30 -17.5q-4 0 -7 -1t-3 -5t-30.5 -18.5
t-49.5 -18.5q-14 -2 -21 -2z" />
    <glyph glyph-name="d" unicode="d" horiz-adv-x="393" 
d="M328 3q-14 39 -14 82q0 12 1 17l2 21l-39 -31q-32 -28 -63.5 -42t-57.5 -14q-17 3 -32.5 14.5t-22.5 27.5q-4 8 -4 24q0 37 20 87.5t50 83.5q43 65 96 65q25 0 50 -15q25 -10 29 -10q6 0 9 5t6 18q11 46 21 77q22 66 38 106t39 88q10 21 17.5 27.5t16.5 5.5q22 0 34 -30
q3 -7 3 -14t-6 -19q-26 -45 -64 -147t-59 -177q-9 -33 -15.5 -95t-6.5 -103q0 -18 2 -26q5 -17 5 -30q0 -10 -5 -13.5t-16 -4.5q-25 -6 -34 22zM249 122q6 4 29 21t35 36t17 43q1 18 -3.5 29.5t-17.5 22.5q-10 7 -25 7q-27 0 -50 -22q-27 -24 -48 -62t-32 -88q-3 -19 20 -19
q12 0 19 2q23 5 56 30z" />
    <glyph glyph-name="e" unicode="e" horiz-adv-x="325" 
d="M216 13q-25 0 -47.5 12t-37.5 33q-13 16 -19 36t-6 49q0 10 2 40q3 37 24.5 77t53.5 71.5t63 43.5q16 10 29 10q7 0 14 -1t15 -2q22 -3 33.5 -8.5t19.5 -16.5q25 -25 25 -58q-4 -24 -31 -55t-65 -50q-18 -6 -41 -6q-31 0 -50 13q-9 3 -14 3q-9 0 -13.5 -12t-8.5 -44
q-1 -7 -1 -20q0 -51 34 -56q23 -5 33 -5q12 0 27 8l19 11q6 3 11 8l9 9q2 2 6 6.5t7.5 6t6.5 1.5q4 0 9 -4.5t8 -6.5q9 0 4 -12.5t-21.5 -29t-37.5 -29.5q-25 -22 -60 -22zM309.5 272q17.5 18 17.5 30t-9 20t-25 8q-12 0 -18 -2q-14 -4 -33 -21.5t-33 -35.5t-11 -21
q5 -9 39 -9q23 0 38 6q17 7 34.5 25z" />
    <glyph glyph-name="f" unicode="f" horiz-adv-x="291" 
d="M110 -104.5q-7 5.5 -22 22.5q-6 6 -8 11.5t-2 14.5l2 25q5 15 5 35q0 8 7 50.5t11 61.5l3 12q8 33 12 61q8 25 13.5 49.5t5.5 33.5q0 18 14 26q1 8 15 33q24 68 35.5 97.5t24.5 51.5q18 50 29 63q7 17 38 50t55 53q22 12 35.5 15.5t33.5 3.5q17 0 23.5 -3.5t21.5 -17.5
q13 -15 15.5 -20t2.5 -19q-4 -21 -20 -54t-24 -34q-3 -1 -8 -1q-15 0 -15 25q0 6 -3 12l-4 8q0 15 7 25q3 6 3 11t-3.5 6.5t-10.5 -0.5q-9 -5 -44.5 -35.5t-35.5 -36.5q-1 -2 -5.5 -10.5t-13.5 -19.5q-18 -25 -18 -31q0 -13 -6 -13q-1 -2 -4.5 -11.5t-9.5 -20.5
q-4 -9 -10 -20t-10 -15h1q-3 -8 -11 -29.5t-8 -24.5q0 -4 14 -4q31 0 71 11q13 4 19 4q7 0 20 -4q11 -7 18 -23t3 -22q-1 -4 -21.5 -11t-42.5 -11q-31 -7 -51 -10q-5 -1 -31.5 -6t-26.5 -9q-4 0 -7 -4t-3 -8q0 -14 -4 -21q-5 -15 -17.5 -65.5t-12.5 -62.5q-8 -10 -8 -36
q-6 -11 -6 -25q0 -6 -1 -10q0 -5 -2 -24t-2 -35l-3 -29q-1 -12 -3 -22t-7 -15q-6 -4 -13 1.5z" />
    <glyph glyph-name="g" unicode="g" horiz-adv-x="355" 
d="M392 279q0 -15 -12 -30q-3 -5 -11 -15.5t-14 -21.5t-9 -25q-4 -23 -24 -98l-11 -39l-16 -62q-45 -155 -90 -179q-13 -5 -25 -5q-22 0 -45.5 14.5t-40.5 39.5q-10 14 -19.5 44.5t-3.5 34.5q2 2 7 2q7 0 15 -4.5t10 -10.5q4 -11 17 -29t19 -19q16 -8 27 -8q9 0 17 6
q16 13 27.5 33.5t25.5 65.5l8 29q24 88 35 114q5 16 10 25l-18 -16q-12 -11 -25 -21t-27 -16q-7 -9 -35 -9q-20 0 -40 6q-21 11 -26 17t-14 28q-4 8 -4 25q0 43 20 92q19 39 60 83t71 53q12 6 22 6q11 0 23 -4q16 -2 25 -7t30 -23q24 -24 35 -53q6 -12 6 -23zM300 252.5
q7 26.5 5 52.5q-1 14 -4 19.5t-11 5.5q-19 0 -44 -18t-48 -47q-15 -20 -25 -48q-12 -34 -12 -63q0 -22 8 -25q31 1 56.5 18t50.5 56q17 23 24 49.5z" />
    <glyph glyph-name="h" unicode="h" horiz-adv-x="464" 
d="M130 54q-15 0 -23 7t-10.5 11t-2.5 10q0 4 7 37l9 33q10 41 18 68q4 25 15.5 53t13.5 34q8 29 31 90l30 81q35 95 42 116l16 44q0 16 16 16q14 0 23.5 -15.5t9.5 -35.5q0 -15 -6 -29q-14 -30 -30.5 -75.5t-21.5 -59.5q-34 -96 -49 -128q0 -4 -3 -14t-7 -18l-11 -22
q0 -3 -11 -42q-14 -43 -17 -63q5 9 21 27.5t30 30.5q55 47 68 56q12 7 20 13t11 8q0 5 11 5q4 0 4.5 1t0.5 5q0 7 23 12.5t41 5.5q12 0 19 -5t18 -22q17 -24 17 -52q0 -16 -6 -33q0 -8 -2.5 -24.5t-2.5 -28.5l-6 -32h16q7 0 13.5 -2t8.5 -3q9 -11 16 -11q9 0 9 -7
q0 -4 -4 -10t-11 -10q-26 -16 -44 -16q-17 0 -35 16q-22 22 -22 53q0 16 6 38l3 32q2 24 2 30q0 23 -11 23q-14 0 -53.5 -24.5t-81.5 -61t-67 -73.5q-15 -19 -25.5 -28.5t-19.5 -10.5h-6z" />
    <glyph glyph-name="i" unicode="i" horiz-adv-x="187" 
d="M196 462q-5 17 0 17q8 1 18.5 17.5t9.5 27.5q0 4 3 7.5t7 4.5q8 5 14 5q17 0 31 -24q6 -13 6 -23q0 -9 -5 -18.5t-18 -24.5q-17 -23 -32 -23q-10 0 -22 10q-7 7 -12 24zM97 72q0 14 5 24q0 5 2 12t2 9q-1 6 8 33q18 40 48 141q0 5 4 8.5t12 4.5q8 2 11 2q6 0 10.5 -4.5
t12.5 -16.5q6 -6 6 -18q0 -19 -13 -46q-13 -29 -17 -50q-12 -27 -19 -50q-2 -6 -6 -24t-11 -29q-6 -28 -11 -39t-11 -11q-7 0 -19 14q-14 14 -14 40z" />
    <glyph glyph-name="j" unicode="j" horiz-adv-x="204" 
d="M209 510q0 26 21 51q14 17 32 17q12 0 24 -9q11 -17 11 -28q0 -9 -11 -26q-18 -19 -30 -28t-21 -9q-10 0 -17 7q-9 11 -9 25zM6 -216q-36 0 -61 26q-11 17 -18 38.5t-7 37.5q0 20 11 20q7 0 13 -7t6 -18q0 -16 7.5 -27.5t19.5 -11.5q11 -4 29.5 6.5t29.5 27.5
q13 18 38 67.5t37 81.5q12 42 36 153l5 23q3 23 8.5 44t6.5 26q0 25 7 39q0 13 2.5 26t2.5 16q2 2 6 2q6 0 13.5 -3.5t12.5 -8.5q8 -8 10 -12.5t2 -13.5q0 -14 -4 -38l-3 -31q0 -12 -10 -61t-19 -85q-5 -19 -7 -25q-6 -21 -8 -33q-1 -8 -13 -41q-12 -29 -14 -41
q-3 -21 -24 -65q-8 -19 -28 -49.5t-33 -40.5q-21 -22 -54 -22z" />
    <glyph glyph-name="k" unicode="k" horiz-adv-x="365" 
d="M87 28.5q-13 19.5 -13 35.5l14 42l19 60q9 13 14.5 31.5t6.5 21.5q10 19 40 92l19 46q28 60 46 108l16 37l19 44q35 85 39 99q0 8 3.5 12t7.5 4q5 5 16 5q5 0 16 -15.5t11 -26.5q0 -17 -16 -61.5t-43 -98.5q-98 -211 -90 -219l17 8.5t27 16.5q9 5 17 10.5t14 9.5
q31 21 38 23q6 4 23 14q18 12 19 13q12 6 20 6q6 0 11 -4t12 -12q6 -7 6 -14t-8 -14.5t-27 -19.5q-13 -9 -27 -17t-27 -16q-72 -44 -74 -47q2 -4 9.5 -18t14.5 -24l15 -26q12 -17 12 -22q9 -25 24.5 -39t33.5 -14q9 0 21 5q15 6 24 6q14 0 19 -16q3 -6 3 -9q0 -4 -14 -18
q-26 -26 -53 -26q-9 0 -21 5q-15 -1 -37.5 20t-62.5 73q0 4 -11 26q-4 9 -9 16.5l-7 10.5q0 4 -4.5 10.5t-6.5 10.5q-11 3 -17.5 -2t-12 -14t-8.5 -13q-10 -26 -20 -63.5t-7 -48.5q0 -16 -5 -21.5t-21 -5.5q-12 4 -25 23.5z" />
    <glyph glyph-name="l" unicode="l" horiz-adv-x="169" 
d="M120 -1q-16 0 -25 16t-9 44q0 23 6 53q11 29 11 42q3 19 20.5 68.5t22.5 59.5q4 0 7 6.5t3 14.5q0 9 3.5 18.5t7.5 13.5q0 3 2.5 11t2.5 11q0 2 2.5 7.5t2.5 8.5q16 31 56 139.5t40 120.5q0 16 16 16q5 5 16 5l16 -16q7 -7 9 -14.5t2 -22.5t-4 -26t-20 -45
q-3 -7 -8 -16.5t-11 -23.5q-2 -5 -16 -36q-10 -20 -10 -23t-4 -12.5t-7 -19.5q-8 -16 -25.5 -56.5t-17.5 -44.5q0 -11 -5 -16q-3 0 -4 -4.5t-1 -6.5q0 -10 -16 -53l-9 -29q-19 -65 -26.5 -95t-7.5 -51q0 -25 -1.5 -32t-8.5 -11q-3 -1 -10 -1z" />
    <glyph glyph-name="m" unicode="m" horiz-adv-x="560" 
d="M524.5 66.5q-12.5 19.5 -12.5 63.5l1 46q0 12 -1.5 17t-5.5 5q-13 0 -55.5 -34t-85.5 -81q-5 -5 -13.5 -14.5t-15.5 -14t-13 -4.5q-9 0 -17 7l-11 9q-7 6 -7 14l2 9l23 66q22 51 26 64.5t-1 12.5q-9 -1 -25 -9.5t-20 -16.5q-2 0 -13 -10.5t-19 -15.5q-9 -13 -44 -47
l-24 -23q-15 -12 -42 -49q-14 -18 -16 -18q-31 0 -39 30q-4 7 -4 19q0 16 12 66q9 34 10 42l5 20q2 13 9 31t24 57q10 28 10 42q0 13 9 20.5t20 7.5q14 0 24 -11t10 -29q0 -17 -8 -35l-11 -27q-8 -16 -20.5 -51.5t-12.5 -39.5q1 -3 7 1.5t14 11.5q9 9 21 18q30 28 71.5 54
t63.5 33q13 0 19.5 -3.5t14.5 -12t12 -12.5q9 -9 9 -26q0 -5 -2 -13q-4 -14 -10.5 -34t-9.5 -29q7 6 25 21t33 28q50 39 79 39q21 0 36 -22q9 -9 11 -18.5t2 -25.5v-25q1 -7 1 -24q1 -8 2.5 -31t4.5 -26q5 -6 34 -11q18 -3 18 -16q0 -9 -13 -18q-13 -8 -32 -8q-18 0 -33 6
q-14 5 -26.5 24.5z" />
    <glyph glyph-name="n" unicode="n" 
d="M421 54.5q-13 8.5 -22 28.5q-9 32 -9 64q0 15 3 21q4 4 3.5 17.5t-0.5 19.5q-1 23 -14 23q-9 0 -20 -7q-56 -35 -94 -60t-73 -56q-14 -16 -21 -28t-10 -16.5t-8 -4.5q-6 -2 -8 -2q-5 0 -12 5.5t-9 7.5q-4 4 -13 13.5t-10 13.5q0 8 6.5 37t10.5 37q3 0 9 12.5t11 19.5
q3 15 26 69q14 24 19.5 40t7.5 40v2q0 4 3 6.5t6 2.5q7 5 13 5q13 0 26 -16q15 -19 15 -40q0 -26 -33 -82q-3 -7 -8.5 -20t-5.5 -18l56 38q8 9 43 32t49 26q24 11 30 11q12 0 32.5 -18t24.5 -30q0 -11 2 -16q5 -20 5 -47q0 -18 -2.5 -32.5t-6.5 -16.5q0 -1 1 -3t4 -2v-5
q-8 0 -2 -17t16 -26q10 -10 10 -20q0 -12 -18 -17q-20 0 -33 8.5z" />
    <glyph glyph-name="o" unicode="o" horiz-adv-x="353" 
d="M150 19q-7 4 -20 15q-33 35 -33 64q0 7 1 10q3 7 2.5 14t-0.5 9q-4 4 -4 5.5t2 3t3 3.5q6 0 4 11q-2 8 8 35.5t25 50.5q11 18 32.5 45t38.5 41q24 21 43 31t42 15q20 5 27 5t12.5 -3.5t14.5 -12.5q27 -12 37.5 -30.5t10.5 -57.5q0 -65 -53 -141q-23 -33 -43 -50.5
t-53 -37.5q-21 -15 -38.5 -21.5t-39.5 -7.5q-12 0 -19 4zM303.5 172q14.5 24 27.5 61q5 17 5 41q0 30 -8 34q-10 5 -20 5q-22 0 -46 -20q-29 -25 -52 -61.5t-47 -90.5q-10 -21 -10 -41q0 -15 7.5 -24t20.5 -9q33 0 84 54q24 27 38.5 51z" />
    <glyph glyph-name="p" unicode="p" horiz-adv-x="378" 
d="M53 -225q-8 0 -13 9q-5 7 -5 17q0 7 5 34q11 42 11 58q0 5 2 14.5t3 17.5q4 7 7.5 21.5t3.5 25.5q0 5 3.5 11.5t8.5 10.5q0 6 3 18.5t4 17.5q5 27 39 128t58 163q11 25 16 46t5 33q0 4 2.5 7.5t8.5 9.5q7 7 13 7q5 0 11 -4t12 -9q6 -9 9.5 -17t3.5 -17q0 -3 -2 -19
q0 -21 -9 -34.5t-7 -12.5q45 21 80 21q42 0 65.5 -27t23.5 -70q0 -18 -10.5 -43.5t-20.5 -34.5q-6 0 -16 -21q-13 -16 -43 -33.5t-42 -13.5q-1 0 -3 -1t-2 -5t-34 -15t-56 -11q-12 0 -18 1.5t-12 6.5q-7 -7 -7 -13q0 -11 -10 -40t-16 -29q-1 -1 -2.5 -4t2.5 -7q0 -3 -1 -14
t-5 -17q0 -9 -3 -24.5t-7 -23.5q0 -12 -3.5 -23.5t-7.5 -11.5q-6 -2 -6 -29q-1 -25 -10 -39t-21 -14zM242.5 125.5q45.5 15.5 63.5 30.5q21 18 34 38.5t13 41.5q0 16 -9 29q-7 11 -24 11q-20 0 -47.5 -14t-50.5 -37q-18 -18 -32 -51.5t-14 -52.5q0 -11 6 -11q15 0 60.5 15.5
z" />
    <glyph glyph-name="q" unicode="q" horiz-adv-x="377" 
d="M228 -203.5q-5 7.5 -9 26.5q-2 9 -2 32q0 46 13.5 112.5t36.5 131.5q4 7 5.5 15.5t0.5 13.5q-50 -24 -73 -32.5t-39 -8.5q-20 0 -39.5 23.5t-19.5 47.5q0 15 16 45.5t38 60.5q11 19 44.5 47.5t56.5 42.5q10 6 32 16q18 11 26 11q15 4 36 4q22 0 33 -4q12 -8 23 -26
t15 -38q0 -17 -4 -30t-23 -55q-14 -22 -25.5 -45.5t-11.5 -28.5q-5 -13 -43 -96q-1 -7 -8 -31q-17 -62 -29 -118q-8 -48 -8 -77q0 -32 8 -45q2 -8 -1.5 -12.5t-11.5 -4.5t-19 6q-13 9 -18 16.5zM183 146q26 0 52.5 16.5t58.5 46.5q25 23 46 63t16 52q-2 4 -8 4
q-12 0 -33.5 -10.5t-44.5 -28.5q-72 -55 -96 -111l-11 -29q10 -3 20 -3z" />
    <glyph glyph-name="r" unicode="r" horiz-adv-x="360" 
d="M108 46q-3 5 -3 15q0 9 1 15q3 34 15 79l5 20q3 25 35 105t52 109q8 5 17 5q13 0 22 -9q6 -4 6 -15q0 -10 -7.5 -29.5t-25.5 -57.5q-4 -8 -13.5 -30t-9.5 -26q0 -2 1 -2q2 0 4 1.5t4 2.5q11 19 53.5 52t58.5 41q7 4 18 8t15 6q16 8 38 8q14 0 24.5 -4.5t14.5 -13.5
q1 -7 5.5 -11t6.5 -5q3 0 4 -2.5t1 -3.5q0 -7 -8 -8.5t-29 -2.5q-11 -1 -23 -5t-24 -10q-56 -32 -83.5 -50t-55.5 -49q-11 -12 -29 -43q-7 -7 -14.5 -36.5t-7.5 -36.5q-1 -3 -4 -11.5t-9 -16.5q-12 -16 -20 -16q-9 0 -24 16q-8 6 -11 11z" />
    <glyph glyph-name="s" unicode="s" horiz-adv-x="341" 
d="M126 16.5q-17 13.5 -23 23.5v7t3 6.5t11 1.5q17 0 54 -4q22 0 50 5.5t31 12.5q3 0 3 1q0 2 -8 10q-2 0 -9 3.5t-9 3.5q0 4 -9 10.5t-20 11.5q-29 24 -41 35.5t-9 16.5v5q-7 0 -15.5 19.5t-8.5 36.5q0 18 15.5 50t35.5 52q28 26 72.5 55t70.5 37q17 7 34 7q16 0 27 -7
q13 -8 25.5 -23t16.5 -27q0 -22 -4.5 -42.5t-13.5 -20.5q-1 0 -3 -1t-2 -5t-4 -10.5t-11 -12.5q-22 -16 -36 -16q-11 0 -14 11q-2 2 -4 6t-5 4q-1 0 -3.5 3.5t-2.5 9.5q0 3 2.5 6.5t3.5 4.5q6 0 20 23.5t14 31.5q0 6 -1.5 7t-9.5 1q-78 -35 -97 -53q-3 -6 -4.5 -8t-5.5 -2
q0 9 -53 -68q-2 -2 -4.5 -12t-2.5 -17q-2 -8 -2 -9q0 -4 3.5 -8t9.5 -8.5t12 -9.5q52 -39 72.5 -58.5t24.5 -32.5q13 -20 13 -36q0 -12 -9 -21t-27 -17q-11 -5 -37 -8.5t-51 -3.5q-14 0 -30 2q-18 7 -35 20.5z" />
    <glyph glyph-name="t" unicode="t" horiz-adv-x="331" 
d="M146.5 28.5q-16.5 18.5 -21.5 34.5q0 2 -2 4.5t-3 3.5q-4 3 -4 33q0 24 2.5 50t6.5 42l18 53l14 40l27 58l-40 11q-7 1 -11.5 7t-4.5 11q0 8 8.5 19.5t13.5 11.5q3 -1 16 -1q30 0 45 3q10 4 14 16q4 8 9.5 20t10.5 22q3 6 9.5 18.5t16.5 28.5q2 3 9 14.5t17 19.5
q7 7 17 7t26 -13q2 -3 5.5 -8t3.5 -9t-8 -17q-6 -12 -11.5 -21.5t-9.5 -16.5q-12 -20 -17 -30q-10 -13 -10 -20t13 -7q14 0 47 6q14 2 19 2q35 0 38 -29q1 -6 1 -14q0 -14 -9.5 -17t-42.5 -3q-32 -5 -66 -5q-6 0 -13.5 -0.5t-15.5 -2.5t-11.5 -6t-7.5 -13q-3 -3 -14 -23
q-14 -29 -18 -35q-27 -80 -40 -164q-2 -16 -2 -20q0 -15 10 -21t34 -6q34 0 59 7q30 13 45 22q9 5 16.5 9.5t10.5 6.5q3 6 7 6q8 0 14 -16q0 -16 -7 -28t-35 -28q-58 -37 -116 -37q-16 0 -30 3q-16 3 -32.5 21.5z" />
    <glyph glyph-name="u" unicode="u" horiz-adv-x="370" 
d="M303 70q-2 6 -2 21v21q-6 -15 -22 -27q-23 -23 -46 -34q-35 -23 -57 -23q-20 0 -38 22q-13 11 -19.5 22t-6.5 27q0 11 3 24q2 37 10.5 71t32.5 87q32 63 46 84q5 2 13 2q10 0 16.5 -6t7.5 -16q3 -4 3 -11q0 -25 -30 -82q-39 -94 -39 -130q0 -21 12 -25q5 -3 11 -3
q25 0 60 34t67 109q14 34 17 70q-1 3 -1 9q0 18 18 29q4 6 11 9.5t9 -0.5l16 1q3 1 6 -5.5t6 -8.5q7 -6 7 -22q0 -33 -29 -101q-19 -40 -25.5 -61.5t-7.5 -41.5q0 -38 29 -63q10 -7 12 -15t1 -22q-2 -9 -11.5 -14.5t-20.5 -5.5q-13 0 -23 7q-24 23 -36 68z" />
    <glyph glyph-name="v" unicode="v" horiz-adv-x="331" 
d="M155.5 128q-16.5 59 -25.5 114q-4 21 -16 57q-4 16 -4 22q0 18 15 27q4 3 11.5 4.5t12.5 0.5q22 -8 40 -122q3 -29 9 -52t7 -27q3 -6 7 -12.5t9 -6.5q3 0 7 4q19 19 41 48q24 33 33 44q11 17 29 40q3 4 14 19t21 25.5t17 12.5q3 1 9 1q17 0 17 -14q0 -13 -18 -39
q-6 -8 -12.5 -21.5t-8.5 -15.5q-11 -22 -40.5 -62t-39.5 -50q-2 -2 -16.5 -14t-26.5 -29q-32 -30 -46 -30q-9 0 -18 9q-11 8 -27.5 67z" />
    <glyph glyph-name="w" unicode="w" horiz-adv-x="517" 
d="M141.5 78q-14.5 33 -14.5 77l1 18q0 36 5 60t6 30q2 5 4 17.5t8 35.5q8 35 16 43t19 8q7 0 13 -3.5t10 -9.5q6 -6 6 -29q0 -17 -3 -33t-8 -23q-3 -6 -9 -58q-4 -38 -6 -49q-1 -4 -1 -12q0 -23 14 -23q23 0 65 61q28 40 39.5 62.5t23.5 57.5q5 15 9.5 26t8.5 14q5 4 14 4
q10 0 24 -9q12 -12 12 -28q0 -17 -12 -41t-22 -66.5t-10 -66.5q0 -18 4.5 -22.5t14.5 -4.5q28 0 67 40q18 18 47.5 63.5t29.5 53.5q0 6 9 17q5 7 9.5 12t13.5 10l8 2q8 0 19 -11q4 -4 5 -12.5t1 -19.5q-5 -18 -17 -46.5t-19 -36.5q-19 -15 -32 -37q-24 -29 -37.5 -40.5
t-17.5 -15.5q-20 -20 -43.5 -31t-44.5 -11t-34 10q-31 16 -31 54q0 7 -2 13t-3 8q-15 0 -24 -16q-14 -25 -48 -50t-52 -25q-21 0 -35.5 33z" />
    <glyph glyph-name="x" unicode="x" horiz-adv-x="343" 
d="M370 9q-6 0 -14.5 3t-17.5 7q-21 9 -61 44t-40 47q0 3 -1 4t-4 1q-1 1 -3.5 4t-2.5 7t-3 7t-7 3q-5 -4 -21 -17.5t-33 -30.5q-32 -32 -44 -42.5t-19 -10.5q-12 0 -27.5 12.5t-15.5 24.5q5 7 25.5 28.5t43.5 41.5l64 63l-11 38q-18 39 -26 63q-6 8 -9.5 13.5t-3.5 9.5
t8 15q11 11 17 11q5 0 14 -6q8 0 25.5 -33.5t17.5 -46.5t9 -13q10 0 39 19q11 10 17.5 17t8.5 9q12 9 37.5 27t32.5 21q5 3 8 3q12 0 23 -13t11 -27q0 -12 -6 -19t-26 -18q-5 -4 -31 -23t-65 -52l-26 -21l16 -27q16 -32 26 -37q8 -11 39.5 -35t35.5 -24q3 0 9.5 -4t11.5 -6
q12 -12 12 -27q0 -16 -12 -16q-16 0 -21 6z" />
    <glyph glyph-name="y" unicode="y" horiz-adv-x="341" 
d="M408 336q0 -18 -24 -63q-8 -23 -17.5 -43t-14.5 -26l-23 -53q-15 -33 -37 -77q-27 -56 -38 -83l-13 -21q-50 -80 -77 -112q-55 -49 -85 -57q-13 -4 -31 -4q-33 0 -62.5 14.5t-33.5 33.5q-1 7 5 15t13 8q5 0 8 -4q8 -6 23.5 -11.5t33.5 -5.5q7 0 19 2q20 4 42 24t40 44
q34 50 73 125q-14 4 -27 19.5t-20.5 32.5t-5.5 25v11q-9 0 -14.5 34t-5.5 79q0 17 2 43q4 16 4.5 39.5t0.5 30.5v4q0 12 2.5 17t8.5 9q8 4 16 4q28 0 28 -74q0 -11 -2 -43q-1 -14 -1 -42q0 -52 9 -92t27 -55l6 14q11 29 17 37q14 29 16 37q2 7 11 23l13 27q2 6 13 38.5
t22 52.5q4 8 12 23.5t13 22.5t11 9q8 7 13 7q4 0 14 -6q16 -16 16 -33z" />
    <glyph glyph-name="z" unicode="z" horiz-adv-x="315" 
d="M74 21q-14 0 -22 3.5t-18 13.5q-8 6 -8 13q0 13 35 49q38 47 75 77q22 17 104 73q30 24 43.5 33.5t20.5 14.5q-49 5 -74 3q-22 0 -33.5 0.5t-18.5 2.5h-15q-10 0 -31.5 10.5t-22.5 19.5q2 1 7.5 4t8.5 7q3 2 8 5.5t8 3.5t5 -2q5 0 22 0.5t40 1.5q58 -1 85 -3.5t40 -8
t28 -18.5q13 -13 13 -27q0 -15 -14 -31q-1 -1 -6 -7t-8 -6l-48 -31q-10 -7 -30 -19q-26 -16 -30 -21q-9 -4 -17.5 -10t-13.5 -11q-5 -6 -15 -15.5t-21 -16.5q-12 -10 -29.5 -27t-22.5 -23q0 1 46.5 5.5t82.5 2.5l70 2q17 1 39 1q21 0 30 -4q9 -3 16.5 -14t4.5 -16
q-5 0 -32.5 -3t-60.5 -4q-26 -2 -123 -14q-15 -3 -52 -7q-45 -7 -66 -7z" />
    <glyph glyph-name="braceleft" unicode="{" horiz-adv-x="330" 
d="M167 -119q-2 1 -7 4t-9 9q-8 10 -9.5 19.5t-0.5 28.5v28q6 5 7 14.5t1 11.5q4 16 20 62.5t27 68.5q11 21 19 42.5t8 31.5q0 16 -13 26.5t-37 15.5q-23 0 -23 16q0 6 3 13q3 10 12.5 16.5t20.5 6.5q6 0 9 -1q23 0 53.5 33t44.5 77q12 32 18 62.5t10 79.5q4 57 19 89.5
t52 68.5q11 13 22 21t20.5 12.5t12.5 6.5q22 8 42 8q17 0 25 -5q7 -3 15.5 -20t4.5 -20q-4 0 -13.5 -2.5t-22.5 -2.5q-38 -9 -72 -39q-20 -25 -27 -37t-9 -29q-10 -26 -12.5 -39.5t-7.5 -59.5q-5 -51 -8.5 -68t-16.5 -49q-14 -38 -30 -64.5t-39 -46.5q-19 -12 -19 -16
q0 -3 8 -13q0 -2 5 -13.5t5 -19.5q4 -12 4 -19q0 -14 -7.5 -35t-25.5 -62q-19 -38 -19 -55q-7 -10 -19 -55q-4 -19 -6.5 -32.5t-3.5 -19.5q0 -14 25 -14q4 0 20 2q20 4 21 4q8 0 15 -10q8 -8 8 -13q0 -11 -28 -20q-25 -13 -52 -13q-21 0 -31 7q-9 14 -9 8z" />
    <glyph glyph-name="bar" unicode="|" horiz-adv-x="330" 
d="M140 -141q-16 0 -25 16t-9 44q0 23 6 53q11 29 11 42q4 19 41 134t42 124q4 0 7 6.5t3 14.5q0 9 3.5 18.5t7.5 13.5q0 3 2.5 11t2.5 11q0 2 2.5 7.5t2.5 8.5q17 32 81.5 200t64.5 180q0 16 16 16q5 5 16 5l16 -16q7 -7 9 -14.5t2 -22.5t-4 -26t-20 -45q-3 -7 -8 -16.5
t-11 -23.5l-28 -65q-48 -109 -48 -114q0 -3 -4 -12.5t-7 -19.5q-8 -16 -25.5 -56.5t-17.5 -44.5q0 -11 -5 -16q-3 0 -4 -4.5t-1 -6.5q0 -10 -16 -53l-14 -45q-4 -15 -24.5 -82.5t-32.5 -115.5t-12 -62q0 -26 -1.5 -32.5t-8.5 -10.5q-3 -1 -10 -1z" />
    <glyph glyph-name="braceright" unicode="}" horiz-adv-x="330" 
d="M93.5 -104q-15.5 7 -15.5 17q0 4 2.5 7t3.5 4q4 -3 5.5 -3.5t1.5 3.5q3 1 12.5 4t24.5 9q29 5 43 12t21 20t12 40q8 32 8 37q0 2 1 19.5t1 44.5q0 24 -1 37q-2 33 -2 69q0 18 2 26.5t7 18.5q10 9 10 22q0 7 -1 11q-7 15 -7 31q0 19 11 28l14 15q20 21 29.5 33t20.5 34
q25 40 44 81t27 71v10q2 6 2 11q0 17 -16 41q-8 16 -20 23.5t-38 15.5q-17 3 -17 16q0 8 8 18q6 11 23 11q18 0 27 -9q8 -8 15 -8q5 0 25.5 -20.5t28.5 -34.5q3 -3 6.5 -16t5.5 -26q4 -20 4 -24q0 -10 -12 -46q-14 -44 -25.5 -75t-16.5 -37q-3 -2 -7 -4t-4 -5
q0 -7 -18.5 -37.5t-31.5 -43.5q-4 -4 -7 -10.5t-4 -8.5l-7 -4q-7 -5 -7 -12q0 -4 7 -23q1 -8 6 -17t8 -14q0 -6 -1 -10t-4 -4q-13 -7 -18 -12.5t-7.5 -19t-2.5 -42.5l1 -43q1 -32 -1 -67.5t-6 -44.5q-16 -70 -23 -70q-1 0 -2.5 -1t-0.5 -3q0 -22 -32 -37t-73 -15
q-24 0 -39.5 7z" />
    <glyph glyph-name="asciitilde" unicode="~" horiz-adv-x="446" 
d="M318 208q-18 7 -39 21q-8 5 -24 17.5t-33 18.5q-6 2 -10 2q-9 0 -15.5 -4t-18.5 -14q-18 -18 -31 -19q-2 -7 -9.5 -14t-10.5 -2q-11 3 -18 10t-6 13q1 12 26.5 34.5t70.5 39.5q4 1 12 1q19 0 38 -7.5t33 -21.5q20 -18 34.5 -27t28.5 -9q5 0 17 4q8 1 23.5 6t23.5 9l26 7
q5 8 12 9q1 3 14 4l9 2q13 0 9 -20q0 -10 -16 -29l-20 -9q-13 -3 -30.5 -11.5t-24.5 -11.5q-18 -6 -32 -6q-21 0 -39 7z" />
    <glyph glyph-name="uni0400" unicode="&#x400;" horiz-adv-x="548" 
d="M209 -13q-19 10 -43 29l-20 14q-18 18 -27.5 37.5t-15.5 50.5q-2 12 -2 21q0 29 10 68.5t22 64.5q22 53 97 170l5.5 5.5t1 2l-0.5 0.5q0 7 29 62q17 18 17 31q0 7 -3 11q-4 5 18.5 24.5t56.5 38.5q27 21 53 21q8 0 13.5 -2.5t6.5 -7.5q0 -6 40 4q18 4 26 5q4 5 20.5 8.5
t46.5 7.5q16 -1 33 0t22 2q8 3 17.5 -2.5t16.5 -21.5q3 -7 3 -13q0 -11 -13.5 -17.5t-46.5 -10.5t-41 -5q-55 -6 -116 -19q-39 -8 -56.5 -20t-39.5 -46q-7 -5 -18 -25.5t-22 -42.5q-3 -4 -7 -10t-10 -13q-29 -39 -40 -56.5t-8 -21.5q3 -1 11.5 -3t14.5 -3q9 5 25 7t23 4
q159 41 180 44q9 6 17 6q18 0 32 -24q3 -6 3 -11q0 -9 -14 -17t-53 -19.5t-94 -26.5l-32 -9q-65 -19 -101 -19q-31 0 -30 17q-10 5 -22.5 -22t-21.5 -66.5t-9 -66.5q0 -14 3 -22q9 -25 22.5 -38t45.5 -22q7 -1 17.5 -2t24.5 -1q20 0 40 8q51 9 87.5 20t44.5 16q6 3 10 4t8 1
l-1 -2v-0.5t1 -0.5q3 0 18 17q17 14 46.5 27t30.5 6q2 -6 2 -10q0 -19 -23.5 -45.5t-63.5 -49.5q-49 -26 -109.5 -38.5t-116.5 -13.5q-22 1 -41 11zM534 705q-4 0 -7 5t-7 17q-2 3 -18 29q-18 29 -27.5 46.5t-9.5 30.5q0 8 3 12q20 18 29 18q8 0 13 -6q9 -5 22.5 -30.5
t24 -53.5t10.5 -36q1 -5 -5.5 -14.5t-14.5 -11.5q-9 -6 -13 -6z" />
    <glyph glyph-name="uni0401" unicode="&#x401;" horiz-adv-x="548" 
d="M209 -13q-19 10 -43 29l-20 14q-18 18 -27.5 37.5t-15.5 50.5q-2 12 -2 21q0 29 10 68.5t22 64.5q22 53 97 170l5.5 5.5t1 2l-0.5 0.5q0 7 29 62q17 18 17 31q0 7 -3 11q-4 5 18.5 24.5t56.5 38.5q27 21 53 21q8 0 13.5 -2.5t6.5 -7.5q0 -6 40 4q18 4 26 5q4 5 20.5 8.5
t46.5 7.5q16 -1 33 0t22 2q8 3 17.5 -2.5t16.5 -21.5q3 -7 3 -13q0 -11 -13.5 -17.5t-46.5 -10.5t-41 -5q-55 -6 -116 -19q-39 -8 -56.5 -20t-39.5 -46q-7 -5 -18 -25.5t-22 -42.5q-3 -4 -7 -10t-10 -13q-29 -39 -40 -56.5t-8 -21.5q3 -1 11.5 -3t14.5 -3q9 5 25 7t23 4
q159 41 180 44q9 6 17 6q18 0 32 -24q3 -6 3 -11q0 -9 -14 -17t-53 -19.5t-94 -26.5l-32 -9q-65 -19 -101 -19q-31 0 -30 17q-10 5 -22.5 -22t-21.5 -66.5t-9 -66.5q0 -14 3 -22q9 -25 22.5 -38t45.5 -22q7 -1 17.5 -2t24.5 -1q20 0 40 8q51 9 87.5 20t44.5 16q6 3 10 4t8 1
l-1 -2v-0.5t1 -0.5q3 0 18 17q17 14 46.5 27t30.5 6q2 -6 2 -10q0 -19 -23.5 -45.5t-63.5 -49.5q-49 -26 -109.5 -38.5t-116.5 -13.5q-22 1 -41 11zM429 767q-5 10 -3 15q9 31 20 40l6.5 6.5t7.5 5.5q6 5 14 5q17 0 25 -24q7 -12 7 -19t-4 -14t-13 -19q-17 -23 -32 -23
q-9 0 -16 10q-7 7 -12 17zM558 767q-5 10 -3 15q9 31 20 40q2 2 7 6.5t8 5.5q6 5 14 5q16 0 24 -24q7 -12 7 -19t-4 -14t-13 -19q-17 -23 -31 -23q-10 0 -17 10q-7 7 -12 17z" />
    <glyph glyph-name="uni0402" unicode="&#x402;" horiz-adv-x="612" 
d="M298 -230q-20 7 -23 25q1 4 8 6q14 3 25.5 10.5t22 16t14.5 11.5q23 19 51 52l14 17q18 22 45 63.5t28 48.5q19 36 29 59t29 75l24 86q18 54 18 102q0 18 -1 28q-8 9 -17 13t-25 4q-11 0 -22.5 -2t-15.5 -3q-6 -2 -20 -4q-30 -4 -63 -21.5t-57 -43.5q-9 -10 -17 -34
t-13 -48q-1 -5 -3 -10.5t-3 -8.5q-1 -4 -3 -10t-3 -13q-3 -18 -18.5 -85t-22.5 -86q-5 -12 -15 -18.5t-21 -4.5q-4 0 -13.5 6t-13.5 10l29 105l6 28q2 8 7.5 32t12.5 43q2 8 7 29.5t11 35.5q7 20 11 35q3 12 8 28q8 27 34 103l20 55q8 21 9 26q2 7 5.5 14t12.5 28
q10 29 11 32q0 1 -1 4.5t-4 5.5t-9 2l-9 -1l-60 -16q-34 -8 -73 -25q-7 -6 -17 -6q-9 0 -17 5.5t-12 13.5q-4 9 -4 20v13l24 14q13 5 28 9t23 6q28 8 69 16q30 7 43 11q7 3 23 5q11 1 17.5 3t10.5 7q5 -3 7 -3q3 0 6.5 2t4.5 1q4 -2 11 -2q3 0 18 3h4h9q10 0 14 2q7 4 37 7
t55 3h66q10 0 17.5 -2t14.5 -5t15 -6q10 -4 17.5 -10.5t17.5 -20.5v-4q0 -8 -1.5 -13.5t-3.5 -6.5q-9 -5 -22 -10q-6 4 -12 10q-15 10 -29.5 10t-18.5 2t-14 2q-9 0 -13 -2q-8 -3 -26 -3q-9 0 -36 -0.5t-37 -4.5q-4 -2 -9 -2l-9 1q-18 0 -35 -12l-12 -26q-23 -48 -47.5 -103
t-36.5 -94l9 5q26 18 77 28q14 0 36 2t25 5q8 -2 14.5 -3.5t11.5 -2.5q19 -2 32 -10q5 -3 23 -15t20 -21q8 -20 8 -51q0 -23 -4 -69q-4 -7 -4.5 -17t-1.5 -15q-3 -22 -13 -53q-7 -22 -21.5 -60.5t-25.5 -61.5l-9 -19q-18 -40 -31 -66t-33 -55q-32 -45 -82.5 -96.5
t-74.5 -58.5q-5 -1 -10 -3.5t-8 -2.5z" />
    <glyph glyph-name="uni0403" unicode="&#x403;" horiz-adv-x="466" 
d="M656.5 625q6.5 -7 10.5 -17v-19q-5 -3 -17.5 -12t-20.5 -11q-9 -1 -23 -9q-13 -7 -23 -7q-6 0 -14 3q-4 3 -9.5 3.5t-8.5 0.5q-7 15 -15 20q-10 -4 -31 -4t-31 -5q-31 -2 -58 -10q-16 -4 -24 -5q-22 -4 -36 -10q-9 -18 -27 -55q-26 -54 -43 -103l-53 -143
q-6 -11 -22.5 -62t-18.5 -65q-3 -18 -9 -39t-8 -30q-2 -6 -6.5 -23t-5.5 -34q0 -3 -2.5 -7t-3.5 -7q-7 3 -33 3q-11 5 -21 19q6 40 11 57q9 29 15 62q3 15 8 37l23 47q6 28 17 58t13 37q15 44 30 78q2 6 17 45q4 11 13.5 34.5t15.5 36.5t7 19q-13 -1 -27 4t-17 12l-6 36
q9 7 41 12l21 8q11 4 35 10q139 32 154 32q5 0 17 0.5t22 4.5q1 1 23.5 1t32.5 4q6 2 20.5 2.5t21.5 3.5q2 2 9 2l17 -1q13 -7 19.5 -14zM223 560zM466.5 733.5q-3.5 13.5 -2.5 19.5q2 9 43 53t55 49q5 3 9 3q14 0 32 -31q4 -9 -9.5 -23.5t-41.5 -37.5q-34 -28 -42 -39
q-5 -9 -10 -14.5t-9 -5.5q-3 0 -14 7q-7 6 -10.5 19.5z" />
    <glyph glyph-name="uni0404" unicode="&#x404;" horiz-adv-x="482" 
d="M239 -51q-28 0 -60 14t-57 36q-9 15 -23 50.5t-11 40.5t4 11.5t0 11.5q-2 6 -2 12q0 31 25 102.5t66 162.5q24 53 69.5 115t93 109.5t76.5 59.5q17 7 27 7q34 0 64 -17.5t49 -43.5q10 -19 16 -47t6 -54q0 -23 -6 -40q-2 -5 -6 -14t-8.5 -12t-13.5 -4q-4 -2 -12.5 1
t-19.5 10q-4 4 -9.5 8t-7.5 5q0 3 1.5 13.5t5.5 20.5q9 26 9 51t-8.5 43t-24.5 22q-23 1 -60 -25t-71 -69q-102 -125 -144 -232q-22 -60 -35.5 -114t-16.5 -85q3 -12 3 -21t-4 -9q2 -12 11.5 -30t19.5 -28q7 -7 22 -7l8 1q17 -3 57 6.5t50 17.5q3 1 13 4t17 3q8 4 26 12.5
t29 16.5q26 12 50 18t32 4q-1 -1 -3.5 -5.5t-5.5 -14.5q-7 -10 -32 -31.5t-29 -22.5q-15 -2 -41 -19q-65 -40 -116 -41q-11 -3 -23 -3zM208 286q-14 0 -19.5 2.5t-9.5 9.5q-5 10 -5 13q0 7 10 10.5t36 6.5q38 6 64.5 8.5t61.5 2.5q24 0 32.5 -2t19.5 -10q10 -11 10 -22
q0 -19 -26 -16q-30 -3 -60 -3l-22 -1q-48 -3 -60 -3q-20 0 -32 4z" />
    <glyph glyph-name="uni0405" unicode="&#x405;" horiz-adv-x="486" 
d="M214 -38l1 3q0 10 -17 11q-21 13 -37.5 34t-22.5 37q-7 16 -7 17q0 3 3.5 5t8.5 5q6 5 13 5q4 0 7.5 -4.5t9.5 -15.5q12 -21 41 -33.5t66 -12.5q45 0 84 18q26 11 38 21.5t12 23.5q0 12 -11 29q-3 8 -8.5 14.5t-15.5 15.5q-6 5 -23 22q-16 6 -33 16l-21 10
q-27 12 -62.5 41.5t-47.5 51.5q-14 13 -22 36t-8 50q0 36 15 66q12 27 53 75t63 63l26 25q1 4 3 4.5t3 0.5q3 2 21 9.5t38 26.5q68 33 109.5 47.5t68.5 14.5q38 -2 64.5 -23.5t31.5 -56.5q2 -6 2 -18q0 -36 -26 -77.5t-59 -60.5q-25 -11 -35 -11q-7 0 -9.5 5t-1.5 16
q0 9 6.5 20.5t29.5 37.5q41 59 41 88q0 17 -15 18q-11 3 -55.5 -5t-44.5 -13q0 -1 -0.5 -3.5t-3.5 -1.5q-4 1 -74 -41.5t-72 -47.5q-1 -5 -7.5 -10.5t-15.5 -9.5q-19 -11 -35 -32t-38 -60q-12 -17 -19.5 -37t-7.5 -36q0 -11 3 -19q5 -17 31 -41.5t65 -47.5
q51 -29 85.5 -56.5t43.5 -46.5q23 -32 23 -71q0 -14 -3 -26q-8 -17 -25 -33.5t-29 -15.5q-10 -3 -17 -7.5t-12 -6.5q-11 -7 -52.5 -11.5t-76.5 -2.5z" />
    <glyph glyph-name="uni0406" unicode="&#x406;" horiz-adv-x="400" 
d="M101 -16l-9 -1q-19 0 -33 9t-11 20q2 26 83 27l53 1l10 20q8 23 23 74q5 19 21 64q31 96 33 104q5 12 16 48t17 59q47 145 38 147q-10 1 -54.5 -3.5t-49.5 -7.5q-3 -4 -10 -4q-6 0 -13 4.5t-9 10.5q-1 4 -1 11t6 11q11 9 48.5 20.5t72.5 15.5q17 2 34.5 7.5t26.5 13.5
q21 7 35 6q7 -5 34 -5q23 0 35 1q36 4 61 4q19 0 27.5 -4t13.5 -13q4 -16 4 -21q0 -19 -22 -18q-17 -4 -82 -6q-71 -6 -76 -14q-5 -5 -7.5 -9t-5.5 -8q1 -4 -4.5 -25.5t-13.5 -43.5l-18 -53q-28 -87 -36 -107q-7 -17 -10 -35q-17 -59 -28 -93.5t-17 -55.5q-19 -56 -29 -94
l57 5q59 6 77 6q14 0 19.5 -3t8.5 -12q12 -15 12 -25q0 -12 -19 -17t-59 -4q-46 -2 -76.5 -3.5t-41 -4.5t-12.5 -10q0 -8 -9 -8q-10 0 -19 4q-13 18 -91 15z" />
    <glyph glyph-name="uni0407" unicode="&#x407;" horiz-adv-x="400" 
d="M101 -16l-9 -1q-19 0 -33 9t-11 20q2 26 83 27l53 1l10 20q8 23 23 74q5 19 21 64q31 96 33 104q5 12 16 48t17 59q47 145 38 147q-10 1 -54.5 -3.5t-49.5 -7.5q-3 -4 -10 -4q-6 0 -13 4.5t-9 10.5q-1 4 -1 11t6 11q11 9 48.5 20.5t72.5 15.5q17 2 34.5 7.5t26.5 13.5
q21 7 35 6q7 -5 34 -5q23 0 35 1q36 4 61 4q19 0 27.5 -4t13.5 -13q4 -16 4 -21q0 -19 -22 -18q-17 -4 -82 -6q-71 -6 -76 -14q-5 -5 -7.5 -9t-5.5 -8q1 -4 -4.5 -25.5t-13.5 -43.5l-18 -53q-28 -87 -36 -107q-7 -17 -10 -35q-17 -59 -28 -93.5t-17 -55.5q-19 -56 -29 -94
l57 5q59 6 77 6q14 0 19.5 -3t8.5 -12q12 -15 12 -25q0 -12 -19 -17t-59 -4q-46 -2 -76.5 -3.5t-41 -4.5t-12.5 -10q0 -8 -9 -8q-10 0 -19 4q-13 18 -91 15zM339 767q-5 10 -3 15q9 31 20 40l6.5 6.5t7.5 5.5q6 5 14 5q17 0 25 -24q7 -12 7 -19t-4 -14t-13 -19
q-17 -23 -32 -23q-9 0 -16 10q-7 7 -12 17zM468 767q-5 10 -3 15q9 31 20 40q2 2 7 6.5t8 5.5q6 5 14 5q16 0 24 -24q7 -12 7 -19t-4 -14t-13 -19q-17 -23 -31 -23q-10 0 -17 10q-7 7 -12 17z" />
    <glyph glyph-name="uni0408" unicode="&#x408;" horiz-adv-x="306" 
d="M57 -188q-23 0 -46 10.5t-40 29.5q-10 10 -10 21q0 6 3 15q5 18 13 18q4 0 11.5 -5.5t13.5 -13.5q20 -17 38 -17q36 0 76 62l26 58q56 123 63 144q0 1 1 4t4 7q1 4 5.5 17t7.5 27l42 119q4 20 11.5 43.5t13.5 39.5q4 8 30 86q12 38 21 65q4 12 15 48t9 39l-56 -10
q-11 -5 -27 -5q-10 0 -16.5 2t-5.5 5v5q-5 -4 -13.5 5.5t-7.5 17.5q0 8 19.5 14.5t51.5 10.5l72 10q5 4 25 -3.5t28 -15.5q8 -11 8 -22q0 -14 -8.5 -39.5t-38.5 -106.5l-33 -93q-24 -73 -37 -103q-4 -13 -11 -32q-17 -49 -25 -78q-12 -28 -26 -76q0 -8 -4 -18t-9 -15
l-24 -59l-9 -24q-2 -6 -10.5 -27t-15.5 -31q-3 -8 -11 -21t-8 -16q0 -1 -1 -3.5t-4 -2.5l-3.5 -3.5t-2.5 -6.5q-5 -12 -31 -37t-42 -32q-18 -7 -32 -7z" />
    <glyph glyph-name="uni0409" unicode="&#x409;" horiz-adv-x="859" 
d="M868 330q10 -19 15.5 -33.5t5.5 -29.5q0 -9 -1 -13q-2 -7 -4 -25q-3 -21 -6.5 -34t-10.5 -26q-6 -21 -18 -38.5t-32 -41.5l-15 -18l-36 -37q-40 -28 -59.5 -38t-35 -12t-58.5 -4q-33 -3 -59 9.5t-46.5 28t-26.5 20.5q-2 10 -2 18q0 22 8.5 46.5t17.5 33.5q0 3 18 46
q45 106 38 102q7 18 12.5 34t7.5 22q4 6 12 42.5t7 39.5q7 11 9 48.5t2 41.5q1 5 1 15q0 26 -10.5 48t-32.5 34q-2 1 -18 8.5t-14 7.5q-8 -1 -22 2.5t-21 3.5q-4 0 -12 -2q-2 -5 -4.5 -18t-5.5 -22q-2 -8 -21.5 -60.5t-28.5 -75.5q-46 -128 -60 -144q-3 -4 -4.5 -10t-2.5 -9
q-18 -41 -67 -118l-11 -18q-8 -17 -24.5 -38.5t-49.5 -62.5q-36 -36 -42 -43q-28 -32 -62 -32q-7 0 -21 4q-4 6 -9.5 11.5t-7.5 11.5t-2 18q5 2 13 8t16 7q8 3 29 24q14 16 20 19q6 10 16.5 20t14.5 14q17 18 34 41.5t31 45.5l14 21l30 39q0 12 5.5 17t6.5 9q14 42 38 79
q2 3 2.5 12t4.5 12q5 4 7.5 17.5t8.5 21.5q-3 -3 18 45l9 20l33 99q5 16 10 29q-7 2 -29.5 -2.5t-34.5 -10.5q-3 -2 -10 -2q-13 0 -26 14t-19 32q7 14 21 18q16 6 35 9q20 5 26 7q7 2 20 2h21l13 15h33l16 -14q9 -1 37 -5t36 -10q12 -8 34 -20q35 -19 51.5 -36.5t25.5 -56.5
q6 -22 6 -62q0 -32 -4 -46q-2 -6 -2.5 -19.5t-3.5 -20.5q-10 -32 -22 -80q-14 -58 -29 -102q-13 -35 -41 -103q-18 -44 -24 -68q13 -10 30 -17t30 -7q6 0 10 2q9 4 22 4q2 0 10 1t15 5q45 26 72 53t60 79q16 27 21 47t5 46v33q-26 56 -86 83q-10 4 -16 4q-3 0 -9 -2
q-2 -1 -7 -1q-14 0 -21 21q11 33 32 33q9 0 15 -5q18 -1 47 -15t32 -17q2 -7 12 -13.5t12 -10.5t9 -9.5t8 -8.5q2 -11 15 -37z" />
    <glyph glyph-name="uni040A" unicode="&#x40a;" horiz-adv-x="729" 
d="M780 197q0 -33 -9.5 -65.5t-26.5 -58.5q-28 -41 -78 -76q-30 -21 -45 -27.5t-38 -10.5q-42 -9 -59 -14l-36 -4q-7 -2 -19 0.5t-21 2.5q-18 -1 -41 4l-24 3q-27 1 -30 33q3 4 8 11.5t10 12t13 5.5q5 -9 13.5 -12t20.5 -4q7 -1 23 -1q49 0 109 15q39 10 77.5 34.5
t50.5 50.5q21 32 27.5 46t10.5 40q3 14 3 27q0 38 -17.5 70t-48.5 45q-41 16 -53.5 19.5t-33.5 3.5q-16 -32 -39 -103q-15 -44 -24 -80l-12 -40q-6 -23 -11 -51q-2 -18 -5 -31t-10 -18t-21 -5q-6 0 -15 3.5t-13 3.5q-8 12 -8 19q0 6 4 11q4 38 11.5 69t8.5 35q11 42 31 99
q9 25 19 56q2 9 8 21t9 19q-10 4 -29 4q-22 0 -37 -5q-7 0 -26.5 -0.5t-29.5 -5.5q-26 1 -45 -7t-35 -19t-21 -14q-9 1 -15 4.5t-11.5 9t-9.5 8.5q-2 -1 -4 -1.5t-2 -1.5l-51 -170l-3 -22q-6 -38 -7 -43q-6 -24 -9 -45q-3 -18 -7.5 -36.5t-11.5 -32.5q-4 -9 -14 -13t-19 -1
q-17 4 -24.5 8t-4.5 18q8 21 20 77q2 7 3.5 16.5t2.5 14.5q1 3 3.5 20t9.5 32q0 14 8 42q6 26 6 28q1 8 7 22q7 15 8 27q7 25 16.5 50t9.5 26q30 90 60 170q21 53 48.5 111t45.5 78q4 1 12 1q31 0 38 -33q-1 -13 -6.5 -24.5t-15.5 -29.5q-15 -25 -21 -42q3 8 -19 -40
t-32 -73l-12 -32l-17 -46h3q3 0 6.5 2t5.5 3q-7 0 18 7.5t55 14t41 5.5q5 0 20.5 2.5t12.5 0.5q3 2 10 2q4 0 10.5 -1t12.5 0q6 2 9 2q5 0 11.5 -2t9.5 -3q4 -1 12 -1l26 1l41 108l21 54q27 63 36 99q3 10 15 16.5t22 2.5q32 -8 32 -32q0 -8 -3 -17q-10 -28 -45.5 -114.5
t-52.5 -126.5q30 -7 34 -9q48 -16 78.5 -41.5t55.5 -65.5q25 -38 25 -95z" />
    <glyph glyph-name="uni040B" unicode="&#x40b;" horiz-adv-x="685" 
d="M729 668q0 -7 -2 -10t-20 -3l-70 1q-56 0 -66 -5l-44 -4l-44 -87q-1 -4 -7.5 -20t-11.5 -27q-26 -54 -30 -74q-1 -5 -4.5 -11t-5.5 -9l-1 -6q0 -3 2.5 -5.5t3.5 -4.5q18 14 27 20q38 29 66 46.5t64 28.5q11 4 25 4q24 0 46 -10t30 -24q16 -7 23 -24q6 -15 6 -31
q0 -18 -6 -41t-8 -31q-7 -23 -21 -60l-9 -24q2 8 -33 -97q-13 -37 -33 -98q2 7 -10.5 -30.5t-16.5 -41.5q-4 -7 -15 -12q-14 3 -28.5 11.5t-14.5 18.5q0 15 3 22q31 70 71 195l9 25q14 41 17 59q12 23 23.5 63t9.5 59q-5 11 -21 11q-30 3 -77 -24.5t-80 -59.5
q-5 -4 -26 -24.5t-30 -32.5q-22 -26 -35 -51q-16 -27 -20 -32q-5 -5 -6.5 -12.5t-2.5 -9.5l-30 -136q-3 -14 -5.5 -34.5t-3.5 -22.5q-7 -15 -12 -15t-14 6q-4 1 -16.5 6t-16.5 11q-2 8 -2 13q0 11 4 24t6 19q1 8 5 19q6 18 7 27q1 4 3.5 18t8.5 26q2 22 10 47t11 34
q38 134 55 179q19 51 40 98q8 19 25 61t19 53l-4 2t-8 1q-22 -4 -24 -5q-30 -6 -46 -10.5t-59 -19.5q-7 -2 -49 -20q-28 -13 -32 -14q-2 -1 -5 -1q-7 0 -9 5q-8 17 -11.5 26.5t-2.5 21.5q0 10 10 12q21 3 60 19t44 18l54 14l85 18l30 4q11 3 32 5l129 10h2q4 0 10.5 -2.5
t13.5 -0.5q8 2 25.5 -3.5t24.5 -16.5q9 -14 9 -24zM672 257z" />
    <glyph glyph-name="uni040C" unicode="&#x40c;" horiz-adv-x="494" 
d="M669.5 583.5q-6.5 -7.5 -28.5 -19.5q-45 -22 -51 -33q-5 -4 -22.5 -17t-43.5 -32q-39 -26 -67.5 -49t-37.5 -35q-3 0 -7.5 -3t-7.5 -2q-2 -1 -9 -6t-10 -9q-3 -8 -9.5 -15.5t-15.5 -6.5q-19 -10 -75 -55q7 -77 39 -135q29 -64 59 -94q21 -23 39.5 -36t28.5 -13
q9 -3 25 -14t17 -18q1 -2 1 -8q0 -15 -5 -22q-4 -7 -7 -10.5t-10 -3.5q-11 0 -27 8q-16 -1 -55 30t-60 57q-27 39 -46.5 71t-29.5 70q-4 18 -15 54q-7 19 -8 27v19l-12 -30q-1 -3 -12.5 -33t-32.5 -106l-16 -52q-23 -72 -30.5 -91t-15.5 -19q-4 0 -10.5 4.5t-9.5 6.5
q-8 5 -11 9t-3 10q0 7 5 25q-1 13 2 25t3 14q7 0 7 16q0 8 9 35l9 31l12 29q11 28 11 30q0 13 13 33q4 12 7 26t3 23q2 5 11 23t13 36q1 5 3.5 11t5.5 15l33 90l15 34q2 5 13.5 31t15.5 26v11q0 4 11 26l12 24q8 12 12.5 25t5.5 17q1 2 4 7t7 9q11 8 20 8q14 0 24 -20
q7 -14 7 -25q0 -10 -9 -24q-34 -73 -68.5 -150t-34.5 -89l34 25q26 26 83 69l123 100q28 14 66 44q10 6 16 11t10 7q6 5 24 17.5t23 11.5q11 5 24 -10t11 -28q2 -10 -4.5 -17.5zM466.5 733.5q-3.5 13.5 -2.5 19.5q2 9 43 53t55 49q5 3 9 3q14 0 32 -31q4 -9 -9.5 -23.5
t-41.5 -37.5q-34 -28 -42 -39q-5 -9 -10 -14.5t-9 -5.5q-3 0 -14 7q-7 6 -10.5 19.5z" />
    <glyph glyph-name="uni040D" unicode="&#x40d;" horiz-adv-x="612" 
d="M750 663.5q11 -11.5 11 -25.5q0 -8 -2 -12l-26 -71q-103 -280 -106 -283q-14 -35 -42 -106t-43 -113q-10 -27 -21 -50q-11 -19 -19 -56q-3 -12 -12 -21t-16 -5q-38 14 -38 41q0 7 1 10q1 0 39 92l38 91q74 187 75 196q5 11 10 25.5t8 21.5q13 39 21 54q9 19 16 36.5
t7 29.5q-60 -65 -190.5 -205.5t-190.5 -203.5q-7 -6 -39 -35q-27 -27 -42 -38q-6 -5 -30.5 -25t-34.5 -20q-23 4 -32.5 12t-9.5 21q0 11 7 29.5t9 24.5q14 48 16 65q8 36 30 106q2 8 11 38t11 57q18 31 34 76l17 43q7 15 17 47q12 36 20 53q9 17 11 21q18 36 29 61t12 43
q0 12 12 12q11 0 25 -8.5t15 -13.5q4 -14 4 -23q0 -8 -3 -17l-83 -211l-91 -241q-14 -44 -14 -64q0 -19 13 -12l202 202q33 35 65 76q7 3 88 95l43 49l127 135l19 6q11 2 22 -9.5zM534 705q-4 0 -7 5t-7 17q-2 3 -18 29q-18 29 -27.5 46.5t-9.5 30.5q0 8 3 12q20 18 29 18
q8 0 13 -6q9 -5 22.5 -30.5t24 -53.5t10.5 -36q1 -5 -5.5 -14.5t-14.5 -11.5q-9 -6 -13 -6z" />
    <glyph glyph-name="uni040E" unicode="&#x40e;" horiz-adv-x="512" 
d="M637.5 656.5q8.5 -11.5 8.5 -26.5q0 -7 -1 -11q-2 -6 -5.5 -14t-6.5 -17q-6 -12 -19.5 -44t-21.5 -50q-30 -74 -37 -84q-24 -46 -44 -80q-32 -57 -71 -116q-9 -14 -37 -51.5t-40 -51.5q-16 -24 -34 -43.5t-52 -53.5q-43 -45 -53 -55q-7 -10 -19 -10q-7 0 -15 5
q-20 11 -20 23l2 8q2 5 35.5 39t52.5 52q5 5 24 26t33 43q-40 34 -59 100q-2 6 -5.5 16t-2.5 18l-17 88q2 6 2 9q0 4 -1.5 11t-2.5 12l-3 174l2 29l2.5 32.5t2.5 25.5v14t3.5 16.5t12.5 6.5q13 2 25.5 -6.5t19 -20t2.5 -17.5q-5 -9 -5 -26q0 -14 -1 -20q-2 -21 -3.5 -57.5
t-1.5 -75.5q0 -30 1 -40q8 -84 10 -91q1 -26 18 -82t30 -80l14 17q4 6 14 18q17 23 21 33q5 11 22 39q12 18 17 28q4 8 19 33q17 30 20 35l65 123q9 28 15 44q2 6 14.5 42.5t16.5 66.5q2 6 4.5 8.5t8.5 2.5q4 0 9.5 0.5t9.5 -0.5q13 -3 21.5 -14.5zM228 575v-2v2zM348 787
q-1 3 -1 10q0 9 4 16q2 4 9.5 6.5t11.5 0.5q16 -6 24.5 -13t10.5 -18q4 -7 4 -14q5 -13 10.5 -19t14.5 -6q4 0 18 4q48 16 75 38l51 39l1 1q4 2 8 2q9 0 12 -3q6 -6 7.5 -11t1.5 -10.5v-7.5l-1 -2q2 -6 -12.5 -23t-32.5 -29q-23 -16 -75 -37q-8 -4 -21.5 -5t-18.5 -2
q-71 -7 -101 83z" />
    <glyph glyph-name="uni040F" unicode="&#x40f;" horiz-adv-x="551" 
d="M713 617q-14 -37 -46 -115q-50 -145 -65 -193q-7 -25 -31 -89q-3 -6 -5.5 -17.5t-4.5 -17.5q-2 -9 -8 -22q-3 -10 -9 -28t-7 -23q-1 -3 -3.5 -16.5t-10.5 -24.5q1 -14 -8 -34q-3 -7 -7 -21q-1 -7 -5.5 -12.5t-11.5 -7.5q-6 -1 -18.5 -4t-21.5 -2q-5 1 -16 1
q-39 0 -72 -13l-14 -50q0 4 -17.5 -35t-34.5 -58q-4 -4 -12 -4q-12 0 -24 7.5t-15 15.5q-1 2 -1 6q0 6 5 13.5t7 12.5q1 4 2.5 13.5t7.5 14.5q4 4 6.5 13.5t4.5 13.5q3 5 5 17.5t2 22.5q-4 1 -13 1l-36 -1q-17 0 -25 4q-9 5 -16 4q-12 -1 -21.5 3t-22.5 13q-15 11 -15 29
q1 21 3.5 40.5t2.5 27.5q1 5 2 16.5t6 20.5q1 4 1.5 15.5t4.5 17.5q1 19 15.5 68t24.5 72l44 124q3 9 9.5 24.5t11.5 26.5q1 3 2.5 8.5t17.5 42.5l14 31q4 15 12 29t12 27q1 5 8.5 7.5t13.5 0.5q19 -9 27 -16.5t8 -18.5q0 -12 -11 -37l-47 -106q-15 -36 -20 -50
q-27 -67 -39 -108q-1 -2 -31 -99.5t-16 -93.5q-6 -14 -6 -40q0 -16 -2 -24q18 -11 62 -11q30 0 47 5l82 6q5 2 17 2h16q11 0 16.5 2t7.5 8q5 27 17 61q14 40 17 60q2 12 7 25t7 18l13 41q1 4 5.5 18t17.5 41q18 52 26 79q2 6 6 23.5t13 30.5q3 16 17 53l9 26l38 108
q4 15 19 22q3 -1 8.5 -4.5t11.5 -4.5q23 -6 29 -32z" />
    <glyph glyph-name="uni0410" unicode="&#x410;" horiz-adv-x="502" 
d="M69 -33q-11 6 -15.5 11t-4.5 13q0 10 8.5 28.5t29.5 58.5q6 13 23 46q58 111 58 121q-1 2 -1 6q0 10 16 18q23 23 38 49q10 22 27 52.5t42 72.5q12 21 36 61q37 66 95 144q23 31 38 30q19 0 42.5 -17.5t32.5 -39.5q4 -7 4 -30q0 -31 -7 -105q-2 -13 -4 -41q-3 -45 -9 -96
q-11 -112 -16 -175t-5 -118q0 -28 1 -41v-7l-1 -23q-6 -6 -18 -6q-14 0 -27 6.5t-15 15.5q-1 1 -3 2t-2 9l1 22l3 56l5 162l-13 -1q-20 0 -89 -8t-86 -13q-9 0 -22 -12t-23 -31q-3 -10 -14 -28.5t-11 -21.5q-6 -4 -10.5 -10.5t-5.5 -8.5q0 -11 -20.5 -56t-40.5 -75l-21 -32z
M302 293.5q20 3.5 36 4.5q72 17 88 17q7 0 13 -3q3 -4 6.5 -5.5t4.5 -1.5q2 6 12.5 108.5t11.5 136.5l3 50q-6 0 -26 -23t-44.5 -59.5t-43.5 -74.5q-10 -18 -19.5 -33.5t-13.5 -15.5q-7 -7 -33 -54t-21 -51q6 1 26 4.5z" />
    <glyph glyph-name="uni0411" unicode="&#x411;" horiz-adv-x="509" 
d="M645.5 656.5q4.5 -8.5 1.5 -9.5q-9 -12 -21 -12q-6 0 -12 3q-7 2 -88.5 -4t-136.5 -13q-9 -5 -15.5 -13.5t-14.5 -22.5q-6 -11 -30.5 -64.5t-33.5 -73.5q-3 -4 -3 -7q0 -8 29 -8q5 0 16 -3.5t17 -2.5q10 2 51 -11t53 -21q27 -17 42 -30.5t25 -31.5q12 -26 18 -45t4 -40
q0 -10 -6 -37.5t-12 -38.5q-20 -35 -50 -68q-15 -18 -34.5 -31.5t-47.5 -26.5q-29 -14 -38 -17.5t-29 -7.5l-43 -11q-11 -7 -23.5 -8.5t-31.5 -1.5h-34q-12 0 -29.5 6t-24.5 13q-10 13 -17 35.5t-6 27.5l12 83q3 6 5 19t5 19q-1 12 26 89l8 24q3 15 15 40l9 20q8 27 13.5 42
t11.5 26q7 11 17 35l59 134q-10 5 -18 19.5t-8 26.5v2q0 4 3.5 7t8.5 5l31 1q11 0 16 -1h3q4 0 9 2t12 0q8 -2 13 -2q12 0 22 5l56 3q33 3 46 3q4 0 51 4t51 5t11 1q12 0 18 -5.5t12 -16.5q2 -6 6.5 -14.5zM295 447zM319 386.5q-31 4.5 -45 4.5q-29 -69 -43 -109
q-26 -78 -36 -118q-5 -16 -8 -39t-3 -41q0 -26 7 -32q8 0 27.5 0.5t35.5 4.5q68 18 104.5 34t68.5 52q25 28 37.5 53t19.5 58q2 10 2 14q0 9 -4 27q-4 11 -5 21q-9 21 -17.5 28.5t-17.5 10.5t-14 5q-15 12 -68 20q-10 2 -41 6.5zM358 380h2h-2z" />
    <glyph glyph-name="uni0412" unicode="&#x412;" horiz-adv-x="512" 
d="M149.5 -22q-15.5 15 -15.5 28t17 23q5 3 17.5 -5.5t24.5 -20.5q26 -24 68 -24q18 0 48 7q41 12 72.5 35t60.5 59q18 24 27 53t9 55q0 32 -12 47q-40 54 -114 54q-32 0 -60 -8l-58 -12q-2 -1 -9 -2.5t-22 -43.5t-39 -110q-21 -61 -33 -85.5t-22 -24.5t-24 22
q-11 18 -11 31t9 28q5 9 8.5 18t7.5 25q13 39 75.5 194t97.5 234q25 57 15 60q0 3 -3 9t-2 9q0 6 28 18t41 10h6q13 0 13 5q2 0 18.5 2t35.5 0q67 -6 104 -39t36 -88q-1 -25 -35 -73.5t-68 -79.5q-16 -14 -36.5 -29.5t-26.5 -19.5l25 -9q49 -18 77.5 -44.5t39.5 -70.5
q2 -10 2 -18q0 -22 -7.5 -50t-16.5 -49q-6 -6 -10 -13t-5 -9q-1 -4 -18 -30.5t-30 -42.5q-50 -43 -89 -57q-42 -19 -95 -19q-49 0 -74 16q-32 20 -47.5 35zM290.5 336.5q33.5 6.5 46.5 11.5q2 1 12.5 6.5t21.5 16.5q24 22 59 65.5t51 73.5q25 41 25 60q0 13 -11 24
q-13 16 -62 16q-32 0 -55 -6q-14 -4 -20.5 -9.5t-6.5 -16.5q0 -15 -16 -31q-1 -6 -4.5 -11.5t-4.5 -6.5q0 -3 -12 -30q-16 -31 -30 -70q-38 -90 -38 -101q11 2 44.5 8.5z" />
    <glyph glyph-name="uni0413" unicode="&#x413;" horiz-adv-x="480" 
d="M656.5 625q6.5 -7 10.5 -17v-19q-5 -3 -17.5 -12t-20.5 -11q-9 -1 -23 -9q-13 -7 -23 -7q-6 0 -14 3q-4 3 -9.5 3.5t-8.5 0.5q-7 15 -15 20q-10 -4 -31 -4t-31 -5q-31 -2 -58 -10q-16 -4 -24 -5q-22 -4 -36 -10q-9 -18 -27 -55q-26 -54 -43 -103l-53 -143
q-6 -11 -22.5 -62t-18.5 -65q-3 -18 -9 -39t-8 -30q-2 -6 -6.5 -23t-5.5 -34q0 -3 -2.5 -7t-3.5 -7q-7 3 -33 3q-11 5 -21 19q6 40 11 57q9 29 15 62q3 15 8 37l23 47q6 28 17 58t13 37q15 44 30 78q2 6 17 45q4 11 13.5 34.5t15.5 36.5t7 19q-13 -1 -27 4t-17 12l-6 36
q9 7 41 12l21 8q11 4 35 10q139 32 154 32q5 0 17 0.5t22 4.5q1 1 23.5 1t32.5 4q6 2 20.5 2.5t21.5 3.5q2 2 9 2l17 -1q13 -7 19.5 -14zM223 560z" />
    <glyph glyph-name="uni0414" unicode="&#x414;" horiz-adv-x="723" 
d="M721 82q12 -13 12 -23q-3 -43 -25 -95.5t-57 -117.5q-3 -8 -3 -14v-2q0 -2 -11 -18q-3 -3 -8 -3q-8 0 -19 10.5t-18 19.5q-2 8 -2 12q0 13 15 43q4 8 21 40t27 55.5t13 39.5l-7 8q-8 -5 -110 -8q-10 0 -16 -0.5t-8 -0.5q-5 4 -10 4q-7 0 -14 -2l-63 -2h-12q-7 0 -11 -1
q-20 -4 -34 -4q-16 0 -29 -2l-60 -6q-37 -3 -66 -6t-37 -4q-20 0 -35.5 -8t-21.5 -9q-15 -54 -37 -143l-6 -23q-2 -15 -26 -22q-18 19 -23.5 28t-2.5 21q0 -4 9 28t13 57l17 75q-4 6 0 13.5t14 19.5l67 11q22 5 54 36t53 60q53 70 81.5 137t69.5 191q11 29 24 71
q8 7 12.5 26.5t4.5 33.5q-7 3 -15.5 2t-13.5 0q-12 6 -19 18t-7 25q0 7 1 10q4 1 11.5 -0.5t16.5 -1.5q11 0 19 2q5 1 46 7t46 9q70 7 111.5 9.5t90.5 2.5q16 0 31 -10t18 -21q1 -28 -42 -163.5t-81 -223.5q-7 -22 -25 -68l-15 -40l-21 -69q1 -3 3 -7.5t5 -4.5l15 2
q9 2 19.5 4t14.5 4.5t9 7.5l1.5 0.5t3.5 0.5q3 0 11 -2q19 -6 31 -19zM615.5 298q27.5 73 41.5 113l9 25q31 89 44 130.5t17 68.5q-16 3 -44 3q-42 0 -87.5 -6t-66.5 -15l-19 -47q-1 -4 -32 -105t-92 -229t-116 -173q31 0 146 10t123 12q7 37 16.5 63.5t29.5 75.5
q3 1 30.5 74zM37 -151z" />
    <glyph glyph-name="uni0415" unicode="&#x415;" horiz-adv-x="548" 
d="M209 -13q-19 10 -43 29l-20 14q-18 18 -27.5 37.5t-15.5 50.5q-2 12 -2 21q0 29 10 68.5t22 64.5q22 53 97 170l5.5 5.5t1 2l-0.5 0.5q0 7 29 62q17 18 17 31q0 7 -3 11q-4 5 18.5 24.5t56.5 38.5q27 21 53 21q8 0 13.5 -2.5t6.5 -7.5q0 -6 40 4q18 4 26 5q4 5 20.5 8.5
t46.5 7.5q16 -1 33 0t22 2q8 3 17.5 -2.5t16.5 -21.5q3 -7 3 -13q0 -11 -13.5 -17.5t-46.5 -10.5t-41 -5q-55 -6 -116 -19q-39 -8 -56.5 -20t-39.5 -46q-7 -5 -18 -25.5t-22 -42.5q-3 -4 -7 -10t-10 -13q-29 -39 -40 -56.5t-8 -21.5q3 -1 11.5 -3t14.5 -3q9 5 25 7t23 4
q159 41 180 44q9 6 17 6q18 0 32 -24q3 -6 3 -11q0 -9 -14 -17t-53 -19.5t-94 -26.5l-32 -9q-65 -19 -101 -19q-31 0 -30 17q-10 5 -22.5 -22t-21.5 -66.5t-9 -66.5q0 -14 3 -22q9 -25 22.5 -38t45.5 -22q7 -1 17.5 -2t24.5 -1q20 0 40 8q51 9 87.5 20t44.5 16q6 3 10 4t8 1
l-1 -2v-0.5t1 -0.5q3 0 18 17q17 14 46.5 27t30.5 6q2 -6 2 -10q0 -19 -23.5 -45.5t-63.5 -49.5q-49 -26 -109.5 -38.5t-116.5 -13.5q-22 1 -41 11z" />
    <glyph glyph-name="uni0416" unicode="&#x416;" horiz-adv-x="826" 
d="M381.5 -11q-8.5 14 -3.5 22l9 24q7 22 12 31q7 13 11.5 30t6.5 22q19 59 34 90q5 10 15 38q2 6 5 14t7 18q-39 -24 -55 -42q-31 -31 -65 -57q-25 -19 -52 -43q-1 -3 -43 -30t-67 -42q-26 -16 -37 -25q-30 -22 -55 -34q-13 -8 -22 -8q-6 0 -15 4.5t-17 7.5q0 3 -4.5 10
t-4.5 12t7 11q6 7 62 43q11 7 25 16t26 18l34 21q7 4 38 22.5t39 26.5q1 1 21 16l116 88q25 17 35 46q-5 10 -29 48.5t-34 52.5q-55 66 -52 63q-2 3 -37.5 54.5t-37.5 55.5q-12 15 -18.5 25.5t-7.5 23.5q6 10 18 10q5 0 9 -2q6 -3 20.5 -8t21.5 -15q6 -7 14.5 -15t17.5 -23
l130 -184q5 -6 19 -27.5t17 -27.5q2 -6 6 -6t9 7t7 9q-1 13 7 41l6 19q24 72 30 101q3 18 12 29q4 7 6 18t3 17q1 4 4.5 23.5t13.5 36.5q3 1 9 1q10 0 17.5 -6t13.5 -15t11 -14l1 -11q0 -13 -6 -21l-14 -47q-2 -11 -9.5 -36t-15.5 -47q-2 -6 -4 -12.5t-4 -13.5
q-3 -21 -10 -34q-4 -22 -14 -53l-8 -29q0 -1 0.5 -2l0.5 -1q4 0 17 17l40 38q132 132 170 159q65 65 109 80q6 -5 14.5 -11.5t14.5 -13t8 -15.5q-15 -28 -32 -39q-26 -13 -54 -35t-35 -28q-19 -12 -58.5 -48.5t-59.5 -56.5q-6 -6 -29 -24.5t-43 -46.5q2 -3 10 -19
q12 -26 22 -36q8 -14 31.5 -49t40.5 -60q7 -16 22 -33q14 -18 19 -28q5 -4 13.5 -13.5t17.5 -13.5q7 -3 11.5 -10.5t11.5 -24.5q-6 -17 -12 -20.5t-32 -5.5q-16 4 -35 20.5t-30 35.5q-26 37 -64 100l-36 57q-2 10 -10.5 22.5t-10.5 18.5t-5 9t-9 4q-7 1 -12 6t-10 12.5
t-10 13.5q-9 -31 -26 -71l-13 -32q-1 -3 -6.5 -10.5t-5.5 -13.5q0 -2 -19 -59q-25 -70 -33 -97q-1 -4 -3.5 -11t-4.5 -10.5t-6 -5.5q-10 -7 -20 -7q-4 0 -10 2q-15 4 -23.5 18z" />
    <glyph glyph-name="uni0417" unicode="&#x417;" horiz-adv-x="545" 
d="M245 -11.5q-19 6.5 -48 22.5q-30 17 -49.5 39.5t-38.5 54.5q-6 11 -6 21q0 12 7 22q13 20 27 29q11 6 17 6q4 0 10 -2.5t11 -3.5q8 -1 10.5 -4.5t5 -11.5t5.5 -14q-8 -12 -14 -18.5t-15 -10.5q17 -34 49 -58q13 -10 33.5 -17t35.5 -7q6 0 9 1l3 1q3 0 9 -2t10 0
q4 1 17.5 1.5t24.5 5.5q65 19 109 75q17 23 23.5 42.5t7.5 48.5q2 13 -1 25.5t-6.5 24t-5.5 16.5q-2 7 -10 11.5t-12 8.5q-10 3 -28 9t-33 6q-16 0 -30 -5q-16 -4 -18 -4q-7 0 -15 4.5t-10 5.5q-10 4 -18.5 16.5t-8.5 23.5q0 4 2 8q5 9 14.5 13t19.5 2q4 -1 13 -1q17 0 39 9
q13 5 42 25.5t30 23.5q29 34 45 57t27 54q11 19 11 48q0 19 -6 32q-3 10 -18.5 16.5t-31.5 6.5q-8 0 -14 -2q-16 0 -48.5 -12t-39.5 -18q-2 -1 -30 -25.5t-38 -40.5q-4 -7 -20 -7q-5 0 -9 1t-6 2q-10 17 -10 29q0 16 14 34q17 22 30.5 36t31.5 24q8 5 27 16t35 16
q4 1 22.5 7.5t37.5 6.5q9 0 13 -1q31 -3 46.5 -11t48.5 -36q14 -9 21 -30t7 -48q0 -49 -17 -83q-4 -8 -17 -32.5t-27 -42.5q-18 -23 -38 -47q-2 -3 -16 -11.5t-24 -11.5q18 -7 41.5 -24t26.5 -28q28 -45 28 -104q0 -28 -6 -61q-10 -17 -28 -51q-13 -23 -28 -36.5t-42 -31.5
q-34 -22 -65 -31q-43 -12 -81 -12q-10 0 -26 2q-25 1 -44 7.5z" />
    <glyph glyph-name="uni0418" unicode="&#x418;" horiz-adv-x="612" 
d="M750 663.5q11 -11.5 11 -25.5q0 -8 -2 -12l-26 -71q-103 -280 -106 -283q-14 -35 -42 -106t-43 -113q-10 -27 -21 -50q-11 -19 -19 -56q-3 -12 -12 -21t-16 -5q-38 14 -38 41q0 7 1 10q1 0 39 92l38 91q74 187 75 196q5 11 10 25.5t8 21.5q13 39 21 54q9 19 16 36.5
t7 29.5q-60 -65 -190.5 -205.5t-190.5 -203.5q-7 -6 -39 -35q-27 -27 -42 -38q-6 -5 -30.5 -25t-34.5 -20q-23 4 -32.5 12t-9.5 21q0 11 7 29.5t9 24.5q14 48 16 65q8 36 30 106q2 8 11 38t11 57q18 31 34 76l17 43q7 15 17 47q12 36 20 53q9 17 11 21q18 36 29 61t12 43
q0 12 12 12q11 0 25 -8.5t15 -13.5q4 -14 4 -23q0 -8 -3 -17l-83 -211l-91 -241q-14 -44 -14 -64q0 -19 13 -12l202 202q33 35 65 76q7 3 88 95l43 49l127 135l19 6q11 2 22 -9.5z" />
    <glyph glyph-name="uni0419" unicode="&#x419;" horiz-adv-x="612" 
d="M750 663.5q11 -11.5 11 -25.5q0 -8 -2 -12l-26 -71q-103 -280 -106 -283q-14 -35 -42 -106t-43 -113q-10 -27 -21 -50q-11 -19 -19 -56q-3 -12 -12 -21t-16 -5q-38 14 -38 41q0 7 1 10q1 0 39 92l38 91q74 187 75 196q5 11 10 25.5t8 21.5q13 39 21 54q9 19 16 36.5
t7 29.5q-60 -65 -190.5 -205.5t-190.5 -203.5q-7 -6 -39 -35q-27 -27 -42 -38q-6 -5 -30.5 -25t-34.5 -20q-23 4 -32.5 12t-9.5 21q0 11 7 29.5t9 24.5q14 48 16 65q8 36 30 106q2 8 11 38t11 57q18 31 34 76l17 43q7 15 17 47q12 36 20 53q9 17 11 21q18 36 29 61t12 43
q0 12 12 12q11 0 25 -8.5t15 -13.5q4 -14 4 -23q0 -8 -3 -17l-83 -211l-91 -241q-14 -44 -14 -64q0 -19 13 -12l202 202q33 35 65 76q7 3 88 95l43 49l127 135l19 6q11 2 22 -9.5zM438 787q-1 3 -1 10q0 9 4 16q2 4 9.5 6.5t11.5 0.5q16 -6 24.5 -13t10.5 -18q4 -7 4 -14
q5 -13 10.5 -19t14.5 -6q4 0 18 4q48 16 75 38l51 39l1 1q4 2 8 2q9 0 12 -3q6 -6 7.5 -11t1.5 -10.5v-7.5l-1 -2q2 -6 -12.5 -23t-32.5 -29q-23 -16 -75 -37q-8 -4 -21.5 -5t-18.5 -2q-71 -7 -101 83z" />
    <glyph glyph-name="uni041A" unicode="&#x41a;" horiz-adv-x="494" 
d="M669.5 583.5q-6.5 -7.5 -28.5 -19.5q-45 -22 -51 -33q-5 -4 -22.5 -17t-43.5 -32q-39 -26 -67.5 -49t-37.5 -35q-3 0 -7.5 -3t-7.5 -2q-2 -1 -9 -6t-10 -9q-3 -8 -9.5 -15.5t-15.5 -6.5q-19 -10 -75 -55q7 -77 39 -135q29 -64 59 -94q21 -23 39.5 -36t28.5 -13
q9 -3 25 -14t17 -18q1 -2 1 -8q0 -15 -5 -22q-4 -7 -7 -10.5t-10 -3.5q-11 0 -27 8q-16 -1 -55 30t-60 57q-27 39 -46.5 71t-29.5 70q-4 18 -15 54q-7 19 -8 27v19l-12 -30q-1 -3 -12.5 -33t-32.5 -106l-16 -52q-23 -72 -30.5 -91t-15.5 -19q-4 0 -10.5 4.5t-9.5 6.5
q-8 5 -11 9t-3 10q0 7 5 25q-1 13 2 25t3 14q7 0 7 16q0 8 9 35l9 31l12 29q11 28 11 30q0 13 13 33q4 12 7 26t3 23q2 5 11 23t13 36q1 5 3.5 11t5.5 15l33 90l15 34q2 5 13.5 31t15.5 26v11q0 4 11 26l12 24q8 12 12.5 25t5.5 17q1 2 4 7t7 9q11 8 20 8q14 0 24 -20
q7 -14 7 -25q0 -10 -9 -24q-34 -73 -68.5 -150t-34.5 -89l34 25q26 26 83 69l123 100q28 14 66 44q10 6 16 11t10 7q6 5 24 17.5t23 11.5q11 5 24 -10t11 -28q2 -10 -4.5 -17.5z" />
    <glyph glyph-name="uni041B" unicode="&#x41b;" horiz-adv-x="605" 
d="M94 -40q-15 0 -30 12t-16 27q7 18 26 18q6 0 14 8q13 13 32 33t22 23q28 31 71 91q11 16 38 63q3 5 8 15t10.5 17t12.5 12q3 18 5 22.5t6 7.5t6 4l-3 8q16 29 30 60q9 25 19 45q2 6 8 9.5t6 9.5q-1 13 44 110q4 10 12 26q-25 0 -64 -21l-25 -13q-16 -8 -28.5 -13
t-22.5 -5t-22 4q-7 13 -7 28q0 27 21 35q116 44 112 41q51 13 92 29q15 1 48.5 5t37.5 7q20 1 41 -5t23 -13q2 -6 9.5 -11t9.5 -10q-6 -4 -10.5 -10t-4.5 -10q0 -5 6 -5q5 0 9 1q6 0 14.5 -10t11.5 -19l1 -9q0 -18 -7 -51.5t-15 -62t-10 -28.5q-1 -8 -5 -24q-6 -22 -7 -33
q1 -3 -13 -48q-12 -43 -11 -43q-4 -31 -17 -72.5t-34 -101.5q-5 -14 -14.5 -42t-13.5 -44q-3 -5 -7.5 -17.5t-10.5 -18.5q-13 -13 -27 -13l-8 2q-20 8 -26 29q10 25 28.5 74t29.5 81q1 4 9.5 45.5t21.5 63.5q1 5 4.5 27.5t10.5 46.5l7 29q9 38 13 51l20 91q3 10 6.5 36
t5.5 50q-5 5 -1 11q-44 0 -102 -11q-7 -1 -12 -5.5t-7 -11.5q-1 -9 -22.5 -61.5t-33.5 -74.5q-21 -40 -36 -76l-10 -22q-10 -31 -46 -100t-63 -112q-39 -55 -85 -111q-15 -19 -37.5 -40t-35.5 -27q-5 -3 -12 -3z" />
    <glyph glyph-name="uni041C" unicode="&#x41c;" horiz-adv-x="720" 
d="M654 -52q-5 0 -12 4t-11 11q-8 17 -8 42l1 41q31 182 73 366q14 49 23.5 93t11.5 56q0 3 -5.5 -2.5t-10.5 -13t-4 -10.5l-25 -37q-6 -6 -28 -46q-15 -32 -27 -50l-28 -53q-31 -57 -38 -69q-10 -15 -29 -52q-10 -24 -36 -57q-8 -11 -15.5 -24t-9.5 -17q0 -5 -20.5 -34
t-37.5 -48q-23 -24 -38 -34.5t-28 -10.5q-17 0 -37 19q-13 14 -18.5 33t-5.5 47q0 25 7 84q1 5 19 107q19 103 23 113q1 6 1 14q0 9 -3 9t-11 -13q-3 -4 -35.5 -56t-69.5 -133q-58 -107 -86 -160.5t-41 -76.5q-17 -33 -20 -36q-15 0 -38 25q-3 6 -3 11q0 7 6.5 23t18.5 42
q31 61 41 69q12 16 14 35q13 18 37 65q15 24 35.5 60t36.5 69l28 49q39 68 62.5 105t35.5 49q16 19 16 30q0 21 8.5 38.5t17.5 15.5q12 0 19.5 -2.5t15.5 -12.5q2 -3 6.5 -9.5t7 -14t2.5 -18.5q0 -12 -3 -30q-1 -13 -8 -59q-4 -22 -4 -27q-26 -79 -46.5 -197.5t-20.5 -166.5
q0 -11 2 -15q7 -5 12.5 -1t16.5 26q13 24 44 62q2 3 39 66q92 151 179 303l26 41q15 24 29 44.5t22 26.5q10 8 19 8q19 0 34 -23t15 -58q0 -27 -11 -82.5t-29 -111.5q-6 -28 -17 -70t-23 -76q-2 -17 -8 -43q-1 -5 -5.5 -30.5t-2.5 -34.5q-15 -27 -15 -108l-3 -23
q-2 -28 -4 -38t-6 -9q-2 1 -6 1q-7 0 -7 -6q0 -4 -7 -4z" />
    <glyph glyph-name="uni041D" unicode="&#x41d;" horiz-adv-x="564" 
d="M122 -80q-6 2 -13 2q-12 3 -19.5 13t-7.5 23q0 7 1 11q3 3 5.5 15.5t2.5 22.5q3 6 5 12.5t5 18.5q8 44 37 148t36 111v11q0 3 2 12t9 19q4 12 6.5 23.5t3.5 17.5q4 5 13.5 30t12.5 33q7 19 17.5 44.5t14.5 33.5v5q2 2 10.5 20.5t14.5 31.5q7 16 37 83q3 7 9.5 17.5
t6.5 14.5q4 7 14 7q9 0 18.5 -6.5t14.5 -16.5l10 -16l-36 -72q-15 -26 -26 -50t-11 -28q-4 -10 -15.5 -41t-18.5 -53q-5 -15 -12 -31.5t-10 -23.5q-8 -18 -8 -20q0 4 120 4q19 0 67.5 1t60.5 3l52 5l34 103q10 35 44 136q15 43 24 55.5t22 12.5q5 0 14.5 -4.5t12.5 -11.5
q11 -11 11 -23q0 -14 -16 -39q-12 -21 -34 -79q-9 -27 -11 -31q0 -21 -10 -31q-4 -4 -14 -28.5t-10 -28.5q0 -8 -3 -17.5t-7 -13.5l-7 -24q-35 -127 -55 -176q0 -5 -5 -18t-5 -18q-2 -7 -9 -28t-7 -25q-2 -11 -8 -35q-15 -68 -15 -74q-2 -2 -6 -2t-12.5 3t-12.5 5
q-24 13 -24 30q0 11 9 29q3 5 19 65l9 37q6 16 27 95q17 61 19 63v10q-3 5 -73 5q-79 0 -145 -8h-47h-26q-5 -11 -30.5 -92.5t-28.5 -102.5q-7 -33 -22 -91.5t-23 -85.5q-2 1 -8 3z" />
    <glyph glyph-name="uni041E" unicode="&#x41e;" horiz-adv-x="496" 
d="M129 22.5q-11 15.5 -13 38.5q-1 5 -1 18q0 28 5 70t10 67q4 4 4.5 12t-0.5 10q0 3 5 20q12 37 17 62q27 82 53 131t58 92q43 44 67.5 64.5t54.5 34.5q39 23 56 23q3 0 9 -2q56 -12 84 -45.5t41 -103.5q9 -61 9 -92q0 -50 -18 -101t-65 -128q-54 -106 -127.5 -170
t-138.5 -64q-35 0 -64 21q-35 27 -46 42.5zM303.5 35.5q30.5 22.5 75.5 74.5q39 45 55.5 68t29.5 55t32 98q11 42 14.5 65.5t3.5 56.5l-1 65q-1 17 -7 35.5t-14 27.5q-15 17 -39 17q-15 0 -29 -7q-19 -8 -56 -46.5t-66.5 -79t-29.5 -52.5q0 -1 -1 -6t-4 -9q-17 -18 -38 -73
t-37 -119t-18 -107l-2 -34q0 -9 1.5 -14t6.5 -11.5t9 -13.5q5 -8 16 -13t23 -5q7 0 11 1q34 4 64.5 26.5z" />
    <glyph glyph-name="uni041F" unicode="&#x41f;" horiz-adv-x="605" 
d="M90 -15q-8 8 -8 22q3 9 8 20q10 27 13 39q4 19 13 48q46 148 62 187l38 106l35 102q25 54 35 90q1 2 1 6q0 3 -3 9.5t-3 14.5q-1 12 6.5 17.5t19.5 2.5q25 -7 84 -7q22 0 26 2q8 4 95 16t164 21l9 1q8 0 18.5 -2t14.5 -3q15 -3 26.5 -15.5t8.5 -27.5q-4 -12 -22 -12
q-6 0 -30 4q-2 0 -6.5 -19t-9.5 -31q-11 -14 -29 -70t-18 -73q-14 -21 -23 -63q-5 -21 -10 -34q-12 -41 -37.5 -136t-24.5 -95l-4 -36q-4 -33 -5 -46q1 -4 0.5 -7t-3.5 -4q-7 -7 -26 -7q-8 0 -15.5 2t-9.5 5q-1 3 -6 11.5t-3 17.5q3 32 16 110q5 25 12 46.5t10 23.5l19 71
q11 31 17 65q1 4 5 21.5t12 39.5q11 28 19.5 60.5t10.5 40.5q3 11 17 51q2 5 7.5 21.5t4.5 26.5l-66 -9l-60 -8l-69 -10q-54 -8 -57 -8q-17 -3 -17 -12q-24 -46 -43 -91.5t-26 -75.5q-4 -9 -33 -88q-18 -46 -17 -44q-20 -67 -43 -126q-5 -11 -8.5 -21t-6.5 -29
q-8 -21 -18 -67q-4 -13 -4.5 -19.5t-2.5 -16.5q-8 -16 -23 -16q-29 0 -37 8z" />
    <glyph glyph-name="uni0420" unicode="&#x420;" horiz-adv-x="472" 
d="M107.5 -44.5q-5.5 3.5 -9.5 9.5q-8 6 -8 18q0 23 34 121q7 28 15 54q7 18 7 27q0 8 2.5 18.5t2.5 14.5q12 0 22 41q4 15 7 25.5t4 16.5q2 3 4.5 9t4.5 11q8 24 19 46q12 45 28.5 94.5t27.5 73.5l12 30q1 3 4.5 11.5t3.5 12.5t-3 6q-5 3 -5 10q0 13 24 34q12 15 20.5 19.5
t23.5 4.5l32 -2q12 -1 64 -1q11 -5 26 -10q30 -10 30 -14q0 -5 3.5 -7t10.5 -3q10 0 31.5 -22.5t32.5 -46.5q7 -16 10.5 -26.5t3.5 -24.5q0 -15 -2 -24q-2 -16 -5 -31t-7 -19q-16 -12 -16 -21q0 -8 -25.5 -42t-48.5 -56q-26 -30 -62 -53q-118 -53 -165 -51q-32 -5 -39 -8.5
t-11 -16.5q-5 -13 -9.5 -27t-4.5 -18q-6 -11 -26.5 -74t-27.5 -94q-4 -13 -9 -16t-16 -3q-5 0 -10.5 3.5zM255 260q13 0 34.5 4t41.5 12q36 12 80 39q13 9 32.5 27t37.5 41q6 10 24 47q8 14 15.5 36t7.5 39q0 8 -1 12q-5 26 -26.5 48.5t-49.5 30.5q-21 4 -38 4q-14 0 -30 -3
q-16 -5 -23.5 -14t-19.5 -38q-23 -44 -42 -96q-18 -67 -36 -111t-21 -51v-4q0 -6 -1 -12t2 -9q2 -2 13 -2z" />
    <glyph glyph-name="uni0421" unicode="&#x421;" horiz-adv-x="482" 
d="M173.5 -31q-19.5 14 -32.5 46q-16 45 -16 106q0 59 7 100.5t24 84.5l9 21q16 41 23 54q17 39 60 101q38 58 60 84.5t42.5 42.5t75.5 54q23 17 53 17q25 0 46.5 -12.5t32.5 -35.5q11 -19 11 -51q0 -45 -20 -94t-51 -77q-10 -9 -19 -9q-11 0 -29 16q-9 17 -10 20t4 4
q9 11 26.5 42.5t23.5 49.5q2 6 4 20q8 35 8 47t-7 19q-3 3 -8 3q-8 0 -28 -10q-24 -10 -61 -45t-67 -76q-46 -60 -70.5 -99t-37.5 -79l-11 -26q1 -4 -3 -20t-9 -26q-14 -58 -14 -115q0 -43 7.5 -76t21.5 -45q8 -7 24 -7q20 0 49.5 10t72.5 29q23 9 43.5 21t30.5 22
q26 19 42 19q11 4 15 4q2 0 2.5 -2.5t0.5 -6.5q0 -14 -15 -30.5t-40 -31.5q-20 -20 -48 -31q-32 -23 -74.5 -41t-77.5 -18q-8 0 -20 2q-31 11 -50.5 25z" />
    <glyph glyph-name="uni0422" unicode="&#x422;" horiz-adv-x="458" 
d="M643 571q0 -4 -2.5 -6.5t-5.5 -3.5t-4 -2q-22 -7 -36 -7q-10 0 -23 5q-10 9 -24 13t-58 7q-29 -3 -51 -3q-7 -37 -23 -66q-4 -19 -11 -34q-7 -20 -6 -23q-3 -4 -19 -50.5t-30 -90.5q-10 -31 -15 -45q-5 -10 -12.5 -31.5t-10.5 -30.5l-25 -69q-8 -15 -19.5 -47.5
t-18.5 -58.5l-10 -35q-5 -18 -8.5 -27t-5.5 -10t-10 0q-8 0 -17.5 12.5t-9.5 24.5q0 22 15.5 74t29.5 83q4 18 7.5 29t4.5 16q3 4 9.5 21.5t10.5 32.5q3 18 62 201l7 21q9 15 17 38q8 5 8 21q0 3 3.5 8t3.5 7q2 2 4.5 9.5t6.5 11.5v1l-16 -1l-49 -5l-22 -2q-58 -5 -67 -7
q-30 -2 -42.5 3t-8.5 20q3 12 12.5 18t29.5 9q9 2 35 6l27 5l34 4q58 9 123 12q27 1 45.5 2.5t24.5 2.5q14 -1 45.5 -5t45.5 -9q22 -5 32.5 -14t15.5 -26q1 -4 1 -9z" />
    <glyph glyph-name="uni0423" unicode="&#x423;" horiz-adv-x="512" 
d="M637.5 656.5q8.5 -11.5 8.5 -26.5q0 -7 -1 -11q-2 -6 -5.5 -14t-6.5 -17q-6 -12 -19.5 -44t-21.5 -50q-30 -74 -37 -84q-24 -46 -44 -80q-32 -57 -71 -116q-9 -14 -37 -51.5t-40 -51.5q-16 -24 -34 -43.5t-52 -53.5q-43 -45 -53 -55q-7 -10 -19 -10q-7 0 -15 5
q-20 11 -20 23l2 8q2 5 35.5 39t52.5 52q5 5 24 26t33 43q-40 34 -59 100q-2 6 -5.5 16t-2.5 18l-17 88q2 6 2 9q0 4 -1.5 11t-2.5 12l-3 174l2 29l2.5 32.5t2.5 25.5v14t3.5 16.5t12.5 6.5q13 2 25.5 -6.5t19 -20t2.5 -17.5q-5 -9 -5 -26q0 -14 -1 -20q-2 -21 -3.5 -57.5
t-1.5 -75.5q0 -30 1 -40q8 -84 10 -91q1 -26 18 -82t30 -80l14 17q4 6 14 18q17 23 21 33q5 11 22 39q12 18 17 28q4 8 19 33q17 30 20 35l65 123q9 28 15 44q2 6 14.5 42.5t16.5 66.5q2 6 4.5 8.5t8.5 2.5q4 0 9.5 0.5t9.5 -0.5q13 -3 21.5 -14.5zM228 575v-2v2z" />
    <glyph glyph-name="uni0424" unicode="&#x424;" horiz-adv-x="633" 
d="M280 -76q-11 12 -10 22q10 38 12 53q6 30 11 44l-78 41q-27 20 -57.5 56.5t-37.5 74.5q-5 23 -5 47q0 57 23.5 120t63.5 111q26 29 79 64l31 22q6 5 27 14.5t34 14.5q9 0 26 3q43 5 52 5l31 -2q7 0 12 21t10 59q2 7 4 23q0 8 6.5 12.5t15.5 2.5q10 -2 23 -13t12 -18
q0 -2 2 -8t-1 -11l-20 -76q-2 -5 1.5 -6t4.5 0l1 1q6 3 12 3q11 0 20 -14q10 -14 61 -43q30 -21 43 -33t21.5 -32t13.5 -57q1 -13 1 -33q0 -24 -2.5 -39t-10.5 -44l-6 -22q-11 -20 -20 -41q-15 -32 -28.5 -52t-47.5 -54q-10 -11 -24 -23t-20 -17q-21 -19 -74.5 -39
t-82.5 -20q-15 0 -24 -1q-28 0 -33 -1l-5 4q0 -36 -18 -125q-6 -11 -18 -11l-8 2q-12 3 -23 15zM307 102q2 16 7 43.5t10 38.5q0 3 38 110.5t58 154.5q4 8 26 59t18 51q-5 1 -14 1q-16 0 -50 -8q-45 -10 -122 -71q-37 -29 -53 -63q-48 -90 -48 -134q-5 -16 -5 -35
q0 -24 7 -42t18 -35q28 -48 67 -61.5t40 -14.5q3 -3 3 6zM380 95q12 0 26 2t20 5q4 2 21.5 6.5t33.5 11.5q51 20 87 62t68 101q11 22 29 94q5 23 5 28q0 7 -1 10q-2 7 -3 15.5t-1 12.5q-4 37 -36 57q-41 25 -57.5 33.5t-48.5 19.5q-2 -11 -5.5 -22.5t-10.5 -28.5l-19 -49
q-13 -28 -47 -120.5t-42 -120.5l-9 -25q-12 -34 -14 -51q-5 -14 -8 -39q0 -2 12 -2z" />
    <glyph glyph-name="uni0425" unicode="&#x425;" horiz-adv-x="524" 
d="M661 611q0 -36 -36 -88q-23 -23 -26 -39q-22 -26 -56.5 -65.5t-41.5 -44.5q-24 -21 -49 -44.5t-31 -31.5q-3 -4 -11 -13t-13 -11l-5 -8v0q11 -49 23 -81.5t33 -75.5q12 -25 26.5 -45t26.5 -27q3 -3 11 -3q9 0 10 3q25 6 27 -39q3 -10 -12 -18t-35 -8l-10 1q-20 2 -39 20
t-41 58q-47 66 -77 159q-22 -21 -24 -24q-29 -28 -113 -119.5t-89 -102.5q-7 -12 -21 -12q-5 0 -8 1q-4 -2 -6 -2q-5 0 -9 2q-1 1 -2.5 6t-3.5 15q-4 5 -4 13q0 7 3.5 15t4.5 11q7 15 15.5 24.5t39.5 37.5l35 33l29 27l21 21q1 3 8 11t14 17q22 17 93 88q-4 19 -10 59
q-5 33 -11 59.5t-8 28.5q-1 3 1 5t3 2q2 2 2 4t-2 5t-3 6q-2 6 -6 28.5t-7 51.5q-9 85 -11 97q-2 2 -2.5 5.5t-0.5 4.5q3 8 13 18q9 6 18 6q18 0 31.5 -20t13.5 -50q0 -26 6 -32q-2 -4 1.5 -44t6.5 -50q-4 -12 0 -17q1 -6 3 -20.5t1 -19.5t3 -20.5t6 -22.5l8 -28l16 18
l23 24q48 48 76 80q54 64 80 97.5t38 58.5q2 5 7.5 17t9.5 16t9 4q28 -1 28 -32z" />
    <glyph glyph-name="uni0426" unicode="&#x426;" horiz-adv-x="650" 
d="M509 -189q0 10 9 26q4 8 7.5 16.5t3.5 17.5q0 6 24 50l20 39q6 13 6 25q0 4 -2 14q-16 2 -48 2q-42 0 -54 -2q-52 -8 -69.5 -10t-22.5 -3q-28 -4 -64 -4q-22 0 -33 1q-43 0 -82 9q-28 18 -42 36.5t-27 47.5q-5 12 -5 21t4 16q7 48 30 119.5t38 106.5q12 27 27 71
q17 49 31 76q10 26 42 94q9 20 9 30q0 6 5 9.5t10 1.5q11 -3 19.5 -9.5t23.5 -21.5v-4q0 -14 -8 -27q-8 -10 -28.5 -58t-21.5 -55q-8 -9 -45 -113t-51 -152q-14 -46 -20 -79q-2 -6 -2 -18q0 -16 9 -30q4 -8 28.5 -13t48.5 -5q12 0 16 1l39 3q66 4 72 8q2 1 26 1h33
q5 8 6.5 13.5t2.5 10.5t2 12q3 17 15 57.5t21 64.5q11 32 17.5 51t10.5 30q15 45 24 60q4 17 22 57q10 20 14 30q2 6 42.5 102.5t52.5 98.5q12 0 27.5 -11t16.5 -15q4 -9 -51 -130q-27 -57 -62 -140q-23 -54 -33 -89q-4 -15 -12 -33q-3 -8 -12.5 -35t-10.5 -42
q-6 -11 -9.5 -25.5t-4.5 -18.5q-3 -19 -9 -35q9 -7 17 -7q7 0 12 1q13 1 27 -4t17 -6q31 -10 34 -46q1 -6 1 -17q0 -26 -12 -53q-15 -37 -26 -52q-7 -14 -12 -32q-1 -2 -2.5 -7t-3 -7.5t-4.5 -3.5q-6 -16 -10 -24q-6 -14 -8 -21q-6 -2 -16 -2q-9 0 -15 3.5t-13 9.5t-11 9
q-1 3 -1 8z" />
    <glyph glyph-name="uni0427" unicode="&#x427;" horiz-adv-x="524" 
d="M649.5 614q2.5 -5 2.5 -12t-3 -18l-36 -80l-17 -54q-3 -10 -6.5 -21t-7.5 -23q-14 -46 -23 -69q-11 -23 -36 -96l-24 -66q-10 -25 -30 -108q-11 -45 -19 -74q1 -8 -5 -24q-1 -3 -3 -10t-2 -14q1 -7 -9 -15t-22 -8q-7 0 -13 3q-21 8 -21 24q0 6 3 17.5t5 18.5q2 5 4.5 13
t5.5 20l10 46q3 13 12 51.5t14 47.5l51 137l9 25q-55 -48 -111 -84.5t-87 -36.5q-46 -2 -78.5 20.5t-37.5 57.5q-4 40 24 148q7 24 20.5 65t21.5 63q27 54 38 85t22 69q1 5 3 6.5t8 1.5q17 0 35 -14.5t18 -29.5q0 -4 -3 -9q-12 -21 -33 -68l-22 -47l-34 -84q-4 -11 -12 -41
q-10 -40 -17 -54q-1 -5 -7 -21q-1 -4 -5.5 -17.5t-4.5 -23.5q0 -8 3 -14q8 -20 20 -25t35 -5q47 0 114.5 47.5t120.5 101.5l37 108q3 16 16 52q1 3 6.5 18t4.5 26q0 7 9.5 12t21.5 5q18 0 26 -11q6 -7 8.5 -12z" />
    <glyph glyph-name="uni0428" unicode="&#x428;" horiz-adv-x="808" 
d="M218 -10q-11 0 -19 5q-26 -2 -51 18.5t-30 46.5q-1 8 -1 24t1 24q9 45 24.5 99.5t33.5 98.5q10 27 28.5 77t21.5 62q10 31 20 52q7 12 25 56q23 55 54 104q5 7 9 17t5 13q7 12 17 12q7 0 18.5 -6t17.5 -9q13 -8 13 -19q0 -7 -6 -15q-32 -50 -73 -129q-1 -3 -12 -26
t-11 -31q-10 -21 -60 -156l-12 -34q-24 -58 -35 -109l-7 -38l-8 -47q-1 -2 -1 -7q0 -9 6 -18q34 -16 85 -16q21 0 47 2t36 3q2 -1 21 -1q30 0 35 1q1 2 1 5q0 5 -8 11q-11 20 -11 29q0 8 6 21.5t9 21.5q7 30 60.5 174t72.5 191q15 34 21.5 54t15.5 56l7 21q6 2 10 2
q9 0 21 -5q10 -3 20.5 -11.5t10.5 -18.5q0 -4 -3 -10q2 2 -42 -111t-61 -157l-12 -31q-26 -74 -34 -100q-9 -29 -31 -106l-9 -29q9 -7 16 -7q5 0 10 4q26 0 65.5 5t67 10t29.5 6q7 3 15 5t15 5q2 5 7 22l6 22q8 21 16 47q18 58 31 85q14 33 17 44q5 23 50 139
q19 53 49.5 133t46.5 121q4 1 11 1q22 0 44 -20q2 -5 2 -16t-6 -25q-35 -83 -113 -288q-16 -44 -25 -66q-4 -11 -17.5 -47t-22.5 -68q-5 -9 -17 -49t-11 -44q6 -7 -1 -18.5t-16 -15.5q-2 -1 -7.5 -3.5t-10.5 1.5q-28 -10 -61 -17t-65.5 -12.5t-42.5 -7.5q-6 -1 -24 -1h-40
q-30 0 -36 -3q-1 -1 -9 -1t-30 2l-22 2q-24 0 -45 -1t-36 -2l-59 -2z" />
    <glyph glyph-name="uni0429" unicode="&#x429;" horiz-adv-x="844" 
d="M780 286q-27 -75 -30 -87q-2 -13 -10 -41t-14 -46q8 0 14 1t11 2q17 5 36 5q43 0 43 -30q0 -16 -13 -45q-4 -8 -11.5 -27t-16.5 -32q-11 -19 -39 -77.5t-43 -95.5q-10 -28 -24 -38q-5 -3 -9 -3q-5 0 -12 2.5t-12 4.5q-11 4 -14.5 11.5t-1.5 18.5q1 14 12 34l9 21l44 93
q4 6 26.5 53t23.5 49q-4 4 -7 3q7 0 -24.5 -5.5t-39.5 -4.5l-47 -10q3 2 -74 -8l-141 -15q-9 -2 -32 -2q-32 0 -42 -4q-5 -2 -81 -2h-42q-25 -1 -47.5 8.5t-49.5 27.5q-10 14 -15 19q-14 17 -20 30t-5 36q3 48 9 87.5t20 76.5q10 29 26 77t15 47l22 58l43 102l7 24
q4 18 9 26t17 16q13 -2 28.5 -13t22.5 -20l-23 -65q-4 -12 -20 -50t-24 -54q-16 -26 -53 -148q-6 -18 -10 -30.5t-6 -19.5q0 -22 -10 -60q-9 -32 -9 -53q0 -12 5 -29q7 -18 17.5 -28.5t28.5 -12.5q23 -3 51 -3q32 0 63.5 2.5t39.5 5.5q4 2 12 2l18 -1q0 13 27 121t39 139
q13 41 20 71q4 14 26 74q30 80 30 89q1 18 22 23q19 -6 30.5 -12.5t18.5 -19.5q-29 -61 -54 -144q-4 -16 -9 -27q-9 -29 -15.5 -53t-14.5 -53l-15 -54q-9 -33 -16 -55l-5 -20q-14 -48 -14 -70q2 -1 14 -1q16 0 39 2t34 4l20 3q80 11 91 15q9 25 25 77q18 58 29 87l14 39
q8 26 13 39l24 66q21 63 26 73q6 15 14.5 40t13.5 40q11 8 22 8q7 0 17 -5.5t22 -13.5q9 -6 7 -18q-6 -17 -21.5 -54.5t-26.5 -63.5q-21 -54 -48 -129z" />
    <glyph glyph-name="uni042A" unicode="&#x42a;" horiz-adv-x="570" 
d="M270 -9h-11.5t-33.5 6q-10 3 -19.5 10t-12.5 17q-2 5 -7.5 17t-4.5 22q1 3 2.5 11.5t4.5 15.5q20 55 64 154.5t55 117.5l39 87q2 6 48 106l12 27q-26 2 -32 2q-17 0 -50 -5q-56 -10 -119 -30q-10 7 -22 12q-2 8 -4.5 16.5t-4.5 16.5v3q0 15 16 16q16 2 39 8t32 10t38 8
t45 4q10 5 25 5q10 0 15 -1q24 -4 50 -6q9 -1 14 -4.5t15 -14.5q4 -5 16 -17q3 -8 -4 -26.5t-21 -51.5q-14 -30 -16 -36l-13 -27q-13 -23 -13 -33l21 -3q16 -2 22 -4q48 -11 101 -54q14 -14 33 -47.5t16 -44.5q-3 -8 -5 -29q-2 -29 -8 -46q-24 -56 -66 -102.5t-94 -71.5
q-18 -10 -30.5 -15.5t-26.5 -7.5q-22 -9 -39.5 -13t-45.5 -3q-9 1 -20 1zM306 55q7 0 44.5 12.5t48.5 18.5q69 45 98 87q21 34 35.5 64.5t14.5 47.5q0 6 -1 8q-4 19 -12.5 33.5t-27.5 21.5l-20 8q-32 15 -52 16q-8 5 -26.5 4.5t-21.5 -0.5q-5 -7 -20 -39.5t-20 -44.5
q0 -5 -5.5 -13t-6.5 -13q-26 -65 -50 -117q-17 -38 -23 -55t-10 -39h55z" />
    <glyph glyph-name="uni042B" unicode="&#x42b;" horiz-adv-x="663" 
d="M206 0q-12 0 -32 4q-51 12 -92 53q0 31 16 88q8 32 7 27q16 58 42 120q25 73 52 136l41 94q13 31 48 96q9 16 10 18q3 5 10.5 20t11.5 29q1 9 5 13.5t8.5 7.5t7.5 6q11 -1 19 -5.5t15.5 -10.5t11.5 -9v-14t-1.5 -16.5t-6.5 -13.5q-54 -94 -62 -114q-2 -6 -20 -40
q50 -4 96.5 -43.5t76.5 -85.5q23 -37 23 -85q0 -36 -13 -71.5t-31 -60.5q-12 -15 -43.5 -44t-68.5 -54t-66 -32l-48 -11q-12 -2 -17 -2zM586 15q-14 0 -35 8q-9 12 -9 24q0 4 2 16q9 41 64 198.5t68 175.5q7 10 9 24q2 8 17.5 48.5t20.5 54.5l11 27q2 6 10 38q15 9 27 9
q19 0 40 -26q3 -13 -3.5 -31t-7.5 -21q-17 -45 -39 -94q-59 -142 -68 -163q-7 -20 -21 -59.5t-23 -66.5q-16 -49 -28 -99q-14 -50 -18 -60q-7 -3 -17 -3zM203 62q21 0 47 11t47 26q27 16 58.5 43.5t46.5 55.5q29 49 26 94q0 34 -7.5 54.5t-30.5 46.5q-14 16 -41.5 30
t-67.5 30q-12 -26 -26 -64q-6 -12 -24.5 -59.5t-19.5 -50.5l-9 -28q-31 -96 -48 -171q9 -9 22.5 -12.5t15.5 -4.5q3 -1 11 -1z" />
    <glyph glyph-name="uni042C" unicode="&#x42c;" horiz-adv-x="446" 
d="M228 -18q-28 0 -52.5 7.5t-35.5 19.5l-14 16q-11 12 -15 18.5t-2 14.5q2 4 9 28q1 4 2.5 10.5t3.5 11.5l86 232l24 65q14 37 41 106.5t31 76.5l7 17.5t5 13.5q10 33 24 50q6 9 21 7q30 -6 40 -25q-4 -19 -9 -30.5t-18 -33.5v-2q0 -8 -8 -18q-29 -56 -50 -116
q5 -1 19.5 -3.5t27.5 -7.5q35 -13 49.5 -20.5t34.5 -27.5t29 -43t13 -43.5t6 -28.5q0 -51 -12 -78q-21 -50 -49 -88.5t-71 -71.5q-23 -19 -47 -32.5t-37 -15.5q-22 -9 -53 -9zM251 44q3 1 16 5t23 12q25 16 57 47.5t46 49.5q22 36 32 60t10 56q0 28 -8 59q-7 27 -30 38
q-19 13 -54 22q-2 1 -10 2.5t-13.5 5.5t-7.5 11q-16 -3 -44 -88l-9 -24q-9 -23 -20 -54t-19 -52q-2 -5 -9 -26q-7 -20 -17 -52.5t-13 -44.5l-1 -8q0 -2 2 -8l46 -18z" />
    <glyph glyph-name="uni042D" unicode="&#x42d;" horiz-adv-x="484" 
d="M545.5 573q9.5 -34 9.5 -68q0 -17 -3 -31q-1 -2 -3 -29q-5 -72 -11 -83q-1 -14 -11 -40q-8 -22 -10 -34q0 2 -17.5 -37t-24.5 -56q-22 -49 -57.5 -97t-72.5 -78q-19 -15 -42 -27t-34 -11q-6 1 -19 1l-28 -1q-16 0 -45 11.5t-34 16.5q-8 7 -25 23.5t-24 24.5q-5 4 -5 11.5
t-2 10.5q-3 5 7.5 19t15.5 16l27 -15q0 -16 14.5 -31.5t32.5 -22.5q3 -3 19.5 -5t23.5 -2q33 1 71 33.5t61 64.5q25 36 38 60q3 8 24 48q3 6 5.5 10.5t4.5 8.5q12 21 12 33q-9 3 -23 3q-18 0 -62 -6t-62 -6q-11 0 -16 1q-11 5 -16.5 15t-9.5 26q-1 3 -1 9q0 13 12 18h76
q8 1 33 4t44 3q22 0 40 -6l3 -1q3 0 6 2.5t4 6.5q1 9 3 15.5t3 11.5q8 34 7 51q3 28 3 58q1 7 1 17.5t2 27.5q0 18 -7 36.5t-22 24.5q-11 4 -31 9.5t-26 6.5q-3 2 -11 2q-18 0 -40.5 -14.5t-41.5 -32.5q5 -4 6 -8t-3 -5q-16 -3 -24 -14q-5 -5 -14 -5q-14 0 -17 11
q-1 7 -5 17t-4 14q0 9 9 19q32 40 81 69q2 1 12.5 3t14.5 6q2 2 5 2q2 0 6 -0.5t6 1.5q9 -3 41 -11q33 -8 52 -17t43 -37q16 -17 25.5 -51zM404 624z" />
    <glyph glyph-name="uni042E" unicode="&#x42e;" horiz-adv-x="718" 
d="M82 8q0 3 2 11q1 5 13 89t29 122q7 36 29 102q7 17 11 31q3 14 32 86q22 59 23 63q1 8 26.5 59t36.5 69q24 44 41 59q13 -1 19 -4.5t13.5 -11.5t12.5 -13q2 -6 -13 -34.5t-32 -58.5q-35 -62 -40 -74q-2 -5 -23 -53.5t-29 -77.5q9 -6 19 -6q15 0 41 11q28 10 38 10
q27 5 38 5q15 0 24.5 -4.5t20.5 -15.5q10 -1 16 8.5t14 29.5q11 29 20 41l15 26q52 90 79 124q32 42 91 66q11 6 22 6q13 0 22 -8.5t12 -24.5q9 -3 23.5 -7.5t23 -8t15.5 -10.5q13 -6 24.5 -24t16.5 -37t1 -25q2 3 -4 -42t-12 -68q-7 -48 -54 -154l-12 -28q-21 -37 -51 -80
t-54 -63q-39 -33 -68.5 -50.5t-56.5 -17.5q-23 0 -39.5 7t-35.5 20q-20 15 -33 44t-13 51q0 9 3 15q-1 2 -1 10q0 22 12 76q7 33 7 37q7 11 12 29t2 23q-8 7 -25 7q-26 0 -69 -16l-39 -14q-21 -8 -40 -14t-34 -7q-9 -9 -12 -26t-4 -21l-10 -40q-5 -20 -15 -63.5t-9 -41.5
q0 -7 -4 -27q-4 -24 -3 -35q1 -9 -3 -25q-3 -13 -3 -26q0 -15 -18 -15q-15 0 -27 9q-14 12 -14 26zM514 85.5q22 8.5 34 20.5l40 41q29 28 46 49.5t41 66.5q21 35 29 55t15 46q7 30 19 61q11 30 13.5 58.5t2.5 68.5q1 15 -8.5 26t-21.5 9q-4 -1 -14 -2.5t-18 -5t-13 -9.5
q-10 -11 -21 -13q-2 0 -7 1t-9 6.5t-11 15.5q-20 -14 -26.5 -21t-24.5 -32q-21 -29 -38.5 -62.5t-20.5 -39.5q-44 -82 -69 -180q-14 -58 -14 -94q0 -57 32 -74q22 0 44 8.5z" />
    <glyph glyph-name="uni042F" unicode="&#x42f;" horiz-adv-x="548" 
d="M592 398q-3 -9 -15.5 -48t-11.5 -46q0 -7 -5 -13t-7 -10q3 -18 -22 -99q-8 -33 -21.5 -94.5t-14.5 -74.5q0 -3 -3 -11t2 -13q-11 -25 -9 -33q0 -18 -7 -22.5t-17.5 -4t-14.5 0.5l-31 30q1 18 7 49q5 22 5 31q1 3 4 16.5t6 34t2 34.5q5 2 10 7.5t6 11.5l12 55q2 1 10.5 34
t12.5 46q3 17 5 21q-4 5 -10 1q-18 -12 -33 -17q-11 -19 -41 -57q-21 -24 -32 -42q-9 -14 -76 -77t-80 -76l-46 -43q-18 -20 -51 -26q-19 15 -23 20.5t-9 24.5q10 13 15 16q14 9 59 48t67 60l52 52l22 22q13 12 23 23.5t25 31.5q-24 6 -48.5 18t-33.5 23q-40 44 -40 111
q0 50 20 96q9 26 18.5 39t25.5 28q21 21 25 26q27 27 58 42.5t79 32.5q14 4 31 11q14 2 46.5 4t49.5 3q15 -6 19.5 -10t9.5 -7l19 16q3 -2 15.5 -8t21.5 -15.5t11 -22.5q-26 -62 -43 -106.5t-40 -113.5q5 9 -9 -30zM531 414q41 120 36 103q5 19 13 38q11 30 24 74
q-7 10 -30 10q-16 0 -48 -6q-62 -12 -125.5 -54t-87.5 -98q-10 -24 -14.5 -43.5t-3.5 -39.5q0 -16 2.5 -26.5t8.5 -22.5q1 -4 3 -8.5t4 -10.5q1 -6 11.5 -10t22.5 -4q5 0 15 2q9 3 28.5 9t35.5 12.5t30 15.5q12 6 24 6q18 0 29 -11l9 26z" />
    <glyph glyph-name="uni0430" unicode="&#x430;" horiz-adv-x="437" 
d="M97.5 48.5q-6.5 6.5 -6.5 8.5q0 11 -5 17q-2 2 -2 9q0 16 15.5 54.5t40.5 83.5q6 6 15.5 21t12.5 17q0 4 3 7.5t7 3.5v6q0 9 33 43.5t54 47.5q25 17 51 17q18 0 31 -10q5 -6 46 -43l37 -33l-18 -50q-9 -27 -9 -49q0 -38 22 -73q5 -11 20 -21t30 -12q22 -4 22 -22
q0 -20 -18 -24q-4 -1 -12 -1q-59 0 -102 83q-4 6 -10.5 22t-7.5 22q-6 -8 -15 -19t-17 -19q-109 -109 -172 -109q-20 0 -36 10q-3 6 -9.5 12.5zM153.5 89q10.5 2 26 10t31.5 21q86 74 124 129l22 36q-10 21 -21 30.5t-20 9.5q-21 0 -66 -52.5t-82 -123.5q-9 -17 -16 -34.5
l-9 -22.5q0 -5 10.5 -3z" />
    <glyph glyph-name="uni0431" unicode="&#x431;" horiz-adv-x="308" 
d="M247 309q0 -3 -2 -11q-6 -18 -11 -25q-12 -11 -20.5 -24.5t-16 -28t-11.5 -22.5q0 -6 -7.5 -15t-7.5 -15q0 -9 -6 -29q-6 -13 -6 -33l1 -29q10 -4 13 -4q8 0 17 9q20 16 28.5 29t15.5 32q3 5 5.5 11.5t6.5 13.5q11 21 19.5 55.5t8.5 56.5q0 9 -1 12v2l1 12q0 7 -6 12
q4 4 4 17q0 10 -2.5 21.5t-5.5 16.5q-3 50 -3 81q0 42 6 73q1 4 13 21.5t21 26.5q17 14 46 23t51 7q-1 -1 10 -1q25 0 58 3q11 2 18.5 4.5t24.5 12.5q4 3 6.5 3.5t6.5 -0.5l27 -23q-1 -29 -14.5 -42t-49.5 -17l-15 1q-4 0 -12 -2q-2 -1 -5 -1q-4 0 -9 1.5t-9 1.5
q-8 0 -17 -1.5t-18 -1.5t-13 1q-40 -12 -58 -29t-18 -54q2 -20 8 -54q9 -45 9 -76q1 -6 3 -11.5t2 -8.5q0 -5 -3 -8q5 -25 5 -43q0 -22 -6 -34q-1 -6 -2.5 -26t-10.5 -38q-27 -55 -50.5 -88.5t-57.5 -56.5q-6 -4 -19 -7t-21 -5q-6 3 -19.5 10.5t-20.5 13.5q-32 29 -32 76
q0 19 5 41.5t5 25.5q-1 8 4 17.5t7 13.5q21 41 36 65t43 55q3 2 10 8t13 8l23 -17q5 -7 5 -13z" />
    <glyph glyph-name="uni0432" unicode="&#x432;" horiz-adv-x="314" 
d="M167.5 2.5q-16.5 -0.5 -31.5 7t-25 23.5q-7 13 -12 30t-5 29q0 5 2 11q19 110 31 139l16 39q5 16 3 36v4q0 13 10 22q17 13 27 34q7 17 22 46t22 38q11 15 20 29q2 3 14.5 21.5t28.5 31.5q19 32 75 77q24 20 30 26q3 3 18 6.5t19 4.5q8 2 27 7q6 3 22.5 -4.5t24.5 -16.5
q16 -28 16 -44q0 -13 -6 -29t-23 -52q-36 -72 -131 -137q-36 -32 -81 -56q-33 -17 -54 -24q-16 -5 -23 -23q-4 -9 -6.5 -22t-6.5 -17q-6 -6 -20 -67t-14 -83q0 -8 2 -14t9 -9q14 3 22.5 9.5t21.5 21.5q28 35 40 67q3 9 6 23.5t7 22.5q0 35 -1 45.5t-7 25.5q5 3 8.5 6.5
t9.5 2.5q23 -5 47 -28q7 -7 4 -17q-4 -32 -4 -46q-3 -7 -10 -31q-1 -13 -6 -25q-18 -37 -26 -50q-22 -41 -60 -70l-33 -20q-3 0 -19.5 -0.5zM418.5 599.5q-16.5 -11.5 -41.5 -36.5q-24 -24 -65.5 -81.5t-55.5 -92.5q5 -1 12 -1q10 0 17 10q71 49 111 85.5t52 68.5
q4 8 11 20.5t9 23.5l-4 28q-29 -13 -45.5 -24.5z" />
    <glyph glyph-name="uni0433" unicode="&#x433;" horiz-adv-x="288" 
d="M400 346l-14 -25q-76 0 -101 -9q-8 -3 -24 -5t-23 -5q-8 -8 -16 -36t-10 -34q-4 -11 -13.5 -37t-14.5 -42q1 8 -8.5 -21t-11.5 -36l-8 -26q-11 -43 -25 -69l-26 1q-7 7 -23 22q-1 16 7.5 51.5t16.5 54.5l55 165q2 5 2 20q-1 3 -1 9q0 11 6 21t9 16l8 -1q3 0 8.5 0.5
t9.5 -1.5q9 -2 46.5 5t48.5 13l36 1q12 0 18 -1q24 0 48 -31zM184 153z" />
    <glyph glyph-name="uni0434" unicode="&#x434;" horiz-adv-x="353" 
d="M272 643q17 0 30 -8q50 -16 77 -46t37.5 -71t12.5 -103q1 -9 1 -24q0 -13 -3 -46q-6 -8 -7 -20t-1 -14q0 -20 -4 -29q-1 -13 -8 -28t-7 -21q-29 -82 -84 -147t-119 -80q-5 -2 -26 8.5t-31 21.5q-10 12 -15.5 22t-5.5 23q-6 14 -7.5 28.5t-1.5 37.5q0 21 8 41t22 48
q9 25 40.5 61.5t66.5 53.5q28 15 48 15q12 0 23 -4q12 -3 18 -9.5t9 -8.5q8 8 14.5 36.5t6.5 61.5q0 62 -21 90q-33 47 -77 47q-17 0 -42 -10q-13 6 -22 20t-5 27q23 19 44 23q20 4 29 4zM319 313q-25 0 -61 -25q-12 -9 -23.5 -24.5t-14.5 -19.5q-10 -16 -16 -23v-2
q0 -7 -5.5 -12t-7.5 -8q-11 -21 -16 -42.5t-5 -30.5q0 -18 5.5 -34t15.5 -21q14 -6 48.5 22.5t57.5 61.5q6 9 19 34.5t19 38.5q11 30 11 54q0 17 -6 23q-8 8 -21 8z" />
    <glyph glyph-name="uni0435" unicode="&#x435;" horiz-adv-x="325" 
d="M216 13q-25 0 -47.5 12t-37.5 33q-13 16 -19 36t-6 49q0 10 2 40q3 37 24.5 77t53.5 71.5t63 43.5q16 10 29 10q7 0 14 -1t15 -2q22 -3 33.5 -8.5t19.5 -16.5q25 -25 25 -58q-4 -24 -31 -55t-65 -50q-18 -6 -41 -6q-31 0 -50 13q-9 3 -14 3q-9 0 -13.5 -12t-8.5 -44
q-1 -7 -1 -20q0 -51 34 -56q23 -5 33 -5q12 0 27 8l19 11q6 3 11 8l9 9q2 2 6 6.5t7.5 6t6.5 1.5q4 0 9 -4.5t8 -6.5q9 0 4 -12.5t-21.5 -29t-37.5 -29.5q-25 -22 -60 -22zM309.5 272q17.5 18 17.5 30t-9 20t-25 8q-12 0 -18 -2q-14 -4 -33 -21.5t-33 -35.5t-11 -21
q5 -9 39 -9q23 0 38 6q17 7 34.5 25z" />
    <glyph glyph-name="uni0436" unicode="&#x436;" horiz-adv-x="546" 
d="M557.5 257.5q-36.5 -31.5 -52.5 -46.5l-74 -60q0 -11 2.5 -17.5t8 -15t7.5 -12.5q16 -28 44 -54t33 -31q3 -6 3 -9q0 -5 -4 -7t-10 -3.5t-9 -2.5q-16 2 -39.5 20t-43 40t-24.5 36q-15 19 -21.5 31t-14.5 36q-11 -12 -20 -33q-4 -14 -13 -35q-13 -31 -10 -31l1 -10
q0 -8 -2.5 -12.5t-11.5 -13.5l-27 -1q-17 11 -22 23t-5 27q4 8 17 34.5t19 52.5q-6 0 -29 -5q-10 -10 -18.5 -18t-16.5 -15q-37 -32 -62 -57q-42 -38 -61 -66q-6 -8 -18 -8q-7 0 -24 5l-22 34q0 17 15 24q13 10 37 32t46 43q9 8 25 21t25 19q11 11 26 22q22 18 30 26l-15 26
q-3 4 -11.5 19.5t-18.5 26.5q-5 7 -27 46q-2 4 -5.5 9.5t-7.5 12.5q5 15 23 15q12 0 24 -6q24 -22 37 -57q13 -20 21.5 -32.5t13.5 -20.5q8 -11 30 -46q5 26 14 64q6 23 13 58q4 16 4 25l-1 8v3q0 10 3 14q1 4 4 7t8 3q3 0 9 -4q44 -29 37 -58l-13 -54q-17 -80 -19 -82
l10 -2q51 33 73 51q18 14 52.5 46t54.5 53q10 9 13 11t14 4q12 -8 22 -19.5t12 -21.5v-3q0 -8 -5 -13q-17 -14 -53.5 -45.5z" />
    <glyph glyph-name="uni0437" unicode="&#x437;" horiz-adv-x="264" 
d="M310 339q24 -31 24 -61q0 -34 -34 -92q-21 -32 -111 -92l-21 -15q12 -15 25.5 -53t13.5 -63q0 -6 -2 -14q8 -2 26.5 1.5t23.5 3.5q4 -4 11.5 -11t11.5 -12.5t4 -10.5v-3q0 -5 -3.5 -9t-8.5 -5t-17 -1q-13 0 -28 -1t-27 -6q-7 -10 -14 -24.5t-10 -21.5q-14 -33 -30 -59
t-46 -51q-13 -11 -26 -19t-20 -8q-33 -11 -59 -11q-47 0 -81 34q-9 22 -12 26.5t-19 20.5q0 7 4.5 20t11.5 22q43 51 121 78q2 1 8.5 4t12.5 3q3 0 5 3.5t4 5t6 -1.5q3 1 7.5 4.5t10.5 1.5q1 -1 32.5 8.5t43.5 13.5q2 26 2 40q0 44 -17 59q-10 10 -17.5 28.5t-11.5 26.5
q5 18 21 25q32 16 77.5 53t76.5 80q12 17 12 30q0 26 -37 30q-37 0 -97 -50q-8 -2 -10 -2q-16 0 -24 27q2 10 7 17.5t15 18.5l13 17q6 3 17 10.5t18.5 11.5t17.5 4q4 0 12 2.5t13 2.5q47 -2 74 -36zM107 -127q-7 0 -17 -5t-13 -6q-4 -2 -9.5 -4.5t-13.5 -5.5
q-29 -10 -59.5 -26.5t-45.5 -34.5q-10 -14 -24 -24q12 -15 25 -15q0 -2 10 -2q16 0 38 5t38 14q30 18 61 64q13 20 18 37q-3 3 -8 3z" />
    <glyph glyph-name="uni0438" unicode="&#x438;" horiz-adv-x="370" 
d="M303 70q-2 6 -2 21v21q-6 -15 -22 -27q-23 -23 -46 -34q-35 -23 -57 -23q-20 0 -38 22q-13 11 -19.5 22t-6.5 27q0 11 3 24q2 37 10.5 71t32.5 87q32 63 46 84q5 2 13 2q10 0 16.5 -6t7.5 -16q3 -4 3 -11q0 -25 -30 -82q-39 -94 -39 -130q0 -21 12 -25q5 -3 11 -3
q25 0 60 34t67 109q14 34 17 70q-1 3 -1 9q0 18 18 29q4 6 11 9.5t9 -0.5l16 1q3 1 6 -5.5t6 -8.5q7 -6 7 -22q0 -33 -29 -101q-19 -40 -25.5 -61.5t-7.5 -41.5q0 -38 29 -63q10 -7 12 -15t1 -22q-2 -9 -11.5 -14.5t-20.5 -5.5q-13 0 -23 7q-24 23 -36 68z" />
    <glyph glyph-name="uni0439" unicode="&#x439;" horiz-adv-x="423" 
d="M316.5 5q-11.5 7 -22.5 21q-8 13 -9.5 27t-1.5 58q0 10 -4 10q-3 0 -14 -9.5t-27 -25.5q-26 -25 -48 -39t-36 -13q-11 0 -23.5 15t-19.5 35q-3 12 -3 28q0 42 17.5 102t41 103.5t41.5 43.5q15 0 28 -33q3 -6 3 -10q0 -7 -8 -14q-15 -19 -35 -68t-31.5 -91t-4.5 -42
q14 0 33 11t38 29q19 19 34 40.5t37 58.5q42 67 46 78q15 28 21.5 36.5t16.5 11.5h14q6 -1 14 -9q7 -3 8.5 -6.5t1.5 -9.5l-16 -37l-9 -21q-1 -4 -11 -23q-23 -51 -35 -82t-18 -64q-1 -5 -1 -17q0 -30 6 -42q9 -18 18 -26q5 -4 5 -8q0 -7 -11.5 -14t-16.5 -7q-7 -4 -18.5 3z
M248 530q-2 8 -2 11q0 7 4 15q2 4 8 6t10 1q14 -4 20.5 -11.5t8.5 -19.5q3 -7 3 -14q8 -25 22 -25q3 0 15 4q42 17 63 38l42 39l1 1q4 2 7 2q7 0 10 -3q5 -6 6 -11t1 -10v-8l-1 -2q2 -6 -10 -23.5t-27 -28.5q-19 -15 -63 -37q-7 -4 -16 -5.5t-25 -1.5q-55 0 -77 83z" />
    <glyph glyph-name="uni043A" unicode="&#x43a;" horiz-adv-x="370" 
d="M247 380.5q4 -1.5 6 -4.5q10 -10 10 -23q0 -7 -5 -17q-7 -13 -15 -25q-13 -22 -21.5 -40t-19.5 -51q26 6 34 10.5t27 25.5q18 18 34 32q61 59 65 64q8 12 14 18.5t16 9.5q14 -2 19.5 -5t24.5 -18q4 -4 4 -14q0 -19 -11 -27q-3 -2 -39 -31q-73 -61 -124 -96q22 -35 43 -78
q2 -24 17 -33t42 -9q8 -4 10.5 -10t3 -13t1.5 -11q-9 -6 -18 -14.5t-15 -8.5q-7 0 -22 6q-14 5 -26 14.5t-25 24.5q-12 14 -47 71t-39 64q-3 -8 -7.5 -17.5t-6.5 -17t-2 -19.5q-10 -14 -15.5 -35.5t-8.5 -30.5q-6 -22 -26 -36q-18 1 -35 22q-5 9 -5 20t5 24q2 9 14 42t19 53
q5 13 16.5 44.5t12.5 37.5q3 13 18 37q20 35 25 58q2 7 10.5 13.5t17.5 6.5q11 0 18 -11q2 -1 6 -2.5z" />
    <glyph glyph-name="uni043B" unicode="&#x43b;" horiz-adv-x="391" 
d="M114.5 3.5q-15.5 0.5 -20.5 0.5q-6 2 -16.5 13.5t-14.5 15.5q0 7 4.5 11t6.5 6q3 4 13.5 6t13.5 5q4 3 20 14t28.5 22.5t20.5 23.5q26 37 55 88q9 17 23.5 46.5t16.5 38.5l-31 10q-2 2 -6 8t-4.5 10t-0.5 9q0 12 2.5 17t10.5 6q31 6 51 9q30 4 45 8q12 3 27 3q26 0 47 -9
q15 -6 26 -24q14 -19 14 -38q0 -7 -1 -13.5t-1 -13.5q0 -9 3 -18q-13 -48 -28 -88q-3 -8 -9 -27t-9 -33q-3 -15 -9 -28q-8 -23 -10 -37q-2 -11 -8.5 -16.5t-14 -9t-9.5 -4.5q-4 -2 -14 2t-17 11q-2 6 -2 16q0 8 4 22q18 58 49 168l11 38q3 9 3 21q0 9 -3 18q-16 6 -25 6
q-5 0 -11 -2t-11 -3q-10 -7 -12 -19q-19 -50 -39 -88t-31 -62q-4 -10 -23 -38q-12 -18 -17 -27l-11 -14q-5 -5 -17 -16t-17 -16l-31 -24q-6 -5 -21.5 -4.5z" />
    <glyph glyph-name="uni043C" unicode="&#x43c;" horiz-adv-x="522" 
d="M353 115.5q-11 -14.5 -16 -29.5q-3 -8 -9.5 -13.5t-7.5 -6.5q-5 2 -11.5 4t-10.5 5.5t-10 9.5q-20 19 -16 36q-1 10 -0.5 20t0.5 18q1 12 1 36q0 46 -5 57q-11 -1 -15 -3t-10 -12q-2 -4 -11.5 -18.5t-24.5 -35.5q-15 -23 -38.5 -59t-22.5 -35q-12 -14 -20 -36
q-11 -25 -22 -14q-21 11 -31 19q-9 16 -10 32q3 1 7 3.5t6 4.5t3 5l76 111l13 19q5 10 27 38q2 5 19.5 27t23.5 25q5 3 8.5 10.5t4.5 9.5q3 16 21 16q6 0 9 -1l39 -30q-1 -4 -1 -13q0 -14 8 -42q-1 -3 -1 -9q0 -8 1.5 -15.5t1.5 -15.5q0 -6 -1 -9q0 -19 10 -19q7 0 17 10
q28 35 106 113q29 29 31 32q3 5 10 5q5 0 8 -2q14 -7 21.5 -12t18.5 -16q6 -7 6 -15q0 -5 -3 -10q-9 -21 -24 -82.5t-16 -86.5q0 -7 -1.5 -21.5t-1.5 -25.5q0 -22 4 -39q5 -19 5 -32q0 -10 -4.5 -14t-16.5 -6q-6 3 -15 10.5t-17 12.5q-2 8 -7.5 25.5t-4.5 31.5
q0 5 -2.5 16.5t0.5 17.5l-1 12q0 36 17 112q-3 4 -5.5 5t-6.5 -3q-13 -12 -38 -41q-2 -2 -8 -6.5t-6 -11.5l-36 -48q-4 -6 -15 -20.5z" />
    <glyph glyph-name="uni043D" unicode="&#x43d;" horiz-adv-x="387" 
d="M414 361q14 0 24.5 -8.5t10.5 -21.5q0 -2 -2 -10q3 13 -21 -43t-26 -60v-3q14 0 18.5 -8.5t3.5 -22.5q-9 -2 -17 -7t-13 -5q-3 0 -7 -3t-5 -7q-2 -4 -7 -31l-18 -72q-2 -7 -7 -12t-9 -6q-4 1 -15.5 5.5t-15.5 7t-8 5.5v6q0 14 5 29q8 24 16 67q-8 3 -40 -2.5t-35 -5.5
q-6 -3 -24 -3q-29 0 -41 5l-6 -3q-2 -9 -6 -20q-11 -31 -11 -46q-2 -14 -4 -23q-2 -10 -4 -30q-1 -28 -19 -28q-11 0 -24 8q-7 4 -19 16l16 77q3 9 6.5 25t7.5 26l11 31q12 35 22 57l21 59q3 7 13.5 38.5t12.5 36.5q4 11 16 11q16 1 27.5 -7.5t12.5 -20.5q0 -3 -1 -9.5
t-2 -9.5l-52 -127v-8q4 -3 14 -3q8 0 24.5 3t20.5 3q9 1 27 2t36 1q14 0 15 -1l11 32q16 49 34 79q1 3 4 11.5t7 19.5q11 6 22 6z" />
    <glyph glyph-name="uni043E" unicode="&#x43e;" horiz-adv-x="353" 
d="M150 19q-7 4 -20 15q-33 35 -33 64q0 7 1 10q3 7 2.5 14t-0.5 9q-4 4 -4 5.5t2 3t3 3.5q6 0 4 11q-2 8 8 35.5t25 50.5q11 18 32.5 45t38.5 41q24 21 43 31t42 15q20 5 27 5t12.5 -3.5t14.5 -12.5q27 -12 37.5 -30.5t10.5 -57.5q0 -65 -53 -141q-23 -33 -43 -50.5
t-53 -37.5q-21 -15 -38.5 -21.5t-39.5 -7.5q-12 0 -19 4zM303.5 172q14.5 24 27.5 61q5 17 5 41q0 30 -8 34q-10 5 -20 5q-22 0 -46 -20q-29 -25 -52 -61.5t-47 -90.5q-10 -21 -10 -41q0 -15 7.5 -24t20.5 -9q33 0 84 54q24 27 38.5 51z" />
    <glyph glyph-name="uni043F" unicode="&#x43f;" horiz-adv-x="376" 
d="M345 376q18 -4 27 -4q35 -14 52 -28.5t15 -40.5q-2 -10 -3.5 -29t-9.5 -32q-1 -7 -8 -25t-9 -24q-21 -51 -25 -71q-1 -4 -5.5 -13t-4.5 -15q1 -10 -3.5 -25t-10.5 -22q-8 -8 -18 -8q-14 0 -24.5 10.5t-9.5 23.5q0 24 6 60q7 7 8 15.5t2 11.5q15 35 28.5 80t13.5 69
q0 7 -1 10q-24 0 -66 -3t-47 -3q-4 -1 -7 -4.5t-3 -6.5q-2 -13 -8 -28l-8 -20q-12 -27 -17 -49q-1 -10 -17 -45q-26 -63 -27 -82q-9 -13 -10 -39q-1 -8 -7 -11t-22 -6q-7 1 -13 6t-11 11t-11 12q0 16 13 59t23 61q5 27 19 60q3 8 13 37q12 43 22 73q4 9 5.5 17t4 11t13.5 9
q13 -5 22 -5q8 0 16 5q3 1 8.5 0.5t12.5 -0.5h23q24 0 31 1q10 1 28 -3z" />
    <glyph glyph-name="uni0440" unicode="&#x440;" horiz-adv-x="378" 
d="M53 -225q-8 0 -13 9q-5 7 -5 17q0 7 5 34q11 42 11 58q0 5 2 14.5t3 17.5q4 7 7.5 21.5t3.5 25.5q0 5 3.5 11.5t8.5 10.5q0 6 3 18.5t4 17.5q5 27 39 128t58 163q11 25 16 46t5 33q0 4 2.5 7.5t8.5 9.5q7 7 13 7q5 0 11 -4t12 -9q6 -9 9.5 -17t3.5 -17q0 -3 -2 -19
q0 -21 -9 -34.5t-7 -12.5q45 21 80 21q42 0 65.5 -27t23.5 -70q0 -18 -10.5 -43.5t-20.5 -34.5q-6 0 -16 -21q-13 -16 -43 -33.5t-42 -13.5q-1 0 -3 -1t-2 -5t-34 -15t-56 -11q-12 0 -18 1.5t-12 6.5q-7 -7 -7 -13q0 -11 -10 -40t-16 -29q-1 -1 -2.5 -4t2.5 -7q0 -3 -1 -14
t-5 -17q0 -9 -3 -24.5t-7 -23.5q0 -12 -3.5 -23.5t-7.5 -11.5q-6 -2 -6 -29q-1 -25 -10 -39t-21 -14zM242.5 125.5q45.5 15.5 63.5 30.5q21 18 34 38.5t13 41.5q0 16 -9 29q-7 11 -24 11q-20 0 -47.5 -14t-50.5 -37q-18 -18 -32 -51.5t-14 -52.5q0 -11 6 -11q15 0 60.5 15.5
z" />
    <glyph glyph-name="uni0441" unicode="&#x441;" horiz-adv-x="355" 
d="M188 9q-37 0 -61 23t-24 64q-4 44 19.5 109t59.5 109q25 29 43 47t33 24q21 9 47 9q18 -4 35.5 -15t17.5 -22l5 -5q6 0 11 -14.5t5 -31.5q0 -14 -5 -24q-4 -19 -13.5 -33t-18.5 -14q-11 0 -11 -6q0 -4 -4 -4q-5 0 -12 6t-10 14q0 3 4 17t8 31q3 12 3 21q0 20 -15 20
q-8 0 -16 -4q-40 -22 -71 -70t-52 -132q-5 -22 -5 -35q0 -10 1.5 -16t3.5 -7q5 -2 21 -2q37 0 52 9q32 17 71 46q4 3 12 10.5t15 10.5q7 11 13 13.5t19 2.5q13 -4 21 -10.5t0 -10.5q-3 0 -4 -2t-1 -3q2 -5 -16 -25t-40 -37.5t-30 -17.5q-4 0 -7 -1t-3 -5t-30.5 -18.5
t-49.5 -18.5q-14 -2 -21 -2z" />
    <glyph glyph-name="uni0442" unicode="&#x442;" horiz-adv-x="509" 
d="M563 78q0 -7 -4.5 -13.5t-8.5 -6.5q-19 0 -36.5 10.5t-17.5 33.5v62q0 47 -7 53q-15 8 -51.5 -33t-70.5 -97q-11 -18 -18 -28t-11 -10q-3 0 -10 5q-31 9 -31 35q0 3 2 13q10 33 20 73.5t16 68.5q-3 6 -10 6q-10 0 -23 -10q-25 -17 -64 -81q-49 -75 -68 -91
q-7 -12 -12.5 -18.5t-10.5 -6.5q-4 0 -15 6q-29 17 -29 48q0 15 9 60t20 84q9 17 16.5 35.5t7.5 22.5q4 21 10 45t9 27q7 7 16 7q15 0 22 -16q11 -11 11 -28q0 -19 -11 -49q-17 -37 -37 -108q21 23 30 36q24 34 62 76q31 34 70 34q46 -8 53 -77q0 -12 -2 -29.5t-3 -22.5
q4 6 20.5 26t40.5 41q22 17 41 17q16 0 28 -13q21 -12 30 -33.5t9 -54.5q0 -17 -1 -27q-2 -20 -2 -25q0 -19 7 -38q4 -3 4 -9z" />
    <glyph glyph-name="uni0443" unicode="&#x443;" horiz-adv-x="341" 
d="M408 336q0 -18 -24 -63q-8 -23 -17.5 -43t-14.5 -26l-23 -53q-15 -33 -37 -77q-27 -56 -38 -83l-13 -21q-50 -80 -77 -112q-55 -49 -85 -57q-13 -4 -31 -4q-33 0 -62.5 14.5t-33.5 33.5q-1 7 5 15t13 8q5 0 8 -4q8 -6 23.5 -11.5t33.5 -5.5q7 0 19 2q20 4 42 24t40 44
q34 50 73 125q-14 4 -27 19.5t-20.5 32.5t-5.5 25v11q-9 0 -14.5 34t-5.5 79q0 17 2 43q4 16 4.5 39.5t0.5 30.5v4q0 12 2.5 17t8.5 9q8 4 16 4q28 0 28 -74q0 -11 -2 -43q-1 -14 -1 -42q0 -52 9 -92t27 -55l6 14q11 29 17 37q14 29 16 37q2 7 11 23l13 27q2 6 13 38.5
t22 52.5q4 8 12 23.5t13 22.5t11 9q8 7 13 7q4 0 14 -6q16 -16 16 -33z" />
    <glyph glyph-name="uni0444" unicode="&#x444;" horiz-adv-x="543" 
d="M600 240q0 -29 -14 -55t-45 -73l-61 -52q4 1 -34 -7q-29 -8 -45 -8q-19 0 -35 12.5t-38 45.5l-9 -3q-5 -11 -13 -35l-47 -143q-11 -29 -16 -51t-14 -72q-1 -11 -3 -20t-7 -15q-3 0 -8.5 -0.5t-12.5 0.5q-14 1 -22 11t-8 24q0 15 8 24q-1 8 -1 18q0 9 1 14q7 14 10 23
l12 34q45 121 52 168l-38 -31q-3 -3 -15 -14t-19 -15q-6 -1 -26 -10q-10 -7 -23 -11q-10 2 -21 8.5t-17 15.5q-7 15 -7 40q0 29 8 56q18 55 27 78t27 51q4 6 14.5 22.5t22.5 28.5q10 9 19 16.5t16 14.5q39 13 53 13q13 0 23.5 -6t25.5 -21q1 -4 1 -33l1 -33q6 -2 8 13.5
t3 19.5q15 48 22 61q16 34 34 85q3 13 15 25q26 -7 38 -25q0 -30 -5.5 -45t-15.5 -31q-11 -16 -14 -32q0 -3 -13 -31t-15 -33l72 44q5 2 18 10q15 8 25 12t22 4q9 0 14 -1q14 -2 34 -17t28 -32q8 -16 8 -37zM280 259q0 33 -5 39q-23 -12 -28 -16.5t-33 -34.5
q-15 -18 -25 -39q-8 -20 -30 -63q-8 -16 -13.5 -28t-5.5 -20q0 -7 6 -13q12 -1 31 12t54 41l28 22q9 7 12 15t3 19.5t2 15.5q4 14 4 50zM536.5 230q4.5 16 4.5 28q0 14 -10 14q-25 -7 -41 -15t-38 -25l-58 -43q-21 -21 -40 -17q-8 -4 -11.5 -9.5t-6.5 -15.5q6 -4 8.5 -4h4.5
q10 -22 20.5 -31t32.5 -9q27 0 50 14t35 28q12 8 27.5 33t16.5 32q1 4 5.5 20zM259 -78z" />
    <glyph glyph-name="uni0445" unicode="&#x445;" horiz-adv-x="343" 
d="M370 9q-6 0 -14.5 3t-17.5 7q-21 9 -61 44t-40 47q0 3 -1 4t-4 1q-1 1 -3.5 4t-2.5 7t-3 7t-7 3q-5 -4 -21 -17.5t-33 -30.5q-32 -32 -44 -42.5t-19 -10.5q-12 0 -27.5 12.5t-15.5 24.5q5 7 25.5 28.5t43.5 41.5l64 63l-11 38q-18 39 -26 63q-6 8 -9.5 13.5t-3.5 9.5
t8 15q11 11 17 11q5 0 14 -6q8 0 25.5 -33.5t17.5 -46.5t9 -13q10 0 39 19q11 10 17.5 17t8.5 9q12 9 37.5 27t32.5 21q5 3 8 3q12 0 23 -13t11 -27q0 -12 -6 -19t-26 -18q-5 -4 -31 -23t-65 -52l-26 -21l16 -27q16 -32 26 -37q8 -11 39.5 -35t35.5 -24q3 0 9.5 -4t11.5 -6
q12 -12 12 -27q0 -16 -12 -16q-16 0 -21 6z" />
    <glyph glyph-name="uni0446" unicode="&#x446;" horiz-adv-x="407" 
d="M237 353q4 -4 4 -13q0 -12 -8 -39q-5 -15 -30 -74l-17 -40q-8 -21 -15 -40t-12 -34l-13 -38q-1 -2 -1 -5q0 -9 11 -15q11 -4 26 -4q20 0 42.5 6.5t39 14.5t16.5 11q1 7 5 21t10.5 32t10.5 29l13 37l28 80q0 25 10.5 46t25.5 27h7q14 0 20 -6q2 -2 8.5 -7.5t10 -12
t4.5 -14.5q-3 -4 -6.5 -16t-7.5 -18q-14 -22 -13 -35q1 2 -14 -36q-15 -35 -12 -29l-29 -77l33 4h13.5t20 -2.5t18.5 -8.5q4 0 8.5 -15.5t6.5 -22.5q-8 -33 -57 -124q-5 -9 -19 -27q-10 -17 -24 -17q-13 0 -26 19q0 14 13 57q2 6 17.5 36.5t15.5 39.5v2q0 4 -2.5 6t-6.5 1
q-2 0 -10 -3.5t-13 -5.5q-30 -14 -38 -14q-23 -11 -58 -22l-21 -7q-50 -1 -72 2.5t-36 13.5q-31 22 -31 65l1 11q1 11 9.5 33.5t13.5 33.5q29 56 40 97l7 21q16 43 17 53q5 31 32 40q14 -3 34 -17z" />
    <glyph glyph-name="uni0447" unicode="&#x447;" horiz-adv-x="320" 
d="M287 98q-1 -6 -1 -15q0 -8 2 -11q5 0 8.5 1t7.5 1q6 0 8 -5q5 -17 5 -21q0 -10 -14 -25q-11 -11 -21 -11q-5 0 -13 3q-23 10 -31 24q-9 13 -9 40q0 19 1 30q1 6 11.5 39t15.5 46q-9 -2 -16.5 -7t-14.5 -10q-10 -10 -27 -20t-31 -15q-4 -2 -9 -2q-11 0 -24.5 7.5
t-19.5 19.5q-5 12 -7 27q-1 5 -1 15q0 25 12 49l25 51q9 17 25 51q3 6 9 15t8 16q1 4 6.5 9.5t10.5 5.5q26 -2 37 -19q6 -7 6 -15q0 -10 -8 -19q-31 -42 -64 -113q-9 -16 -9 -32q0 -5 1 -8q16 0 46 22t77 61l24 20q23 19 40 46q9 17 31 18q15 -7 19 -9q4 -8 8.5 -16.5
t4.5 -13.5q0 -9 -14 -24q-7 -1 -27.5 -30.5t-31.5 -50.5q-3 -5 -7.5 -10.5t-8.5 -12.5l-38 -92q-1 -4 -2 -10z" />
    <glyph glyph-name="uni0448" unicode="&#x448;" horiz-adv-x="589" 
d="M515 264q4 8 6 11q9 16 15.5 23.5t14.5 4.5q31 -11 41 -42q0 -9 -11 -42q-2 -9 -7.5 -27.5t-7.5 -31.5q-4 -24 -4 -36q0 -16 5 -34q5 -3 12 -3q5 0 14.5 2t16.5 2q7 -10 7 -25q0 -7 -3 -22q-21 -12 -38 -11q-14 2 -20 6t-13 12.5t-13 13.5q-25 22 -29 81q-7 2 -35 -33
q-36 -43 -57 -61q-20 -18 -43 -18q-8 0 -13 1q-5 3 -22 20q-8 13 -19 20q-11 30 -13 40q-3 11 -3 20t4 16q-4 1 -10 -5t-12 -15q-2 -3 -10.5 -14t-18.5 -18q-13 -10 -41 -38q-25 -25 -35 -33h-32q-6 5 -20 16.5t-21 25t-9 35.5q-3 31 11 65l24 54l15 32q32 78 57 78
q12 -1 19 -7t14 -16t12 -16q-4 -19 -19 -37q-24 -23 -36 -62l-10 -22q-12 -24 -17 -37q-14 -25 -14 -36q0 -7 6 -7q17 0 58 43l16 16q19 19 31 35q6 6 24 32q23 33 33 44q18 23 24 42q4 18 25 15q14 -8 22 -15.5t15 -22.5q4 -9 -2.5 -27t-20.5 -46q-8 -15 -12.5 -33
t-5.5 -23l-5 -20l-1 -7q0 -9 7 -25q14 5 22.5 11.5t14.5 13.5t8 9q15 19 31 29q2 6 7 11.5t7 7.5q13 11 16 21l39 46q5 5 9 13z" />
    <glyph glyph-name="uni0449" unicode="&#x449;" horiz-adv-x="510" 
d="M529 259q-9 -19 -10 -24q-8 -32 -35 -102q4 -9 23 -13q10 -2 16 -5.5t7 -10.5q0 -6 4 -11t6 -9q1 -6 1 -17q0 -18 -7 -46q-4 -16 -4 -21q1 -10 -4.5 -21.5t-7.5 -15.5q-14 -30 -31 -41.5t-45 -11.5q-19 10 -15 30q15 15 29.5 49t14.5 57q0 10 -2 13q-19 -8 -69.5 -19.5
t-61.5 -9.5q-5 -2 -21.5 -7t-27.5 -6q-18 -5 -63 -5q-13 0 -51 2q-17 0 -31.5 16t-33.5 45q-1 7 -1.5 17t-2.5 16q-3 8 13 72.5t25 84.5q5 9 7.5 16t4.5 11q5 15 11 27q6 11 11.5 25t7.5 20q3 1 9 4.5t10 2.5q26 -4 34.5 -15t8.5 -36q-50 -74 -64 -155q-5 -11 -10.5 -35.5
t-6.5 -37.5q29 -25 52 -25q15 0 37 11q5 28 18 58t17 39q3 8 6.5 22.5t6.5 20.5q7 14 12 33t4 30q-3 13 4 19.5t20 6.5q11 0 22.5 -5t18.5 -13q3 -12 3 -24q0 -17 -9 -35q-8 -25 -24.5 -70t-25.5 -68q5 -5 42 4l22 5q5 1 19 35t28 73t13 39q2 8 10 33.5t13 38.5q8 18 23 19
q7 0 10.5 -0.5t7 -2.5t8.5 -4q9 -4 15 -13.5t6 -18.5q0 -7 -2 -10q-6 -12 -15 -31z" />
    <glyph glyph-name="uni044A" unicode="&#x44a;" horiz-adv-x="320" 
d="M154 225q72 109 72 124q-18 6 -21 6q-5 0 -10 -1.5t-12 -3.5q-14 -5 -29 -13.5t-29 -17.5q-24 6 -30 39q1 8 10 14t28 15q4 1 21.5 8.5t31.5 6.5q17 5 33 5q20 0 37.5 -7t28.5 -21v-20.5t-2.5 -23t-10.5 -24.5q-14 -26 -22 -38l-14 -24l26 2q4 1 12 1q34 0 53.5 -22.5
t19.5 -56.5q0 -39 -25 -77q-4 -5 -12 -18t-17 -21q-45 -37 -67.5 -51t-53.5 -14q-16 2 -27.5 8t-29.5 18q-3 3 -10 22.5t-7 36.5q0 5 2 12t2 12l11 46q8 22 41 78zM195 183q-25 -44 -26 -48q-8 -20 -13 -46t-3 -43q5 -1 13 -2t14 1q24 8 43 22.5t41 42.5q24 24 24 62
q0 15 -5 30q-3 9 -9 12t-14 1l-55 -14z" />
    <glyph glyph-name="uni044B" unicode="&#x44b;" horiz-adv-x="528" 
d="M251.5 369.5q8.5 -5.5 20.5 -24.5q-1 -8 -42 -107q-28 -65 -28 -70q0 -1 12 14t33 32q22 22 64 42q13 5 23 6.5t13 2.5q23 0 38.5 -11.5t22.5 -27.5t7 -28q5 -22 5 -38q0 -11 -3 -23q-8 -19 -22 -40.5t-32 -33.5q-14 -14 -40 -29t-47 -21q-32 -9 -46 -9q-17 0 -32 14
q-3 3 -5.5 9.5t-5.5 7.5v4q0 11 14 16q10 -6 25 -6q24 0 51.5 14.5t42.5 36.5q41 49 43 84q0 9 -2 13.5t-11 15.5q-37 -12 -56 -31q-45 -38 -61.5 -56.5t-41.5 -59.5q-16 -20 -28 -20l1 -6q0 -15 -15 -18q-22 5 -30.5 11.5t-8.5 22.5q0 8 1 13q2 6 3 11.5t2 10.5
q2 7 5.5 21.5t6.5 22.5q18 47 20 55q20 55 32.5 85t22.5 45l22 57q18 -2 26.5 -7.5zM549 368q15 0 38 -23q5 -13 5 -22q0 -7 -5 -19q-8 -17 -33 -89q-2 -13 -19 -61q-17 -49 -22 -69q-9 -23 -15 -64v-4q0 -13 -14 -20q-36 5 -46 40q0 15 5 33t7 27q5 20 19 60q9 25 11 32
q9 20 18 53q6 21 20 61q5 17 11 55q9 10 20 10z" />
    <glyph glyph-name="uni044C" unicode="&#x44c;" horiz-adv-x="354" 
d="M271 401.5q11 -3.5 18 -10.5q3 -5 10.5 -12t10.5 -17q0 -10 -8.5 -20.5t-10.5 -13.5q-11 -13 -17 -23t-10 -15q-7 -9 -15 -22q16 -7 22 -7q12 1 26 -5.5t23 -8.5q16 -6 37.5 -28.5t26.5 -36.5q11 -22 11 -35q0 -5 -1 -8q-3 -9 -3 -19q-4 -6 -13.5 -19.5t-18.5 -22.5
t-23 -17q-69 -41 -131 -38q-4 0 -9.5 -2t-9.5 1q-18 0 -32.5 9.5t-27.5 26.5q-10 14 -10 34q0 27 13 67.5t27 67.5q1 9 8.5 22t9.5 19q4 13 25.5 50.5t33.5 50.5q1 12 10 22.5t12 15.5q5 -2 16 -5.5zM230 214q-7 -2 -10.5 -6.5t-3.5 -12.5q0 -2 -5 -7q-4 -4 -22 -61l-8 -26
q-1 -2 -1 -5l1 -14l11 -1q12 0 28 4t25 6q26 4 55 26t36 45q2 6 2 10q0 15 -10 22q-3 2 -11.5 8t-16.5 9t-16 3h-2q-2 0 -11 3q-5 2 -16 2q-10 0 -15 -2q-3 -1 -10 -3z" />
    <glyph glyph-name="uni044D" unicode="&#x44d;" horiz-adv-x="308" 
d="M233 376q24 0 49 -10q11 -3 27 -16.5t20 -24.5q16 -13 28 -72q-11 -76 -32 -121q-11 -25 -20 -37t-26 -29l-49 -31q-30 -19 -41 -24t-31 -5q-14 -6 -32 -5.5t-24 0.5q-29 -1 -43.5 12.5t-11.5 37.5q9 9 19 9q6 0 15 -3q11 -4 23 -4t21 4q4 2 12.5 2.5t12.5 1.5
q27 10 59.5 28t50.5 39q2 2 6 12.5t3 14.5q-9 0 -29.5 -3t-33.5 -6q-4 -1 -11 -1q-15 0 -24 8t-16 25q-1 2 -1 5q0 5 5 11.5t8 12.5q5 1 13 1q9 0 13 -3q4 -2 5 -2q3 0 7.5 2.5t8.5 0.5t7 -2.5t14.5 1t37.5 3.5q13 0 16 9q4 11 4 27q0 6 -2 34q-5 15 -9.5 20.5t-14.5 12.5
q-7 1 -19 1q-41 0 -54 -18q-19 -14 -38 -14q-12 0 -13 7q0 2 -2.5 14t-2.5 21q0 11 5 11q7 8 13.5 18t14 14.5t21.5 5.5q25 5 41 5z" />
    <glyph glyph-name="uni044E" unicode="&#x44e;" horiz-adv-x="521" 
d="M544.5 281.5q3.5 -7.5 6.5 -14.5q0 -3 -2.5 -10t-0.5 -12q5 -9 5 -21q0 -5 -1 -14.5t0 -15.5q2 -7 -6 -28t-10 -28q-2 -9 -6.5 -17t-6.5 -11q-10 -16 -13 -25q-1 -2 -4.5 -4t-5.5 -3q-23 -26 -47 -41q-24 -17 -39.5 -20t-53.5 -3q-19 10 -25.5 14.5t-9.5 10.5
q-9 12 -14 17q0 13 -10 27q1 3 1 7q0 7 -1.5 12.5t-1.5 11.5v57q-8 2 -10 2q-4 0 -9 -3t-9 -2q-14 -7 -31.5 -11t-21.5 -5q-10 -3 -20 -8t-13 -9q-10 -10 -12 -27q0 -6 -9 -31q-10 -38 -10 -37q0 -6 -4.5 -17.5t-8.5 -13.5q-10 -7 -18 -7q-3 0 -9 2q-21 20 -26 35q4 6 4 17
v25q0 8 0.5 20t-0.5 28q-3 30 23 46q12 7 18.5 16t10.5 24l16 67l-2 -10q0 -5 14 61v3q0 4 2 13t2 14q0 21 22 26q21 -7 25.5 -9.5t19.5 -19.5q0 -6 -2 -17.5t-5 -19.5q-4 -13 -16 -55q-2 -14 -8 -32q0 -2 -2.5 -8.5t-0.5 -13.5l77 12h2q4 0 10.5 -2.5t11.5 -3.5l14 28
q34 64 47 82q16 23 38 37q18 18 49 18l36 -34q20 2 26 2q14 0 24 -4.5t18 -14.5q2 -3 2.5 -7.5t-1.5 -6.5l-26 -23q4 -8 7.5 -15.5zM435 308q-14 -15 -24 -28t-20 -34q-2 -5 -5 -11l-6 -12q-13 -25 -19 -44.5t-4 -45.5q0 -19 3 -31.5t4 -18.5q1 -9 17 -9q9 0 16 3
q18 8 36 25t42 52q16 31 18.5 43t2.5 48q-1 21 -8.5 36t-17.5 28.5t-15 20.5q-6 -8 -20 -22z" />
    <glyph glyph-name="uni044F" unicode="&#x44f;" horiz-adv-x="363" 
d="M334.5 198.5q13.5 -1.5 18.5 -2.5q12 -3 23 -12t15 -12v-4q0 -6 -4 -13q-12 -24 -19 -36q-5 -9 -12 -22.5t-15 -31.5q-3 -6 -7 -24q-7 -22 -8 -25q-11 -11 -14 -11q-1 0 -4 1.5t-9 1.5q-14 3 -19 15q-1 4 -4.5 10.5t-3.5 11.5q0 11 10 27q5 10 13 30q4 11 14 33q2 2 3 5
t1 6h-7l-30 5q-3 -2 -11 -7.5t-12 -16.5q-4 -4 -19 -24q-10 -16 -24 -30q-33 -35 -53 -52q-22 -16 -41 -16q-23 0 -34 13q-9 14 -15 31q2 7 7 13.5t12 6.5q4 0 9 -3q2 0 4 -2t5 -4q33 15 55.5 39t50.5 67q-17 5 -33.5 16t-23.5 23q-9 15 -13 37t-5 25q4 9 12 37q4 16 9 28
t17 28q15 20 42 37.5t38 17.5q8 -3 21.5 0.5t19.5 1.5q4 -1 7 -0.5t6 -0.5q30 -6 47 -15.5t22 -31.5q-2 -7 -6 -24.5t-9 -31.5t-12 -26l-12 -25q-18 -36 -31 -53l2 -6q13 -3 26.5 -4.5zM191 282q-3 -13 -3 -25q0 -20 9 -33.5t25 -13.5q7 0 14 3q9 2 34 37t28 44q4 9 14 36
t15 41q-13 9 -23 9q-3 0 -17 -4q-75 -22 -96 -94z" />
    <glyph glyph-name="uni0450" unicode="&#x450;" horiz-adv-x="325" 
d="M216 13q-25 0 -47.5 12t-37.5 33q-13 16 -19 36t-6 49q0 10 2 40q3 37 24.5 77t53.5 71.5t63 43.5q16 10 29 10q7 0 14 -1t15 -2q22 -3 33.5 -8.5t19.5 -16.5q25 -25 25 -58q-4 -24 -31 -55t-65 -50q-18 -6 -41 -6q-31 0 -50 13q-9 3 -14 3q-9 0 -13.5 -12t-8.5 -44
q-1 -7 -1 -20q0 -51 34 -56q23 -5 33 -5q12 0 27 8l19 11q6 3 11 8l9 9q2 2 6 6.5t7.5 6t6.5 1.5q4 0 9 -4.5t8 -6.5q9 0 4 -12.5t-21.5 -29t-37.5 -29.5q-25 -22 -60 -22zM309.5 272q17.5 18 17.5 30t-9 20t-25 8q-12 0 -18 -2q-14 -4 -33 -21.5t-33 -35.5t-11 -21
q5 -9 39 -9q23 0 38 6q17 7 34.5 25zM334 435q-4 0 -7 5t-7 17q-2 3 -18 29q-18 29 -27.5 46.5t-9.5 30.5q0 8 3 12q20 18 29 18q8 0 13 -6q9 -5 22.5 -30.5t24 -53.5t10.5 -36q1 -5 -5.5 -14.5t-14.5 -11.5q-9 -6 -13 -6z" />
    <glyph glyph-name="uni0451" unicode="&#x451;" horiz-adv-x="325" 
d="M216 13q-25 0 -47.5 12t-37.5 33q-13 16 -19 36t-6 49q0 10 2 40q3 37 24.5 77t53.5 71.5t63 43.5q16 10 29 10q7 0 14 -1t15 -2q22 -3 33.5 -8.5t19.5 -16.5q25 -25 25 -58q-4 -24 -31 -55t-65 -50q-18 -6 -41 -6q-31 0 -50 13q-9 3 -14 3q-9 0 -13.5 -12t-8.5 -44
q-1 -7 -1 -20q0 -51 34 -56q23 -5 33 -5q12 0 27 8l19 11q6 3 11 8l9 9q2 2 6 6.5t7.5 6t6.5 1.5q4 0 9 -4.5t8 -6.5q9 0 4 -12.5t-21.5 -29t-37.5 -29.5q-25 -22 -60 -22zM309.5 272q17.5 18 17.5 30t-9 20t-25 8q-12 0 -18 -2q-14 -4 -33 -21.5t-33 -35.5t-11 -21
q5 -9 39 -9q23 0 38 6q17 7 34.5 25zM250 467q-5 10 -3 15q9 31 20 40l6.5 6.5t7.5 5.5q8 5 14 5q16 0 24 -24q7 -12 7 -19t-4 -14t-13 -19q-17 -23 -31 -23q-8 0 -16 10q-7 7 -12 17zM378 467q-5 10 -3 15q9 31 20 40l6.5 6.5t7.5 5.5q8 5 14 5q16 0 24 -24q7 -12 7 -19
t-4 -14t-13 -19q-17 -23 -31 -23q-8 0 -16 10q-7 7 -12 17z" />
    <glyph glyph-name="uni0452" unicode="&#x452;" horiz-adv-x="415" 
d="M438 282q9 -11 9 -30q0 -6 -2 -28l-17 -107q-6 -42 -39 -142q-9 -27 -24 -57q-2 -4 -10 -22q-14 -31 -26 -48q-2 -2 -20 -23.5t-24 -23.5q-13 -16 -30 -25t-33 -9q-11 0 -19 4q-12 6 -20 19t-8 26q0 7 1 10q1 -1 7 -10t16 -9q9 0 16 6q32 23 58.5 54.5t28.5 48.5
q11 21 20.5 48t12.5 36q5 14 20 66.5t20 73.5q6 30 6 89q-5 8 -12 8q-5 0 -10 -5q-6 -5 -16.5 -12.5t-17.5 -14.5l-92 -102q-11 -16 -18 -21.5t-26 -9.5q-10 -12 -16 -16t-10.5 -5.5l-7.5 -2.5q-22 12 -22 41q0 47 32 141q2 8 5 16t4 15q5 29 16 61t13 39q15 43 24 77l-5 5
l-54 -17q-11 -2 -30 -4q-11 11 -16 16.5t-8 12.5t-1 14q4 20 27 22q21 1 83 22q7 2 12 3.5t9 2.5q11 2 17 16q14 40 31 81q7 12 8 18q1 7 12 18q4 2 7 2q5 0 14.5 -3.5t14.5 -3.5q9 -12 9 -25q0 -8 -5 -20l-10 -30q-8 -20 -16 -44l28 5l25 4q23 0 33 -5t17 -21q1 -1 1 -3
q0 -6 -7 -17q-4 -5 -13.5 -9t-17.5 -4q-4 0 -8 2q-2 2 -10 2q-6 0 -8 -1q-13 -6 -30 -5.5t-22 0.5q-17 -2 -20 -16l-18 -51q-22 -60 -31 -91q-38 -126 -38 -146q0 -4 2 -4q4 0 15 23q10 15 50 50t49 40q28 16 63 25q1 0 9 -1.5t10 1.5q24 -9 33 -20z" />
    <glyph glyph-name="uni0453" unicode="&#x453;" horiz-adv-x="288" 
d="M400 346l-14 -25q-76 0 -101 -9q-8 -3 -24 -5t-23 -5q-8 -8 -16 -36t-10 -34q-4 -11 -13.5 -37t-14.5 -42q1 8 -8.5 -21t-11.5 -36l-8 -26q-11 -43 -25 -69l-26 1q-7 7 -23 22q-1 16 7.5 51.5t16.5 54.5l55 165q2 5 2 20q-1 3 -1 9q0 11 6 21t9 16l8 -1q3 0 8.5 0.5
t9.5 -1.5q9 -2 46.5 5t48.5 13l36 1q12 0 18 -1q24 0 48 -31zM184 153zM236.5 463.5q-3.5 13.5 -2.5 19.5q2 9 43 53t55 49q5 3 9 3q14 0 32 -31q4 -9 -9.5 -23.5t-41.5 -37.5q-34 -28 -42 -39q-5 -9 -10 -14.5t-9 -5.5t-14 7q-7 6 -10.5 19.5z" />
    <glyph glyph-name="uni0454" unicode="&#x454;" horiz-adv-x="335" 
d="M158 161.5q-2 -5.5 -4 -15t-5 -14.5q-1 -21 0.5 -34t9.5 -26q8 -3 22 -3q17 0 24 3q16 6 43.5 21t40.5 25q7 4 28 23q3 -1 7 -1t6 0.5t3 0.5q18 -18 27 -25l1 -10q0 -24 -21 -36l-23 -13q-23 -16 -40 -22q-9 -2 -18.5 -8t-16.5 -9q-5 -2 -21 -5t-22 -6q-13 -5 -22 -5
q-10 0 -26 7q-26 11 -33 25l-15 24q-2 3 -5.5 8t-7.5 11q0 -5 -3 13t-4 27q3 32 7.5 55t14.5 43q36 70 83 116q9 11 19 12q16 14 31.5 20.5t35.5 8.5q5 2 11 3.5t9 1.5q8 -2 24 -5.5t26.5 -10t24.5 -20.5q13 -15 16.5 -30.5t4.5 -52.5q1 -21 -20 -35l-6 6q-3 2 -8.5 3
t-8.5 4q-4 4 -9 12t-10 14q6 15 9.5 30t4.5 17q-1 8 -6.5 11t-13.5 1l-5 -4q-31 0 -51 -19q-11 -4 -29.5 -20t-47.5 -44q-6 -5 -10.5 -10t-8.5 -8l39 8l40 8q5 2 15 2t17 -4q12 -7 19 -23q5 -10 5 -12q0 -3 -3.5 -8t-9.5 -11q-3 0 -8.5 -0.5t-8.5 0.5l-39 -5h-70
q-6 -4 -8 -9.5z" />
    <glyph glyph-name="uni0455" unicode="&#x455;" horiz-adv-x="341" 
d="M126 16.5q-17 13.5 -23 23.5v7t3 6.5t11 1.5q17 0 54 -4q22 0 50 5.5t31 12.5q3 0 3 1q0 2 -8 10q-2 0 -9 3.5t-9 3.5q0 4 -9 10.5t-20 11.5q-29 24 -41 35.5t-9 16.5v5q-7 0 -15.5 19.5t-8.5 36.5q0 18 15.5 50t35.5 52q28 26 72.5 55t70.5 37q17 7 34 7q16 0 27 -7
q13 -8 25.5 -23t16.5 -27q0 -22 -4.5 -42.5t-13.5 -20.5q-1 0 -3 -1t-2 -5t-4 -10.5t-11 -12.5q-22 -16 -36 -16q-11 0 -14 11q-2 2 -4 6t-5 4q-1 0 -3.5 3.5t-2.5 9.5q0 3 2.5 6.5t3.5 4.5q6 0 20 23.5t14 31.5q0 6 -1.5 7t-9.5 1q-78 -35 -97 -53q-3 -6 -4.5 -8t-5.5 -2
q0 9 -53 -68q-2 -2 -4.5 -12t-2.5 -17q-2 -8 -2 -9q0 -4 3.5 -8t9.5 -8.5t12 -9.5q52 -39 72.5 -58.5t24.5 -32.5q13 -20 13 -36q0 -12 -9 -21t-27 -17q-11 -5 -37 -8.5t-51 -3.5q-14 0 -30 2q-18 7 -35 20.5z" />
    <glyph glyph-name="uni0456" unicode="&#x456;" horiz-adv-x="187" 
d="M196 462q-5 17 0 17q8 1 18.5 17.5t9.5 27.5q0 4 3 7.5t7 4.5q8 5 14 5q17 0 31 -24q6 -13 6 -23q0 -9 -5 -18.5t-18 -24.5q-17 -23 -32 -23q-10 0 -22 10q-7 7 -12 24zM97 72q0 14 5 24q0 5 2 12t2 9q-1 6 8 33q18 40 48 141q0 5 4 8.5t12 4.5q8 2 11 2q6 0 10.5 -4.5
t12.5 -16.5q6 -6 6 -18q0 -19 -13 -46q-13 -29 -17 -50q-12 -27 -19 -50q-2 -6 -6 -24t-11 -29q-6 -28 -11 -39t-11 -11q-7 0 -19 14q-14 14 -14 40z" />
    <glyph glyph-name="uni0457" unicode="&#x457;" horiz-adv-x="187" 
d="M97 72q0 14 5 24q0 5 2 12t2 9q-1 6 8 33q18 40 48 141q0 5 4 8.5t12 4.5q8 2 11 2q6 0 10.5 -4.5t12.5 -16.5q6 -6 6 -18q0 -19 -13 -46q-13 -29 -17 -50q-12 -27 -19 -50q-2 -6 -6 -24t-11 -29q-6 -28 -11 -39t-11 -11q-7 0 -19 14q-14 14 -14 40zM145 467q-5 10 -3 15
q9 31 20 40l6.5 6.5t7.5 5.5q8 5 14 5q16 0 24 -24q7 -12 7 -19t-4 -14t-13 -19q-17 -23 -31 -23q-8 0 -16 10q-7 7 -12 17zM273 467q-5 10 -3 15q9 31 20 40l6.5 6.5t7.5 5.5q8 5 14 5q16 0 24 -24q7 -12 7 -19t-4 -14t-13 -19q-17 -23 -31 -23q-8 0 -16 10q-7 7 -12 17z
" />
    <glyph glyph-name="uni0458" unicode="&#x458;" horiz-adv-x="204" 
d="M209 510q0 26 21 51q14 17 32 17q12 0 24 -9q11 -17 11 -28q0 -9 -11 -26q-18 -19 -30 -28t-21 -9q-10 0 -17 7q-9 11 -9 25zM6 -216q-36 0 -61 26q-11 17 -18 38.5t-7 37.5q0 20 11 20q7 0 13 -7t6 -18q0 -16 7.5 -27.5t19.5 -11.5q11 -4 29.5 6.5t29.5 27.5
q13 18 38 67.5t37 81.5q12 42 36 153l5 23q3 23 8.5 44t6.5 26q0 25 7 39q0 13 2.5 26t2.5 16q2 2 6 2q6 0 13.5 -3.5t12.5 -8.5q8 -8 10 -12.5t2 -13.5q0 -14 -4 -38l-3 -31q0 -12 -10 -61t-19 -85q-5 -19 -7 -25q-6 -21 -8 -33q-1 -8 -13 -41q-12 -29 -14 -41
q-3 -21 -24 -65q-8 -19 -28 -49.5t-33 -40.5q-21 -22 -54 -22z" />
    <glyph glyph-name="uni0459" unicode="&#x459;" horiz-adv-x="507" 
d="M500 161q11 -12 16 -22.5t13 -35.5q-12 -38 -53.5 -67t-83.5 -42q-11 -3 -25.5 -3h-22.5h-6q-15 0 -27 6q-24 10 -40.5 31t-11.5 33q2 5 3.5 13.5t2.5 11.5q6 11 11 31q4 16 8 26l11 26q6 18 10 26q3 8 10.5 29.5t12 40t4.5 34.5q0 10 -1 14h-16q-14 0 -21 -3
q-8 -22 -21 -45t-16 -29q-6 -10 -16 -30q-26 -48 -42 -71q-9 -24 -37 -56q-19 -24 -23 -30q-7 -10 -18.5 -22t-16.5 -17q-10 -2 -14 -2q-16 0 -27.5 8.5t-22.5 24.5q0 6 5.5 12.5t6.5 9.5q2 1 10.5 3t17.5 9q10 9 26 29q5 7 17 21q20 20 54 82q13 23 19 33q2 3 4 12t9 12
q6 16 12 23q2 2 2.5 7t0.5 8q-7 6 -16.5 13.5t-14 14.5t-8.5 21l18 13q45 8 93 8q36 0 57 -16q19 -4 26.5 -18t10.5 -36l2.5 -10t1.5 -10q0 -3 -2 -9l-5 -31l-8 -41q12 2 16 2q5 0 11 -3q4 -2 8 -2l12 1q7 1 19 -3.5t17 -4.5q4 0 10.5 -5.5t12.5 -5.5zM469.5 132
q-2.5 6 -7.5 12t-8 11q-22 8 -31 8q-10 0 -18 -4q-2 -2 -21 -1.5t-24 0.5q-14 -39 -22 -65t-8 -36q0 -9 7 -14q16 -1 31 3.5t35 13.5l23 10q7 7 17 15t17 15.5t11 18.5q1 7 -1.5 13z" />
    <glyph glyph-name="uni045A" unicode="&#x45a;" horiz-adv-x="467" 
d="M150 159q-3 -13 -14 -51l-7 -26l-9 -50q0 -6 -6 -9q-17 -2 -29 8.5t-12 27.5q0 25 11 58q13 51 16 66q3 12 10 30q2 8 5 18t3 21q7 13 18 48.5t11 36.5t1 7.5t24 9.5q31 -5 31 -43q-7 -10 -10.5 -19.5t-4.5 -13.5q-2 -6 -6 -13.5t-5 -18.5v-1q0 -5 5.5 -8t9.5 -1
q3 3 11 3l53 -1q32 0 44 5q10 39 38 118q4 14 7.5 20t12.5 11l6 1q10 0 22 -10q11 -11 11 -23q0 -4 -2 -12q-3 -9 -6.5 -23t-9.5 -22q-2 -6 -4 -10.5t-3 -8.5q-13 -26 -11 -49q36 -7 67 -36q26 -22 34 -34.5t14 -40.5q2 -40 -30.5 -77.5t-72.5 -51.5q-9 -3 -21 -3
q-13 0 -43 5q-19 3 -22 2q-4 -4 -10.5 -3.5t-8.5 0.5q-4 2 -12.5 8.5t-11.5 9.5q-3 8 -3 16q0 11 9 41l34 112l-43 -1q-18 -2 -23 0l-59 -11q-7 -5 -9 -12zM327 41q8 0 18 3q26 6 55 38q6 5 20 31q3 8 3 14q0 11 -10 21q-11 9 -31 21t-25 11q-4 3 -9 3q-9 0 -14 -10
q-2 -6 -7.5 -18t-6.5 -19q0 -14 -8 -41.5t-9 -34.5l-4 -14q20 -5 28 -5z" />
    <glyph glyph-name="uni045B" unicode="&#x45b;" horiz-adv-x="429" 
d="M380.5 76.5q-11.5 15.5 -11.5 30.5l-1 25q0 7 1 11q3 11 3 21q4 29 12 42q2 5 3 15t4 14q5 7 8.5 24.5t3.5 33.5q0 11 -1 16q-6 2 -10 2q-7 0 -10 -5q-2 -3 -37 -34t-73 -78l-39 -41q-9 -12 -29 -41.5t-23 -36.5q-2 -5 -11 -11.5t-12 -5.5q-10 3 -20 3q-17 2 -27 8
q-10 7 -10 25q0 14 7 37l31 102q3 13 18 49l14 39q2 7 16 37l9 21q6 13 8 19t2 17q-3 3 -9 3q-4 0 -9 -1t-7 0q-4 -3 -16 -2.5t-21 0.5q-3 11 -6.5 17t-5.5 25v3q0 5 3 9.5t7 6.5q7 4 17 4q6 0 9 -1q14 -3 25 -3q16 0 43 9q14 33 23 59l12 32q5 10 8.5 18t3.5 15q1 7 5.5 19
t7.5 13q16 6 25 3q17 -5 28 -18q3 -11 -4.5 -31t-23.5 -55q-15 -30 -22 -51l5 -5q15 2 33.5 10t27.5 11q21 6 31 6q9 0 15.5 -3t17.5 -11q4 -3 4 -8t-4 -9q-9 -10 -14.5 -13.5t-13.5 -5.5q-106 -29 -112 -29q-14 -1 -19 -15l-28 -74q-40 -103 -54 -147q4 -6 8 -6q3 0 6 7
q14 18 37 39q26 24 39 42q10 5 16.5 12.5t7.5 9.5t7.5 9.5t15.5 11.5q7 6 19.5 17t18.5 16q21 12 31 16t19 4l13 -1q4 -3 10 -9t12 -10q11 -10 12 -27q1 -9 4 -24.5t2 -26.5q-3 -8 -6 -19.5t-8 -22.5q-1 -4 -2.5 -14t-6.5 -16l-14 -68q-3 -15 -3 -23q0 -6 2.5 -18.5
t2.5 -28.5l-24 -12q-15 7 -26.5 22.5z" />
    <glyph glyph-name="uni045C" unicode="&#x45c;" horiz-adv-x="404" 
d="M247 380.5q4 -1.5 6 -4.5q10 -10 10 -23q0 -7 -5 -17q-7 -13 -15 -25q-13 -22 -21.5 -40t-19.5 -51q26 6 34 10.5t27 25.5q18 18 34 32q61 59 65 64q8 12 14 18.5t16 9.5q14 -2 19.5 -5t24.5 -18q4 -4 4 -14q0 -19 -11 -27q-3 -2 -39 -31q-73 -61 -124 -96q22 -35 43 -78
q2 -24 17 -33t42 -9q8 -4 10.5 -10t3 -13t1.5 -11q-9 -6 -18 -14.5t-15 -8.5q-7 0 -22 6q-14 5 -26 14.5t-25 24.5q-12 14 -47 71t-39 64q-3 -8 -7.5 -17.5t-6.5 -17t-2 -19.5q-10 -14 -15.5 -35.5t-8.5 -30.5q-6 -22 -26 -36q-18 1 -35 22q-5 9 -5 20t5 24q2 9 14 42t19 53
q5 13 16.5 44.5t12.5 37.5q3 13 18 37q20 35 25 58q2 7 10.5 13.5t17.5 6.5q11 0 18 -11q2 -1 6 -2.5zM336.5 463.5q-3.5 13.5 -2.5 19.5q2 9 43 53t55 49q5 3 9 3q14 0 32 -31q4 -9 -9.5 -23.5t-41.5 -37.5q-34 -28 -42 -39q-5 -9 -10 -14.5t-9 -5.5t-14 7q-7 6 -10.5 19.5
z" />
    <glyph glyph-name="uni045D" unicode="&#x45d;" horiz-adv-x="380" 
d="M316.5 5q-11.5 7 -22.5 21q-8 13 -9.5 27t-1.5 58q0 10 -4 10q-3 0 -14 -9.5t-27 -25.5q-26 -25 -48 -39t-36 -13q-11 0 -23.5 15t-19.5 35q-3 12 -3 28q0 42 17.5 102t41 103.5t41.5 43.5q15 0 28 -33q3 -6 3 -10q0 -7 -8 -14q-15 -19 -35 -68t-31.5 -91t-4.5 -42
q14 0 33 11t38 29q19 19 34 40.5t37 58.5q42 67 46 78q15 28 21.5 36.5t16.5 11.5h14q6 -1 14 -9q7 -3 8.5 -6.5t1.5 -9.5l-16 -37l-9 -21q-1 -4 -11 -23q-23 -51 -35 -82t-18 -64q-1 -5 -1 -17q0 -30 6 -42q9 -18 18 -26q5 -4 5 -8q0 -7 -11.5 -14t-16.5 -7q-7 -4 -18.5 3z
M334 435q-4 0 -7 5t-7 17q-2 3 -18 29q-18 29 -27.5 46.5t-9.5 30.5q0 8 3 12q20 18 29 18q8 0 13 -6q9 -5 22.5 -30.5t24 -53.5t10.5 -36q1 -5 -5.5 -14.5t-14.5 -11.5q-9 -6 -13 -6z" />
    <glyph glyph-name="uni045E" unicode="&#x45e;" horiz-adv-x="360" 
d="M408 336q0 -18 -24 -63q-8 -23 -17.5 -43t-14.5 -26l-23 -53q-15 -33 -37 -77q-27 -56 -38 -83l-13 -21q-50 -80 -77 -112q-55 -49 -85 -57q-13 -4 -31 -4q-33 0 -62.5 14.5t-33.5 33.5q-1 7 5 15t13 8q5 0 8 -4q8 -6 23.5 -11.5t33.5 -5.5q7 0 19 2q20 4 42 24t40 44
q34 50 73 125q-14 4 -27 19.5t-20.5 32.5t-5.5 25v11q-9 0 -14.5 34t-5.5 79q0 17 2 43q4 16 4.5 39.5t0.5 30.5v4q0 12 2.5 17t8.5 9q8 4 16 4q28 0 28 -74q0 -11 -2 -43q-1 -14 -1 -42q0 -52 9 -92t27 -55l6 14q11 29 17 37q14 29 16 37q2 7 11 23l13 27q2 6 13 38.5
t22 52.5q4 8 12 23.5t13 22.5t11 9q8 7 13 7q4 0 14 -6q16 -16 16 -33zM208 537q-2 8 -2 11q0 7 4 15q2 4 8 6t10 1q14 -4 20.5 -11.5t8.5 -19.5q3 -7 3 -14q8 -25 22 -25q3 0 15 4q42 17 63 38l42 39l1 1q4 2 7 2q7 0 10 -3q5 -6 6 -11t1 -10v-8l-1 -2q2 -6 -10 -23.5
t-27 -28.5q-19 -15 -63 -37q-7 -4 -16 -5.5t-25 -1.5q-55 0 -77 83z" />
    <glyph glyph-name="uni045F" unicode="&#x45f;" horiz-adv-x="347" 
d="M141 -119q-1 17 7 39q4 7 7 21l16 59q-6 -1 -18 -1q-42 0 -61 22q-11 14 -17 25.5t-6 26.5q0 12 4 28t9 30q8 27 9 34q0 2 54 130l16 39q8 15 19 10l8 -4t8 -9l15 -24q-4 -23 -8.5 -35.5t-15.5 -37.5l-15 -32q-4 -9 -14.5 -32.5t-17.5 -43.5q-2 -7 -6.5 -18t-6.5 -18
q-1 -9 -1 -29q0 -7 6 -7q5 0 13.5 3t14.5 3h14q11 0 15 3q16 2 52 13q29 10 41 12q-1 11 1 21.5t4.5 18.5t4.5 15q9 29 17 45q28 84 39 109q3 13 9 25q11 6 18 6q9 0 24 -9q14 -14 14 -26q0 -9 -8 -25q-5 -9 -14 -36q-6 -18 -10 -27q-7 -15 -26 -75q-21 -70 -31 -83
q-16 -1 -26 -5.5t-12 -5.5q-10 -7 -21 -7q-12 -2 -16 -16l-53 -130q-3 -10 -13 -12.5t-28 -2.5z" />
    <glyph glyph-name="uni0490" unicode="&#x490;" horiz-adv-x="457" 
d="M676 834.5q10 -2.5 17 -6t13 -10.5v-27q-9 -13 -23.5 -43t-18.5 -38q-12 -27 -20 -42l-21 -44l-2 -5q0 -3 1 -4.5t2 -3.5q-4 -8 -14 -14.5t-20 -6.5q-4 0 -12 4q-7 4 -17 6l-15 3q-17 4 -55 4q-5 0 -20 1t-22 4q-1 1 -3 1q-1 0 -10 -3q-3 0 -12.5 2.5t-15.5 -0.5
q-11 -4 -31 -4t-26 -1q-12 -3 -19.5 -8.5t-11.5 -17.5q-5 -19 -33 -83q-26 -63 -29 -73q-40 -114 -54 -161q-29 -94 -39 -142q-1 -6 -6.5 -25t-4.5 -39q-1 -8 -3.5 -25.5t-2.5 -25.5q0 -16 -9.5 -22t-32.5 -4q-3 2 -10.5 8t-11 13.5t-2.5 18.5l3 21q4 19 6 38q1 14 19 78
l8 30q5 20 16 53q20 64 20 75q1 8 7 24q11 24 24 67l8 24q6 19 24.5 68.5t30.5 74.5q1 3 2 7.5t1 6.5q-16 0 -28 11t-12 25q0 12 9 22q15 8 39 8q6 0 15 3.5t16 4.5q8 1 27.5 3.5t28.5 2.5q11 3 24.5 3h21.5l90 -1q11 -5 32 -5t25 -2q7 -3 15.5 -3h11.5q0 1 19 34
q61 109 65 129q1 5 4.5 9.5t4.5 6.5q7 -2 17 -4.5zM154 58z" />
    <glyph glyph-name="uni0491" unicode="&#x491;" horiz-adv-x="326" 
d="M434 481q4 -8 4 -20q0 -20 -10.5 -42t-12.5 -28q0 -7 -16 -33t-29 -36l-44 -4q-12 7 -30 7q-15 0 -37 -5q-19 -4 -32 -5q-21 -45 -29 -86l-8 -34q-15 -68 -25.5 -102.5t-33.5 -76.5q-6 -10 -16.5 -16.5t-21.5 -6.5q-14 0 -26 9l-28 24q-4 8 -4 17q0 15 14 20l26 -6
q7 5 12 15t9 20q14 32 25 72t14 49q1 5 18.5 67t15.5 78l13 22q3 0 10 2t11 0q7 -3 20 -3q9 0 21.5 2t20.5 1q4 0 12.5 2.5t15.5 0.5q10 -4 27 -3.5t19 0.5q9 7 16.5 20.5t12.5 20.5q6 8 13.5 26t6.5 29v3q0 8 5.5 13t10.5 1q14 -5 30 -14z" />
    <glyph glyph-name="A.ss01" horiz-adv-x="502" 
d="M456 -66q-12 12 -12 36q0 46 -2 63l-1 68q0 27 3 32q-1 5 -1 15q0 9 1.5 21.5t1.5 19.5l-4 27h-55q-16 -2 -34 -2q-35 0 -112 5l-13 -21q-21 -32 -32 -59q-22 -57 -43 -88q-28 -54 -38 -54h-6q-7 0 -12.5 1.5t-13.5 7.5q-18 8 -18 24q0 20 23 52l13 21q0 6 26 56t35 54
q9 9 9 18q0 10 -12 20q-6 3 -6 8q0 6 7 11t16 5q5 3 9.5 5t7 3.5t2.5 4.5q0 5 24 51.5t37 62.5q10 27 17.5 39t9.5 17q5 5 20 33q2 3 13 22q10 10 20.5 23.5t13.5 17.5q4 7 12 17q5 12 18 29.5t16 21.5q14 16 22.5 22.5t18.5 6.5q9 0 21 -6q23 -10 34 -32t14 -64
q1 -7 4.5 -31t3.5 -42q0 -13 -3 -21v-44q0 -33 2 -49q-3 -11 -3 -36l1 -39q0 -15 -1 -25l-1 -37l-1 -37q-1 -25 -1 -63l1 -63v-39q0 -57 -6.5 -78.5t-26.5 -23.5q-8 0 -19 13zM301.5 274q22.5 2 45.5 1q28 2 38 2q13 0 27 -0.5t16 0.5q19 -1 19 35q-5 52 -5 149q0 37 1 50
q0 16 -1.5 31t-2.5 19q-4 5 -36 -34.5t-43 -58.5q-6 -8 -16 -28q-5 -8 -10.5 -19t-13.5 -24q-53 -82 -53 -115q0 -9 5 -11q7 1 29.5 3z" />
    <glyph glyph-name="B.ss01" horiz-adv-x="512" 
d="M249 -37q-50 0 -109 30q-2 11 -9 20.5t-16 10.5q-3 1 -10 10.5t-10 13.5q-4 20 -4 24q0 9 3 28t5 28l10 27q24 70 53 135l20 51q45 111 59 149t14 54q0 9 -5 21q-3 9 -3 17q0 28 29 39q34 18 70.5 30t61.5 12q33 0 69 -10.5t40 -23.5l6 -2q1 0 5 -2t11 -8q10 -7 17 -22
t7 -29q0 -6 -1 -9q0 -3 2.5 -14.5t4.5 -18.5q1 -6 1 -18q0 -56 -52 -112l-13 -17q-2 -3 -10.5 -13t-12.5 -9q-17 -15 -17 -25q0 -5 6 -7q2 -3 8.5 -12t17.5 -22q26 -40 26 -94q0 -28 -7 -50q-11 -39 -62 -88t-111 -75q-55 -19 -94 -19zM277 314q26 9 34 11q43 7 81.5 32
t66.5 59t40 68q4 8 7.5 25t3.5 30q0 8 -1 11v8q-7 16 -29.5 24.5t-53.5 8.5q-47 0 -88 -16q-11 -5 -15 -14.5t-6.5 -22.5t-3.5 -20q-3 -16 -19 -64q-10 -27 -11 -31q0 -2 -4.5 -7t-4.5 -10q-2 -4 -8 -17.5t-10 -27.5q-6 -14 -9.5 -26.5t-4.5 -16.5q0 -3 2 -10t5 -3
q11 2 28 9zM253 21q50 0 105 32t85 80q27 34 27 66q0 26 -17 52q-21 32 -56 32q-16 0 -36.5 -6t-25.5 -7q-16 -3 -74 -20q-34 -12 -42 -12q-4 -3 -14 -14t-11 -15q-6 -2 -13.5 -23t-12.5 -42.5t-2 -22.5q4 -1 -1 -17t-7 -24t-2 -11q0 -19 22.5 -32t54.5 -15q6 -1 20 -1z" />
    <glyph glyph-name="C.ss01" horiz-adv-x="482" 
d="M298 -37q-56 0 -103 21.5t-60 80.5q-7 34 -7 75q0 83 26 177q10 35 52.5 108t79.5 119q25 30 68 67t59 44q15 8 28 8t29 -4q20 -2 43 -18t25 -29q0 -4 4 -4q5 0 18 5q10 11 20 11t11 -10q-2 -3 -2 -7q0 -6 4 -9q5 2 -2 -20.5t-16 -38.5l-3 -10v-3q0 -7 -9 -16
q-6 -10 -16 -45.5t-9 -45.5q2 -8 -7 -8q-7 0 -24 6q-16 6 -23 13t-7 20q0 12 8 39q16 54 16 72q0 20 -12 29q-3 6 -11.5 9t-18.5 3t-20 -5q-21 -8 -64 -56.5t-81 -101.5q-49 -69 -75.5 -145t-26.5 -145q0 -48 14 -92q2 -5 12 -17.5t16 -16.5q16 -4 41 -4q21 0 49 3
q40 7 60.5 22t42.5 46q17 23 32 23q17 0 21 -27q0 -9 -17.5 -36.5t-26.5 -29.5q-4 -1 -4.5 -2.5t0.5 -5.5q0 -6 -21.5 -17.5t-48 -21t-38.5 -9.5z" />
    <glyph glyph-name="D.ss01" horiz-adv-x="578" 
d="M160 -21q-29 15 -36 54q1 22 2.5 28t7.5 6q9 0 9 10q1 22 9.5 57t16.5 48q10 37 37 118.5t37 105.5l9 24q11 25 18 48l9 23q2 6 9 23.5t12 25.5l13 29l-23 20q-14 14 -14 27t18.5 24t42.5 15q13 2 45 2q56 0 98 -7q16 -3 42 -15.5t35 -22.5q1 -1 4.5 -4t6.5 -3
q11 -6 36 -43t30 -61q6 -30 6 -60q-2 -48 -8 -86q-4 -26 -16.5 -60.5t-25.5 -61.5t-15 -27q-5 0 -6.5 -2.5t-1.5 -7.5q-2 -12 -18.5 -42t-38.5 -59t-40 -41q-43 -47 -110 -73.5t-127 -26.5q-44 0 -73 15zM303 33q28 7 63 28.5t63 49.5q36 37 60.5 73.5t48.5 94.5
q16 40 25 83.5t9 78.5q0 59 -22.5 98t-60.5 53q-26 11 -60 11q-11 0 -22 -1t-14 -3q-12 0 -26 -32.5t-26 -75.5q-9 -35 -24 -71q-14 -36 -24 -67q-18 -36 -30 -73t-14 -44q-2 -8 -3.5 -12.5l-2.5 -7.5q-12 -24 -25.5 -88t-13.5 -90q0 -14 28 -14q50 0 71 9z" />
    <glyph glyph-name="E.ss01" horiz-adv-x="548" 
d="M234.5 -32.5q-29.5 5.5 -52.5 23.5q-19 14 -27.5 32t-8.5 45q0 35 15 92q5 26 11.5 44.5t11.5 18.5l7 37q1 6 4 16.5t5 15.5t6 9q4 3 12 27q0 2 1 9t5 16q15 25 15 33q1 3 8 12t11 21q64 113 72 149q10 24 21 36q-3 6 15.5 15t47.5 17t55 10q6 4 27 6t47 2q18 0 50 -2
q16 0 27.5 -3.5t20.5 -8l13 -6.5q6 -6 9 -16.5t3 -13.5q0 -5 -22.5 -6t-66.5 -1q-37 0 -89 -9q-19 -3 -27 -3q-12 -4 -22 -5t-13 -1q-4 0 -35 -51.5t-32 -58.5q0 -9 -6 -19t-21 -31q-13 -18 -13 -28q0 -8 6 -10q31 5 75.5 9.5t65.5 4.5q10 3 18 3q14 0 26 -7
q11 -2 16.5 -6.5t5.5 -9.5q0 -7 -8 -10q-9 -9 -61 -23t-108.5 -25.5t-63.5 -9.5q-3 8 -4.5 6.5t-8.5 -21t-18 -44.5q-17 -38 -27 -70.5t-18 -79.5q-6 -24 -6 -31q0 -14 8.5 -24.5t29.5 -19.5q17 -3 40 -3q43 0 90 12q16 9 32.5 17t22.5 11q7 1 15.5 3t14.5 2q8 11 20 11
q3 0 17 -16t13 -20q0 -10 -17.5 -18.5t-76.5 -31.5q-42 -18 -59 -23t-48 -5q-47 0 -76.5 5.5z" />
    <glyph glyph-name="F.ss01" horiz-adv-x="466" 
d="M148 2l8 47q9 65 20.5 118t15.5 53q4 2 4.5 11.5t0.5 13.5l2 25l-15 -2q-12 2 -14 5t-2 18q1 11 3.5 15t10.5 5q17 6 34 19.5t16 22.5q1 15 16 62t33 81q11 37 11 47q8 29 8 32l4 10q0 4 -6 4q-3 0 -15 -2q-2 -1 -11 -2t-18 0q-12 -3 -19 -3q-5 0 -8 2t-5 7q-8 8 -8 17
q0 5 3 8.5t8 2.5h2q6 0 14 8q4 4 20 9.5t36 6.5q14 1 37.5 8.5t27.5 11.5q0 5 7 5h8q6 1 16.5 2.5t13.5 0.5q21 9 117 8l25 -2q13 0 13 4q3 0 15.5 -2t26.5 -6q35 -2 49.5 -13.5t15.5 -39.5l4 -23l-27 9q-23 3 -64.5 7.5t-66.5 4.5q-11 0 -15 -1q-8 0 -21 -1.5t-22 -0.5
q-15 -4 -31 -4l-12 1q-6 -2 -16.5 -4t-14.5 -5l-7 -3.5t-8 -2.5h-1q-2 0 -3 -7.5t-2 -16.5q1 -20 -3 -34.5t-25 -68.5l-9 -25q-12 -29 -15 -44q-11 -30 -21 -46q1 -10 4 -10t8 5q2 -1 7 -1q6 0 16 5q10 0 20 -2v1q0 3 10.5 3.5t17.5 1.5q7 4 29 8q16 4 22 6q12 5 15 5
q4 0 18 -6q12 -16 12 -39q0 -15 -6 -20l-31 -11q-3 1 -10 1q-15 0 -25 -5q-17 -10 -44 -10q-16 0 -25 1q-5 -4 -16.5 -5.5t-14.5 -3.5q-3 0 -12 -1.5t-12 -0.5q-6 0 -6 -15q0 -3 -2.5 -7t-3.5 -5q-4 -3 -5.5 -6t-1.5 -7q0 -3 -1 -15t-5 -23q-13 -42 -21.5 -80t-4.5 -43
q10 -10 17 -11q1 1 3 1q4 0 7 -6.5t5 -15.5q-1 -7 -28 -41q-15 -35 -32 -35q-12 0 -30 16z" />
    <glyph glyph-name="G.ss01" horiz-adv-x="498" 
d="M147.5 9.5q-16.5 30.5 -16.5 63.5l-1 30q0 105 34 220q16 54 39.5 113t41.5 91q26 47 58.5 83t53.5 49q14 8 37.5 15t49.5 7q15 0 32 -3q25 -5 48 -14.5t32 -16.5q4 -6 9.5 -13.5t9 -13.5t3.5 -13q2 -10 -7 -24t-20 -14q-7 0 -12 6q-10 14 -20 21t-21 12t-17 8
q-12 6 -32 6q-19 0 -39 -6.5t-33 -17.5q-18 -17 -43 -49.5t-37 -59.5q-57 -107 -78 -201q-7 -29 -15.5 -73.5t-10.5 -66.5q-4 -28 -4 -59q0 -40 12 -61t41 -21q21 0 52 12q33 5 73.5 40.5t67.5 81.5q40 80 40 113q0 22 -19 21q-9 1 -25 1l-43 -1q-19 0 -33 5q-7 12 -7 20
q0 12 12 24q8 4 26 6.5t40 2.5q48 0 80 -14q33 -15 33 -65q0 -16 -3 -34q-8 -40 -56 -119q-22 -33 -66.5 -72t-71.5 -51q-59 -28 -102 -28q-29 0 -49 13q-27 16 -43.5 46.5z" />
    <glyph glyph-name="H.ss01" horiz-adv-x="564" 
d="M130 -89q-6 2 -13 1q-13 2 -21 13t-8 24q0 6 1 9q3 3 5 15.5t2 22.5q4 11 9 32q6 45 31.5 149.5t32.5 111.5l-1 11q0 3 2 12t8 20q4 12 6.5 23.5t2.5 17.5q2 3 14 36l10 28q6 19 16 45t13 34v5q4 5 22 53q9 20 17.5 41.5t17.5 42.5q3 6 9 17t6 15q4 8 15 8q9 0 18 -6
t14 -16l11 -16l-34 -73q-13 -26 -23.5 -50.5t-10.5 -28.5q-3 -10 -14 -41t-17 -54q-8 -25 -17.5 -49.5t-9.5 -26.5q0 4 114 8q19 1 70.5 3.5t63.5 5.5l51 6l31 104q12 49 39 138q13 44 22 56.5t22 12.5h1q6 0 14.5 -4t11.5 -11q12 -10 12 -23t-15 -39q-13 -24 -31 -80
q-3 -13 -10 -31v-4q0 -19 -9 -28q-3 -3 -12.5 -28t-9.5 -29q1 -7 -2 -17.5t-7 -14.5q-1 -4 -19 -80t-36 -122q1 -5 -3.5 -18t-4.5 -18q-15 -48 -14 -54q-20 -102 -20 -109q-1 -2 -6 -2q-7 0 -25 7q-13 7 -19 14t-6 17q0 9 8 27q4 7 15 60l10 43q6 21 23 92l9 39t8 28v10
q-3 3 -41 3q-40 0 -90.5 -3.5t-86.5 -9.5l-24 -1q-17 0 -23 -1q-10 0 -17 -0.5t-9 -0.5q-5 -10 -27 -92.5t-25 -104.5q-9 -46 -20.5 -98.5t-18.5 -79.5q-2 1 -8 3z" />
    <glyph glyph-name="I.ss01" horiz-adv-x="400" 
d="M131 -42q-10 0 -38 -2q-4 -1 -12 -1q-18 0 -31 8.5t-11 19.5q2 25 82 29l53 3l10 21l20 74q4 16 11 37.5t14 44.5q31 95 33 108q5 13 18 57.5t16 60.5q22 74 29.5 111t3.5 37q-9 1 -54 -5t-49 -9q-3 -5 -10 -5t-14 4.5t-9 10.5q-1 4 -1 11t5 11q11 9 48 21.5t72 18.5
q17 2 34 8.5t26 14.5q20 8 35 7q7 -4 25 -4q20 0 44 3q46 6 67 6q15 0 23 -3.5t13 -12.5q4 -16 4 -21q0 -19 -21 -18q-16 -5 -82 -9q-70 -9 -75 -17q-5 -5 -7.5 -9t-5.5 -8q1 -4 -3.5 -25.5t-11.5 -44.5l-14 -46q-7 -21 -21.5 -68.5t-18.5 -57.5q-8 -24 -8 -35
q-18 -72 -48 -167q-19 -59 -28 -98q4 0 18.5 2t38.5 5q67 8 80 8t17.5 -3t7.5 -11q13 -16 13 -25q0 -12 -18.5 -17t-58.5 -6q-46 -3 -77 -6t-41 -6.5t-11 -9.5q0 -9 -10 -9q-9 0 -18 4q-12 13 -54 13z" />
    <glyph glyph-name="J.ss01" horiz-adv-x="306" 
d="M-46 -33q0 14 1 21q1 16 3.5 20.5t13.5 3.5q4 0 9 -5.5t4 -9.5q0 -7 6 -19q13 -37 22.5 -56.5t24.5 -30.5q4 -5 14 -12t17 -7q11 -8 16 -8q6 0 12 6.5t16 23.5q14 25 49.5 106t42.5 101q1 1 3.5 4.5t4.5 9.5q-1 6 8 31.5t13 36.5q18 47 28 82q31 97 65.5 208t36.5 128
q0 6 -1 10t-5 4t-24 -6q-7 -2 -27 -2q-26 0 -39 -3q-19 -2 -32.5 9.5t-13.5 29.5q0 3 2 13q0 3 10 5t24 2l15 -1h2q4 0 9.5 2t7.5 2q22 9 42 6h3q7 0 12.5 2t7.5 3l7 -1q8 0 17 4h3q6 0 10.5 1t6.5 2q3 3 11.5 -5.5t13.5 -18.5q3 -9 3 -20q0 -14 -5 -37.5t-6 -30.5l-11 -33
q-9 -29 -12 -36q-1 -16 -6 -36t-11 -31q-19 -60 -26.5 -84t-9.5 -30q0 -1 -1 -5t-4 -12q-5 -1 -7.5 -9.5t-2.5 -14.5q-2 -4 -5.5 -10t-7.5 -10v-1q0 -12 -7 -21q0 -14 -4.5 -30t-23.5 -59q-1 -8 -27 -73q-15 -41 -15 -42q-1 -3 -6.5 -15t-10.5 -23q-28 -57 -49 -106
q-37 -84 -85 -84q-22 0 -49 16q-83 49 -83 145z" />
    <glyph glyph-name="K.ss01" horiz-adv-x="494" 
d="M504 -32.5q-18 6.5 -36.5 19.5t-27.5 32l-17 19q-28 30 -31 35q-67 67 -103 121l-18 19q-29 31 -41 35q-11 -8 -16 -37q-10 -21 -22 -71q-8 -18 -13.5 -38.5t-7.5 -27.5q-10 -28 -15 -33l-9 -39q-7 -33 -12 -45.5t-13 -12.5q-7 0 -28 18q-2 3 -9.5 16t-7.5 17q2 5 7 20.5
t12 38.5l17 53q39 116 50 162q3 3 4 8t1 11q10 30 33 90.5t35 79.5q3 6 4 12t1 8q0 4 2.5 7t6.5 4q0 13 5 19q7 15 30.5 82t23.5 71q0 5 4 10t5 6q8 7 20 7q11 0 21.5 -7t18.5 -20q0 -7 -3.5 -20.5t-9.5 -28.5l-19 -43q-3 -9 -13.5 -38.5t-26.5 -71.5q-21 -42 -33 -74
t-8 -36q7 5 33 25.5t53 46.5q37 38 120 98q74 50 93 61t35 12q5 2 11 2q4 0 10 -4t12 -7l11 -20q1 -9 -10 -18t-36 -22q-42 -26 -108 -77.5t-118.5 -99t-59.5 -64.5q-5 -7 -5 -10q0 -8 22 -29q13 -16 20.5 -25.5t9.5 -12.5q0 -6 66 -69q2 -5 20 -25q26 -28 36 -45
q66 -69 66 -90q0 -11 -17 -11q-7 0 -25 6.5z" />
    <glyph glyph-name="L.ss01" horiz-adv-x="426" 
d="M221 -36q-11 0 -21.5 2.5t-18.5 5t-12 3.5q-13 8 -23.5 17t-14.5 12q0 4 -2 7t-3 4q-4 0 -6.5 16t-2.5 39q0 25 3 47.5t7 29.5q0 4 2.5 13t2.5 12q0 8 1 12.5t4 4.5q1 0 3 1t2 3q0 5 4 17t6 19q4 7 16 41q4 14 11 31q3 15 18 54l9 25q14 24 14 36q7 20 57.5 118t65.5 118
q15 19 23 24.5t18 5.5q8 -3 21 -16.5t14 -21.5q0 -4 -17.5 -29.5t-33.5 -42.5q-2 -3 -3 -6t-1 -4q-7 -12 -25.5 -46.5t-20.5 -46.5q-12 -14 -47 -98q-16 -37 -18 -39q0 -12 -5 -19q-2 -5 -10.5 -31t-20.5 -51q-7 -28 -16.5 -51.5t-15.5 -29.5q-3 -7 -3.5 -10t3.5 -2q3 3 4 3
t1 -2q0 -3 -5 -11q-10 -26 -10 -50q2 -33 9 -44t30 -11q47 0 114 16q30 10 55 10q27 0 37 -13q5 -8 6.5 -12.5t1.5 -11.5q-6 -9 -72 -26t-100 -19q-23 -3 -35 -3z" />
    <glyph glyph-name="M.ss01" horiz-adv-x="720" 
d="M655 -14q-5 6 -14 18q-12 30 -12 90q0 21 1 33q-1 4 -1 17q0 40 11.5 120.5t22.5 123.5q4 62 8 86.5t4 28.5q-2 4 -19 -19.5t-37 -58.5q-15 -25 -38 -57q-5 -7 -19 -36l-28 -58q-54 -83 -77 -110.5t-41 -27.5q-6 0 -9 1q-29 7 -39.5 23.5t-12.5 60.5q-1 18 -1 74
q3 7 2 20t0 16q0 2 4 16.5t5 24.5q3 23 5.5 52t2.5 48t-2 20v-1q0 -5 -12 -23q-13 -16 -27.5 -44.5t-42.5 -86.5l-38 -79q-3 -21 -16.5 -55.5t-28.5 -63.5q-10 -27 -23 -57t-22 -42q-10 -26 -16.5 -36.5t-14.5 -10.5q-7 0 -22 10q-10 10 -15.5 17.5t-5.5 16.5q0 10 8 24
q13 15 29.5 51.5t15.5 42.5q-1 4 5 13.5t18 27.5q-1 4 9 29.5t26 57.5q9 16 8 24q2 3 5.5 11t8.5 11q1 5 7 19q1 4 4 12t4 13q9 20 16 29q2 2 6.5 10t7.5 11q4 13 18.5 37t31.5 50l12 19q5 8 10.5 20.5t14.5 24.5q2 3 8.5 13t14.5 24q5 7 18 27.5t18 20.5q9 2 31.5 -17.5
t22.5 -31.5q0 -8 -5.5 -38t-12.5 -54q-1 -16 -4.5 -41.5t-5.5 -37.5q-10 -55 -12 -83q-2 -29 -9 -54t-9 -32q5 -12 5 -24v-22l38 41q4 7 9 14t9 14q19 26 31 47q0 4 5 12.5t7 14.5q7 4 12 12.5t4 16.5q41 60 98 137.5t73 90.5q17 12 31 12q17 0 32 -16q15 -17 15 -32
q0 -12 -7 -30l-15 -48q-21 -60 -20 -76q-6 -15 -9 -43q-3 -6 -5.5 -16t-6.5 -13q0 -4 2 -13.5t2 -16.5t-1 -10q-22 -135 -22 -204q0 -65 20 -70h1q3 0 3 -6q0 -5 -3 -22q1 -9 -2 -20.5t-6 -15.5q-4 -5 -8 -8t-9 -3q-4 0 -29 5q-1 2 -6 8z" />
    <glyph glyph-name="N.ss01" horiz-adv-x="566" 
d="M131.5 -48.5q-5.5 -4.5 -7.5 -4.5t-5.5 4.5t-8.5 12.5q-9 6 -12 12t-4 12.5t-1 9.5q1 20 28 108.5t49 142.5l20 53q7 17 32 67t34 67q-3 5 26.5 63.5t53.5 99.5q14 22 21.5 31t14.5 9q2 0 8 -2l8 1q15 0 30 -5t16 -13q1 -1 1 -9q0 -16 -4 -36q-13 -78 -13 -148
q0 -57 10 -174l21 -112l18 33q13 24 35 75l11 26q7 19 16 39.5t12 26.5q14 17 27.5 58t16.5 49q1 4 9.5 34.5t17.5 38.5q-1 8 7 42t13 50q1 1 5 6t8 15l28 8q11 -8 15.5 -15t4.5 -16q0 -15 -13 -41q-1 -12 -4.5 -21t-4.5 -11q4 0 4 -5q0 -3 -4 -19l-25 -93
q-6 -25 -45.5 -113.5t-51.5 -106.5q-2 -4 -6.5 -14t-8.5 -15q-8 -24 -34 -62t-39 -45q-11 -11 -24 -11q-19 0 -35 18t-22 49l-8 61q-2 11 -9.5 67t-6.5 77q-2 8 -2 23q0 14 1 20q0 4 0.5 9.5t-0.5 11.5q-1 11 2 42q3 17 3 35q2 20 -5 20q-9 0 -42 -61q-7 -19 -20 -41
t-12 -24l-75 -176q-16 -33 -32.5 -104t-18.5 -77q1 -4 -3 -15.5t-9 -27.5q-6 -5 -11.5 -9.5z" />
    <glyph glyph-name="O.ss01" horiz-adv-x="496" 
d="M132 145q0 22 5 54q2 26 12 61q6 18 9 37q0 2 2 7t1 8q6 15 17.5 42t14.5 30q4 2 4.5 5t0.5 4q0 13 27.5 56t59.5 84t38 41q2 0 5 4.5t4 4.5q7 9 45.5 27t66.5 24q24 8 41 8q45 0 68 -44t25 -129q-3 -15 -5 -44q-2 -23 -3 -26q-1 -30 -12.5 -74.5t-15.5 -45.5q0 -3 -2 -7
t-2 -7q1 -9 -26 -62.5t-31 -54.5q-1 0 -2.5 -1t-0.5 -4t-15.5 -18t-23.5 -15q-1 0 -1.5 -1t1.5 -4t-24.5 -23.5t-58 -40.5t-49.5 -24q-4 -4 -8.5 -5t-5.5 -1q-12 -12 -40 -12q-21 0 -34 7q-87 31 -87 139zM371.5 120.5q37.5 30.5 43.5 49.5q5 18 14 25q16 16 44.5 78.5
t30.5 85.5q0 6 3 19.5t7 19.5q3 6 4 27.5t3 73.5q-2 39 -4.5 55.5t-9.5 20.5q-4 2 -14 2q-12 0 -24 -1.5t-21 -4.5q-3 0 -10 -4t-11 -4q-8 -4 -12 -9.5t-4 -9.5q0 -9 -7.5 -15t-15.5 -1q-20 -1 -28 -8t-17 -23t-13 -23q-25 -19 -38 -40t-16 -35q-33 -59 -42 -79.5t-13 -54.5
q-8 -15 -12.5 -35t-7.5 -26q-4 -12 -4 -57q0 -47 6 -59q6 -26 38 -26q26 0 63 18q30 10 67.5 40.5z" />
    <glyph glyph-name="P.ss01" horiz-adv-x="472" 
d="M131 -15q-11 10 -11 21q0 2 -1 8t-4 12q0 25 5 40q0 11 3 24t7 21q0 8 4 21.5t5 18.5l6 21l17 51q5 12 7 20t2 15q6 20 15 51t15 54q5 5 5 15q2 6 9 28.5t16 47.5q15 44 23 72t8 39q0 7 -2.5 12.5t-3.5 7.5q-4 10 -4 12q0 4 4 8t6.5 8.5t3.5 6.5q0 3 41.5 17t74.5 24h41
q28 -4 55 -16t45 -30q12 -12 21.5 -27t24.5 -48q0 -4 2.5 -17.5t2.5 -23.5q0 -45 -33 -96t-93 -100q-33 -26 -69.5 -40t-69.5 -14q-14 0 -28 3q-11 4 -17.5 20.5t-1.5 21.5q4 1 22 1t53 13q26 9 42 19q61 38 94 92q14 22 27 55t13 51q2 10 2 15q0 20 -17.5 33.5t-49.5 16.5
q-3 1 -10 1q-22 0 -59 -9.5t-47 -16.5q-3 0 -5 -7t-5 -13q0 -8 -6.5 -30t-13.5 -41l-13 -38q-13 -33 -18 -52q-3 -13 -8 -27.5t-7 -18.5q0 -2 -6 -18t-9 -27q-9 -47 -25 -86q-23 -75 -23 -105q0 -11 3 -16q9 0 9 -11q0 -16 -19 -54q-10 -26 -14.5 -35t-8 -10t-13.5 -1
q-8 0 -19 10z" />
    <glyph glyph-name="Q.ss01" horiz-adv-x="490" 
d="M171 -29q-16 12 -38 35q-20 23 -26.5 47t-6.5 57q0 51 22.5 127.5t55.5 132.5l30 55q6 18 30 58t45 64q15 22 39.5 46t48.5 41q3 1 13 6t22.5 7t29.5 2q58 0 95 -45t37 -112q0 -12 -4 -40q1 -3 1 -10q0 -4 -0.5 -6.5t-0.5 -3.5q0 -4 -2.5 -9t-1.5 -8q-2 -3 -2 -16
q0 -11 2 -37q1 -9 1 -24q0 -19 -5.5 -36t-21.5 -45q-2 -4 -10.5 -22t-9.5 -28q-25 -43 -66 -97q-12 -15 -17 -26t-1 -14q1 -7 29 -22q27 -14 39.5 -24t16.5 -19t4 -23q4 -14 4 -15q0 -6 -9 -6q-5 -3 -11 -3q-23 0 -76 38q-36 36 -47 36q-6 0 -11 -10q0 -4 -12 -15t-26 -19
q-35 -28 -52 -38t-31 -10q-16 0 -42 14q-19 5 -35 17zM258.5 17q23.5 13 69.5 49q13 7 16 12t1 13q-10 27 -10 48q0 9 2.5 12t6.5 -2q3 0 5.5 -2t2.5 -3l7 1q8 0 13 -14l7 -12l31 37q38 44 39 55q7 7 13 17t8 12q4 4 8.5 14.5t5.5 18.5q3 14 3 18q0 6 -8 17q-12 12 -12 23
q0 8 6 18q13 20 25.5 58.5t14.5 59.5q3 20 3 35q0 33 -10 54.5t-25 25.5q-36 8 -43 7q0 -3 -4 -5t-11 -3q-34 -11 -78.5 -63t-87.5 -134q-24 -42 -38.5 -76.5t-27.5 -75.5q-12 -37 -21.5 -77t-8.5 -55q0 -32 15.5 -56.5t43.5 -35.5q15 -4 38.5 9z" />
    <glyph glyph-name="R.ss01" horiz-adv-x="498" 
d="M126 -27q-2 0 -7.5 5.5l-10.5 10.5q-9 9 -11 17.5t-1 28.5q16 73 49 161q2 16 6 31.5t6 19.5q0 1 5.5 5.5t7.5 9.5q3 2 3 9q0 9 -2 13q0 17 69 209q9 11 15.5 26t8.5 20q2 3 4.5 6.5t2.5 4.5q0 4 -6.5 8.5t-8.5 5.5q-13 20 -13 35q0 11 7 19q7 10 30 28q19 10 28.5 14
t19.5 4t16 -2q37 -2 51.5 -4t19.5 -9q3 -4 10.5 -7.5t14.5 -3.5q24 -3 57.5 -19t38.5 -23q18 -15 30 -44t15 -66q0 -38 -5 -56.5t-28 -49.5q-30 -50 -80.5 -96.5t-116.5 -84.5l-7 -13q0 -11 28.5 -41t63.5 -59.5t46 -34.5q4 -2 13.5 0.5t13.5 2.5q14 0 14 -19q3 -18 -23 -37
q-4 -7 -7.5 -11.5t-6.5 -4.5q-6 0 -27 15q-34 11 -66.5 39.5t-69.5 74.5q-27 27 -38.5 35.5t-22.5 8.5q-7 0 -11 -1q-11 0 -19 2t-15 9q-2 7 -11 10.5t-9 -3.5l-10 -28q-16 -50 -22 -61q1 -8 -4.5 -32t-14.5 -57q-1 -11 -4.5 -17.5t-3.5 0.5q-6 4 -7.5 4t-3.5 -4q0 -4 -1 -4
zM315 240q47 28 94 70t67 73q6 4 15.5 19.5t12.5 17.5q3 5 8 11.5t5 10.5q0 5 -3 9q0 8 1 16.5t6 14.5q5 18 5 26q0 14 -8.5 22t-28.5 17q-6 6 -23 12t-21 7l-22 8q-11 0 -33 4q-17 3 -27 3q-11 -3 -15 -7.5t-17 -30.5q-2 -13 -8 -26t-10 -15q-1 -4 -27 -77
q-58 -160 -58 -168q0 -3 10 -9.5t12 -0.5q2 -1 8.5 -3t11.5 -5l15 -9z" />
    <glyph glyph-name="S.ss01" horiz-adv-x="486" 
d="M120 -35q-22 14 -33 32t-12 49q0 8 13.5 22.5t29.5 14.5q9 0 18 -6q-9 -29 -9 -39q0 -13 9.5 -20.5t33.5 -12.5q14 -3 26 -3q16 0 44 5q28 2 43 4.5t22 8.5q29 12 52 28.5t31 33.5q10 13 12 21t2 19v16q-1 32 -5 44.5t-26 58.5q0 6 -19 27.5t-25 28.5q-13 27 -21.5 42
t-20.5 23q-3 4 -8 17t-7 14q-1 1 -3 5.5t-5 11.5q-8 18 -8 38q0 28 12.5 58.5t36.5 57.5q11 19 40.5 46.5t35.5 27.5q2 1 8.5 3.5t14.5 8.5q9 2 25 8.5t27 6.5q15 5 24.5 7.5t19.5 2.5l29 -2q50 -13 62 -52l7 -43l-42 -31q-12 -4 -30 -4q-12 0 -21 1t-12 2q-5 0 -5 5
q0 3 2.5 5t5.5 2q3 3 10 10.5t14 14.5q7 11 7 18q0 5 -3.5 6.5t-12.5 1.5l-26 -2q-36 -2 -68 -18.5t-53 -47.5q-24 -21 -36 -44t-12 -41q5 -24 17 -46l57 -79q23 -29 23 -33v-5q2 0 16 -27t14 -32l9 -21q5 -5 10 -42t5 -57q-1 -17 -12.5 -38t-28.5 -39q-21 -22 -61 -49
t-69 -34q-17 -6 -44.5 -10t-54.5 -4q-45 0 -54 9q-9 4 -21 16z" />
    <glyph glyph-name="T.ss01" horiz-adv-x="458" 
d="M271 -31q-5 0 -17 6q-13 3 -19 7.5t-6 13.5q0 10 7 25q9 17 46 167l17 66q0 1 4 31q3 15 9 55q12 23 16.5 50.5t5.5 31.5q7 27 10 35l9 35l6 23q7 25 7 32v16h-37l-19 -1l-38 1q-14 1 -39 1q-47 2 -63 9.5t-17 29.5q-3 14 8 18.5t51 4.5q35 0 59 -1q14 1 40 1
q28 0 46.5 -1t21.5 -1q3 3 5 8t3 8q0 17 11 21q6 13 15 13q12 0 25 -19q2 -5 6.5 -17.5t11.5 -19.5q4 4 26 5t31 2q19 0 39 1.5t27 1.5q9 5 28 5q9 0 25 -2q23 0 32.5 -2t12.5 -7q0 -11 5 -16q4 -3 4 -6q0 -2 -4 -9q-7 -9 -36 -9l-21 -1q-22 -2 -32 -2q-40 -8 -115 -11
q-41 0 -41 -8q-6 0 -23 -65q-6 -24 -12.5 -43.5t-10.5 -26.5q3 -4 3 -9t-6 -22q-3 -11 -7 -21.5t-4 -16.5q-1 -4 -5.5 -19.5t-7.5 -34.5q-5 -48 -13 -56q-1 -2 -4.5 -8t-3.5 -13q0 -14 -7 -49.5t-11 -38.5q3 0 3 -6q0 -7 -6 -21q0 -8 -3 -19t-3 -15l-10 -30q-23 -69 -27 -73
t-8 -4z" />
    <glyph glyph-name="U.ss01" horiz-adv-x="482" 
d="M160 30q-25 42 -25 120q0 65 14 146q10 63 38.5 153.5t58.5 150.5q20 39 32.5 51.5t23.5 10.5q17 -4 26.5 -15.5t9.5 -24.5q0 -20 -19 -33q-11 -13 -40 -75q-6 -14 -20 -42q-23 -78 -34.5 -126.5t-17.5 -100.5q-15 -91 -15 -141v-31q4 -6 9 -15t9 -13.5t9 -5.5
q9 -4 23 -4q28 0 58 19q4 8 11 13t9 6q2 -3 3 -3q3 0 5 7v1q0 5 9 14q10 5 31.5 32.5t40 57t18.5 35.5q0 5 6 12t7 8q10 10 65 125q14 49 36.5 138.5t27.5 115.5q2 13 5.5 23t4.5 12q8 3 22.5 -5t17.5 -9q6 -7 6 -20q0 -14 -9 -59q-4 -19 -9 -48q-13 -63 -32 -116t-55 -142
v-6q-5 -15 -9 -18.5t-9 -3.5q-4 -12 -9 -17t-7 -8q-2 -9 -4.5 -15.5t-3.5 -8.5q0 -6 -5 -9.5t-14 -7.5q-3 0 -5 -8.5t-4 -10.5q-35 -55 -77.5 -99.5t-80.5 -59.5q-23 -10 -38 -10q-5 0 -17 2q-52 16 -77 58z" />
    <glyph glyph-name="V.ss01" horiz-adv-x="490" 
d="M238.5 -16.5q-4.5 1.5 -8.5 7.5q-29 -9 -29 46q0 18 1 28q7 53 7 130v53v5q0 9 1 16t1 10q1 10 1 42v41q0 39 2 49q-1 6 -1 19l1 42q-1 3 -1.5 9.5t-1.5 15.5q0 10 -1 19.5t-2 16.5q1 25 -1 34t-5 15t-4 9q-14 10 -14 17q0 3 3.5 6t7.5 6q5 4 16 4q16 0 36 -13q2 0 7 -10
t12 -20t7 -65q0 -39 -5 -127q1 -9 1 -34q0 -32 2 -43q2 -18 2 -36q0 -12 -2 -20q-2 -6 -2 -24l2 -84q-2 -34 -2 -45q0 -29 8 -24q21 55 38 89q3 4 14.5 29.5t10.5 28.5q1 3 5.5 11.5t12.5 14.5q5 6 9.5 16.5t14.5 22.5q7 10 39 71q60 114 79 137q11 27 22 32q1 6 10 22
q12 21 14 28q13 16 42 58q10 16 13 19q20 20 28 20q12 -3 29.5 -21.5t14.5 -25.5q-4 -4 -19 -25.5t-36 -42.5q-2 -2 -19 -29q-11 -21 -19 -32q-9 -17 -27 -43q-10 -11 -14 -20q-5 -12 -14 -23t-13 -16l1 -4q0 -4 -4 -7.5t-5 -5.5q-13 -29 -18.5 -39.5t-16.5 -23.5
q-3 -6 -11 -17t-11 -21q-13 -13 -12 -21q-2 -3 -7.5 -14t-9.5 -25q-3 -4 -13 -19t-14 -27q-3 -4 -8 -9.5t-5 -8.5q-7 -6 -23 -43q-7 -9 -24 -43l-15 -28q-5 -13 -15.5 -31t-12.5 -22q-8 -22 -22 -22q-10 0 -22 13q-1 0 -5.5 1.5z" />
    <glyph glyph-name="W.ss01" horiz-adv-x="720" 
d="M389 -27q-16 29 -16 65q0 9 4 35.5t6 35.5q-24 -52 -48 -83q-46 -50 -73 -68q-3 -2 -15 -8.5t-18 -6.5q-5 0 -16 9q-33 9 -41 41q-7 18 -11 49t-4 67q0 59 9 96q4 14 6 33q1 15 5 28q-2 16 28.5 104t67.5 173t56 101q8 8 17 8q7 0 12 -4t5 -10q3 -6 5 -12t5 -10
q1 -3 1 -8q0 -6 -3 -12.5t-8 -16.5q-21 -42 -27 -55q-36 -65 -65 -154.5t-44.5 -177t-12.5 -147.5q0 -10 5 -15.5t14 -5.5q23 0 49 32q10 13 26 37.5t21 32.5q2 3 8 15t14 31q20 29 59.5 120t46.5 126q9 33 22 33q11 6 17 6t10 -5.5t10 -20.5l12 -27l-22 -60
q-49 -141 -64 -272q0 -1 -1 -5.5t-1 -10.5q0 -24 21 -23q23 14 46 40t70 87q11 13 21 27.5t13 18.5l15 33q7 14 13.5 22t8.5 10q12 10 36.5 64.5t46 114.5t23.5 83q2 4 4 29q5 62 16 76q13 0 23.5 -28.5t10.5 -58.5q0 -29 -6.5 -64.5t-15.5 -55.5q-3 -8 -8 -19.5t-11 -26.5
q-7 0 -13.5 -15t-8.5 -18q0 -7 -7 -28.5t-15 -35.5l-89 -149q-21 -25 -27 -41q-22 -36 -62.5 -75t-70.5 -58q-11 -9 -25 -15t-19 -6q-25 0 -41 29z" />
    <glyph glyph-name="X.ss01" horiz-adv-x="524" 
d="M501 -65q0 4 -9.5 9t-12.5 2q-3 0 -4.5 2.5t-2.5 6.5t-3 8q2 2 2 6q0 6 -7 20q0 10 -7 23.5t-8 15.5q0 6 -2 13t-3 9q0 8 -10 28q-4 9 -6.5 17.5t-3.5 11.5q-19 46 -31 77q-5 12 -9.5 22t-6.5 13q-2 5 -8.5 17t-6.5 19q0 15 -5 15q-1 2 -3.5 6.5t-6.5 8.5l-5 20l-15 -20
q-6 -3 -16 -17t-14 -18q-76 -111 -87 -116q2 0 2 -2q0 -6 -12 -18q-13 -18 -21 -36q-5 -14 -11.5 -27t-24.5 -38q-7 -16 -11.5 -20t-13.5 -4q-12 4 -20.5 16t-8.5 27q0 6 4 18q15 26 44.5 74t36.5 55q2 3 8 11t13 14q15 21 24 35.5t21 35.5q4 4 8 9t10 11q9 12 17 20
q5 6 14 17.5t13 22.5q5 6 7.5 11t2.5 15q0 9 -36.5 97t-50.5 107q-11 20 -11 33q0 17 16 23q3 1 9 1q12 0 25 -7.5t17 -17.5q8 0 26 -44q5 -14 19 -48l16 -39l25 -55l42 48q41 47 55 57q8 5 13 9.5t7 6.5q0 8 33 34t44 26t21.5 -10.5t14.5 -28.5q0 -8 -6 -13.5t-25 -17.5
q-37 -29 -57.5 -49t-64.5 -70l-57 -62l6 -16q2 -4 3.5 -9.5t3.5 -10.5q7 -21 9 -25q14 -32 23.5 -57.5t21.5 -63.5q25 -58 25 -65l31 -81q13 -28 20.5 -47.5t7.5 -27.5t-4.5 -12.5t-18.5 -12.5h-15z" />
    <glyph glyph-name="Y.ss01" horiz-adv-x="504" 
d="M236 -50q-10 6 -19 19q-4 6 -4 9q0 5 5 17t7 15l15 44q0 4 7 20t10 23q2 8 11 23.5t11 20.5q3 5 8.5 16t11.5 16q0 5 1.5 9t2.5 6q0 4 7.5 17.5t19.5 30.5q4 8 13.5 28.5t9.5 27.5q0 5 -5 10q-5 4 -83 175q-3 6 -6 18.5t-4 14.5q-30 60 -34 89q-6 36 -6 43q0 14 7 22
q6 7 15 11t17 4q15 0 19 -12q0 -5 2.5 -12.5t3.5 -15.5q0 -23 6 -29q2 -10 11 -31q-1 -11 4.5 -25.5t13.5 -25.5q7 -12 7 -30q1 -7 11 -15q10 -22 18 -28v-3l1 -10q2 -1 7.5 -7.5t8.5 -15.5q11 -31 20 -49l11 -22q3 0 11.5 16t11.5 20l22 37q27 42 80 117t65 87q10 7 23 7
q9 0 16 -5.5t8 -16.5q2 -12 2 -16q0 -26 -25 -48q-5 -14 -38 -54q-26 -40 -32 -50q-12 -10 -26 -40q-4 -7 -11 -12t-12 -4q0 -2 -2.5 -7t-2.5 -8q0 -5 -5 -10l-6 -6q-9 -5 -9 -13l-9 -18l-13 -26q-14 -14 -28 -36.5t-22 -44.5q-13 -25 -32 -47q-1 -2 -2.5 -8t-4.5 -9
q-2 -6 -15 -39q-20 -54 -21 -57t-7 -27q-2 -5 -7 -22q-17 -28 -22 -39t-5 -18q-10 -8 -20 -8q-14 1 -24 7z" />
    <glyph glyph-name="Z.ss01" horiz-adv-x="522" 
d="M111 -14q-12 0 -21 9q-17 17 -17 27q0 7 7 14q12 24 20 43q6 11 39 60q49 73 57 93q4 3 17 11t16 14q4 5 29.5 38t79.5 86q20 36 62.5 82.5t79.5 73.5q6 6 22 15q18 11 18 15q0 2 -33 2.5t-85 0.5q-70 0 -88.5 -2.5t-55.5 -17.5q-60 -15 -65 -10h-6q0 -1 -0.5 -1h-0.5
q-7 0 -10 11q-10 10 -10 19q0 16 41 32q8 1 29 7q10 4 22 6q6 5 27 8t36 4.5t21 2.5q76 0 138 -4l31 -1q32 -2 48 -2q28 -6 26 -5q21 -3 30 -6t14 -8q12 -12 12 -18v-15q3 -2 -3.5 -6t-13.5 -8t-11 -6q-37 -24 -97 -70.5t-90 -78.5q-11 -16 -26.5 -25.5t-20.5 -9.5
q0 -2 -8 -14.5t-12 -29.5q-3 -4 -16 -13.5t-22 -19t-13 -21.5q-4 -7 -11.5 -14.5l-9.5 -9.5q-7 -6 -55 -71t-54 -78q-4 -5 -4 -9t9.5 -2t33.5 11q25 11 73.5 17t103.5 6q29 0 43 -1q54 0 78.5 -2.5t34 -10.5t9.5 -25q0 -23 -13 -23q-6 0 -11 4q-21 6 -82 6q-63 0 -145 -8
q-32 -8 -88 -28.5t-84 -36.5q-17 -7 -25 -7z" />
    <glyph glyph-name="A.ss02" horiz-adv-x="502" 
d="M451.5 -99.5q-2.5 -3.5 -8.5 -3.5q-12 0 -29 13q-8 0 -11 7t-3 24q0 26 11 103q6 30 8 106l6 44h-25q-14 -5 -54 -5l-39 1q-42 1 -61.5 -4.5t-23.5 -19.5q0 -5 -10 -29.5t-23 -50.5q-30 -73 -47.5 -103t-34.5 -30q-12 0 -23 10q-6 0 -6 10q0 20 20 58q8 11 16 25t10 18
q0 17 33 80q4 12 8.5 23.5t4.5 14.5l19 37q0 3 3.5 10.5t3.5 14.5q4 4 9.5 19.5t9.5 23.5q0 17 9.5 35.5t10.5 20.5q2 5 7.5 16t5.5 15q0 2 2.5 9t10.5 23q-2 0 -2 1q0 3 15 22q0 7 5 19.5t8 24.5q5 5 8 15t5 16q9 23 16.5 38l9.5 19l5 10t8 20q2 6 7.5 19t5.5 18q6 0 9.5 5
t3.5 14q2 12 26 11q15 4 31 4q43 0 69 -30t29 -82q-1 -56 -7.5 -148.5t-17.5 -174.5q-5 -33 -9.5 -77.5t-5.5 -72.5q-7 -91 -13 -132.5t-15 -45.5q2 -5 -0.5 -8.5zM320 252q46 -2 69 5q27 4 35.5 6t12 9.5t3.5 26.5l1 44q5 44 9.5 113.5t4.5 105.5q0 20 -2 24q0 9 -7 14.5
t-13 5.5q-25 0 -55 -68q-5 -15 -45 -110q-27 -65 -33 -82q-2 -2 -5 -8.5t-6 -11.5q-9 -19 -15 -30q-11 -19 -11 -34q0 -10 5.5 -14t14.5 -2q19 0 37 6z" />
    <glyph glyph-name="B.ss02" horiz-adv-x="512" 
d="M218 -57q-52 0 -78 26q-9 8 -9 15q0 4 4 8q9 6 25 9t55 6q48 -2 99.5 12t92 38t56.5 49q19 34 19 57q0 25 -23 50q-12 10 -25.5 15.5t-32.5 8.5q-18 0 -28.5 -3.5t-26.5 -12.5q-5 -3 -21 -11.5t-29 -10.5q-7 -9 -25.5 -14.5t-35.5 -5.5q-16 0 -21 5q-6 0 -10 -5.5
t-13 -24.5q-2 -6 -9 -20l-11 -32q-3 -8 -8 -24t-6 -23q-9 -22 -10 -27q-10 -23 -14 -29.5t-11 -6.5q-4 0 -8 3t-8.5 8.5t-10.5 11.5q-8 0 -8 15q0 17 11 45q5 11 28 75q47 128 50 130q1 13 6.5 19.5t5.5 8.5q2 4 17 43t28 52q0 8 28 52q3 7 15 37q4 12 7 18.5t4 8.5
q12 17 12 20q0 5 -9 15q-2 2 -4 9.5t-2 13.5q0 4 21.5 18.5t33.5 19.5q14 6 36.5 15t37.5 14q14 5 31 7t30 1q11 4 22 4q15 0 28 -7q15 -5 33 -24t21 -35q4 -20 4 -29q0 -13 -7 -27q-2 -21 -16 -62t-22 -49l-16 -25q-24 -40 -51 -69q-2 -2 -10 -11t-26 -30q3 -1 13.5 -5
t17.5 -8q23 -15 41.5 -37.5t26.5 -46.5q9 -13 9 -35q0 -18 -6.5 -39t-18.5 -39q-9 -17 -31 -41t-26 -24q-5 2 -12.5 -0.5t-24.5 -10.5q-8 -9 -16.5 -15.5t-13.5 -4.5q-3 -1 -14 -6t-24 -12q-26 -7 -77 -16q-29 -5 -60 -5zM265 268.5q28 10.5 59 27t46 30.5q21 14 45 35.5
t24 26.5q1 3 6.5 13t14.5 21q12 12 19.5 23.5t7.5 15.5q1 3 5.5 12t11.5 21q11 14 15.5 33t5.5 21q2 25 -9.5 38.5t-31.5 10.5q-23 -3 -56 -12.5t-50 -19.5q-25 -16 -25 -25q0 -5 7 -5q5 0 5 -7q0 -14 -19 -45q-16 -28 -64.5 -123t-46.5 -99q2 -3 30 7.5z" />
    <glyph glyph-name="C.ss02" horiz-adv-x="482" 
d="M239 -51q-28 0 -60 14t-57 36q-9 15 -23 50.5t-11 40.5t4 11.5t0 11.5q-2 6 -2 12q0 31 25 102.5t66 162.5q24 53 69.5 115t93 109.5t76.5 59.5q17 7 27 7q34 0 64 -17.5t49 -43.5q10 -19 16 -47t6 -54q0 -23 -6 -40q-2 -5 -6 -14t-8.5 -12t-13.5 -4q-4 -2 -12.5 1
t-19.5 10q-4 4 -9.5 8t-7.5 5q0 3 1.5 13.5t5.5 20.5q9 26 9 51t-8.5 43t-24.5 22q-23 1 -60 -25t-71 -69q-102 -125 -144 -232q-22 -60 -35.5 -114t-16.5 -85q3 -12 3 -21t-4 -9q2 -12 11.5 -30t19.5 -28q7 -7 22 -7l8 1q17 -3 57 6.5t50 17.5q3 1 13 4t17 3q8 4 26 12.5
t29 16.5q26 12 50 18t32 4q-1 -1 -3.5 -5.5t-5.5 -14.5q-7 -10 -32 -31.5t-29 -22.5q-15 -2 -41 -19q-65 -40 -116 -41q-11 -3 -23 -3z" />
    <glyph glyph-name="D.ss02" horiz-adv-x="578" 
d="M109 -30q-11 10 -15 15t-4 12q0 4 7 34q4 26 19 86.5t25 88.5q1 8 5.5 22.5t10.5 24.5l11 34q3 12 15.5 43t16.5 42q10 20 27.5 64.5t24.5 60.5q38 93 44 105q1 7 -0.5 9t-10.5 3.5t-25 2.5q-23 -2 -71 -16q-10 -3 -10 8t9.5 25.5t20.5 18.5q19 7 46.5 11t47.5 4
q72 2 128 -11.5t112 -48.5q20 -13 43.5 -39.5t33.5 -43.5q1 -2 8.5 -16t13.5 -31q13 -30 13 -74q0 -53 -17 -109q-23 -69 -78.5 -140.5t-110.5 -100.5q-5 -3 -22 -11t-29 -11q-7 -9 -98 -48q7 3 -40 -18h-3q-17 0 -26 -9q-35 -9 -68 -7l-43 -2zM204.5 13q22.5 6 41.5 13
q9 3 15.5 3.5t8.5 0.5q8 0 98 47l63 31q6 7 12.5 12.5t12.5 11.5q26 24 32 32q10 5 21.5 19.5t14.5 15.5q4 0 16 23q18 29 21 34q23 38 27 51t9 53q3 27 3 47q0 35 -10.5 59.5t-38.5 57.5q-19 25 -29.5 34.5t-26.5 18.5q-14 2 -27 7.5t-14 6.5q-6 9 -39 16.5t-51 7.5
q-3 -4 -4 -8t-2 -15t-16 -46.5t-27 -44.5q-2 -4 -30.5 -75.5t-56.5 -158.5q-5 -11 -12.5 -20.5t-10.5 -11.5q-1 -4 -2 -13t-5 -15l-14 -53q-26 -100 -28 -110l-12 -34l25 -2q13 -1 35.5 5z" />
    <glyph glyph-name="E.ss02" horiz-adv-x="548" 
d="M207.5 -2.5q-30.5 17.5 -34.5 31.5q0 5 -4 8.5t-9 3.5v8v7q0 7 -4 9q-6 12 -6 35q0 30 8.5 71.5t20.5 75.5q0 7 3.5 18t3.5 14q8 23 32 73t40 70q0 3 7.5 13.5t10.5 21.5q16 16 43 62q35 29 29 52q1 16 5 23.5t15.5 13t38.5 11.5q31 12 64 16.5t87 6.5q13 3 22.5 4
t11.5 1q4 4 36.5 -9.5t30.5 -18.5q-1 -9 -28 -18t-61 -13q-63 -7 -96.5 -18t-57 -33.5t-53.5 -69.5q-23 -36 -32.5 -54t-9.5 -26q0 -5 4.5 -7t13.5 -2t21 2.5t18 2.5q7 2 32 8t48 9l42 9q23 5 36 5q34 0 34 -16q0 -8 -11 -18t-30 -18q-18 -7 -41 -14t-29 -7q-2 -1 -9.5 -2
t-18.5 -1l-45 -6l-33 -4q-10 -3 -40 -10.5t-40 -17.5t-18 -30q-14 -33 -25 -90t-11 -96q0 -28 7 -35q7 -8 23 -12.5t37 -4.5q28 0 57.5 7t49.5 20q19 15 42 23q11 8 16 8t14 -6t13 -9q10 -15 10 -22q0 -12 -16 -22t-61 -29q-47 -16 -75 -23t-51 -7l-16 1q-31 7 -61.5 24.5z
" />
    <glyph glyph-name="F.ss02" horiz-adv-x="466" 
d="M97.5 16q-5.5 8 -5.5 19q0 8 2 12q13 11 13 27q3 14 5 20t5 10q3 10 10 33.5t10 36.5q1 8 4 19t4 15q6 6 19 39q1 22 13 31q6 10 6 25q-9 0 29 88q8 15 14 30t7 19q0 3 3.5 9t5.5 12q0 3 7 18t13 31q9 34 20 52q2 10 13 30q6 9 9 18q4 12 13.5 18t21.5 6q10 0 20 -5
q9 -11 17 -11t28 11q13 0 38.5 3t45.5 7q16 0 33.5 2.5t21.5 2.5q2 2 12 2q13 0 28.5 -3.5t21.5 -9.5q3 -7 4.5 -16t1.5 -18t-3 -9h-52q-27 0 -80 -10q-9 0 -16.5 -1t-12.5 -2q-20 -4 -29 -4q-29 -4 -41.5 -7.5t-19 -9.5t-12.5 -21q-3 -8 -19.5 -46t-26.5 -70l-12 -43h16
q37 2 93 9q24 5 44 6q23 3 39 3q49 0 49 -32q0 -7 -9 -13t-42 -11l-90 -7q-98 -8 -110 -8q-5 1 -12 1q-6 0 -7.5 -2t-2.5 -7q0 -3 -3 -13t-4 -16q-10 -13 -17 -45q-2 -6 -4 -10.5t-3 -8.5q-5 -10 -7 -20q-3 -4 -26 -74l-18 -54q-15 -51 -21.5 -65t-18.5 -14q-8 0 -20 4
q-10 9 -15.5 17z" />
    <glyph glyph-name="G.ss02" horiz-adv-x="498" 
d="M421.5 -37q-7.5 3 -14 11t-7.5 16q-4 0 -4.5 5.5t-0.5 13v12.5q5 8 8.5 11t8.5 3q0 3 2 13t7 20q4 11 6 18.5t3 9.5q-6 1 -20.5 -6.5t-26.5 -19.5q-13 -8 -30 -23q-17 -13 -22 -16q-9 -2 -17 -7t-18 -12q-33 -20 -68.5 -32.5t-59.5 -11.5q-13 1 -22 6t-28 18
q-3 5 -10.5 14t-7.5 17q-11 8 -11 57q0 45 10 103q12 56 34 100.5t91 152.5q8 22 32.5 51t38.5 40q4 0 19 14.5t20 19.5q27 28 54 44.5t68 35.5l38 18q25 0 57 -3t42 -7q17 -14 24 -36q4 -12 4 -19t-4 -11q-7 -5 -12 -5q-2 0 -16 4q-20 10 -47 10q-57 0 -123 -45
q-27 -22 -77.5 -74t-77.5 -85q-69 -105 -99 -202q-11 -23 -11 -75q0 -21 1.5 -39.5t3.5 -20.5q12 -18 34 -18q27 0 62 19t69 46q6 4 47.5 34.5t54.5 48.5q28 26 38.5 39t15.5 24.5t9 17.5q3 15 4 23.5t1 10.5v1q0 5 -5.5 7t-13.5 4q-18 0 -54 5.5t-36 10.5q0 8 8 27
q0 11 29 18.5t74 5.5q40 0 54.5 -8.5t14.5 -35.5q6 -13 6 -23t-7 -30t-26 -66q-48 -135 -71 -190.5t-36 -58.5q-2 -3 -9.5 0z" />
    <glyph glyph-name="H.ss02" horiz-adv-x="564" 
d="M449 -63q-7 9 -13 25q37 159 64 235q6 39 6 45t-5 9q-15 9 -177 35q-9 -1 -27 3q-13 3 -26 3q-16 0 -20 1t-7 6q-1 7 -4 3t-11.5 -30.5t-22.5 -71.5q-28 -84 -37 -150l-4 -21l-12 -43q-6 -28 -11 -41.5t-10 -14.5q-1 -2 -3 -2q-3 0 -10 3.5l-11 5.5q-10 7 -14.5 14.5
t-4.5 18.5q0 15 13 70q11 43 14 58q10 56 16.5 83.5t13.5 32.5l11.5 46t23.5 69q12 44 39 111t67 158l17 39q8 7 16 19.5t10 20.5q7 14 11.5 17t12.5 2q16 -3 29 -16.5t13 -27.5q0 -3 -2 -9q-24 -24 -55 -102l-12 -19q-17 -26 -21 -37q-5 -8 -8.5 -21.5t-6.5 -16.5
q-11 -21 -26 -55t-13 -38q2 -5 73 -11l36 -4q7 1 52 -6l50 -7q45 -14 64 -14q6 0 8 2l18 43q12 49 33 116q27 46 44 137q9 39 31 74q2 -1 7.5 -3t12.5 -4q13 -2 19.5 -10t6.5 -23q0 -30 -28 -110l-16 -42q-26 -59 -30 -81q-11 -35 -43 -107q-1 -3 2 -14.5t8 -22.5
q9 -13 9 -22q0 -14 -20 -14q-16 0 -22 -5.5t-9 -28.5q-21 -47 -42 -134t-20 -115l-4 -12t-5.5 -11.5t-6.5 -2.5l-11 2q-13 4 -20 13z" />
    <glyph glyph-name="I.ss02" horiz-adv-x="400" 
d="M215 -16q-7 0 -23 1t-50 2q-81 9 -84 10q-1 0 -3.5 2t-9.5 7q-14 4 -22.5 18.5t-4.5 25.5q1 3 10 6t19 3q5 0 8 -1q13 3 46 5q28 2 37 4q8 3 16 5t14 4q5 -1 9 5.5t10 23.5l7 20q13 33 30.5 83.5t25.5 73.5q-1 8 2.5 21t3.5 16q2 2 7 19q8 25 18 48q36 88 36 99l9 18
q17 36 17 39l-43 1q-32 -2 -66 6t-40 18q-4 5 -4 9q0 3 5.5 6.5t8.5 7.5q2 8 15 10t51 4h38q52 0 53 5q12 0 22 2q7 0 31 6t44 12q26 6 50 9t34 3l10 1q29 0 29 -36q0 -7 -2 -9.5t-14.5 -4.5t-33.5 -4q-55 -9 -75 -15l-27 -9q-8 0 -13.5 -6.5t-10.5 -23.5q-1 -1 -3.5 -3
t-2.5 -4t-5 -11.5t-8 -16.5q0 -7 -10 -32q-22 -54 -24 -84q-32 -78 -33 -99q-2 -3 -20 -56q-23 -72 -28 -76q-4 -4 -5.5 -12.5t-1.5 -9.5q-9 -27 -9 -46q0 -7 1 -9q58 0 74 4l49 2q20 0 29 -2.5t17 -1.5q15 1 21 -3.5t14 -22.5q3 -6 3 -10q0 -5 -10 -9q-4 -3 -14.5 -5
t-19.5 -1l-106 1h-7l-21 -1q-5 1 -15 -0.5t-21 -2.5q-3 -1 -6.5 -2.5t-5.5 -3.5t-3 -7q0 -3 -4 -11.5t-5 -12.5q-4 -2 -10 -2z" />
    <glyph glyph-name="J.ss02" horiz-adv-x="306" 
d="M-49.5 -173q-10.5 13 -16.5 38q-1 6 -1 18q0 40 35 44q0 -2 1.5 -9.5t6.5 -20.5q3 -54 41 -52q21 2 27 8q28 18 59.5 64t52.5 107q4 10 11.5 28.5t19.5 44.5q16 38 39.5 94.5t23.5 58.5q-2 6 22.5 83.5t35.5 98.5q7 13 12 26t5 18q-1 7 37 106q3 8 3 12q0 9 -12 9l-14 -2
q-6 -1 -28 -1t-32 -1l-13 -1q-12 0 -20.5 1t-13.5 1q-19 1 -31 8t-12 19q0 8 6 17q3 12 30 12q22 0 50 -4q52 -3 102 11q28 6 43 6q13 0 20 -5.5t14 -20.5q7 -11 7 -16q0 -4 -9 -16q-15 -21 -58 -122l-21 -47q-6 -27 -17 -55q-11 -47 -18.5 -65t-7.5 -21q-8 -21 -34 -86
t-42 -108q-14 -28 -21 -51q-6 -32 -19 -63.5t-15 -37.5q0 -8 -30 -55q-26 -42 -32 -54q-53 -62 -100 -62q-27 0 -55 18q-21 12 -31.5 25z" />
    <glyph glyph-name="K.ss02" horiz-adv-x="494" 
d="M86 -6q-9 13 -11 28q3 5 6 19.5t6 16.5q1 8 6 27.5t7 36.5q5 11 13 35q5 18 10 28q3 8 7 20t7 17q2 7 9 28t11 35.5t5 27.5q10 18 14 38q1 2 10.5 21.5t15.5 46.5q5 13 32 77q4 9 9.5 21t11.5 29l13 39q0 8 21 46q7 13 15 24t11 11q16 1 29.5 -10t13.5 -24q0 -7 -5 -14
q-4 -6 -42 -97l-25 -57q-1 -3 -10 -26q-2 -6 -9.5 -24.5t-11.5 -33.5q-11 -17 -18.5 -42.5t-9.5 -29.5q-10 -22 -12 -25l-10 -22q0 -26 -8 -36q-3 -10 -6 -16.5t-4 -8.5q-1 -6 -3 -12.5t-3 -12.5q-7 -20 -28 -94q-13 -47 -19.5 -67.5t-11.5 -27t-14 -6.5q-13 1 -22 14z
M484 36q-15 4 -32.5 13.5t-28.5 21.5q-29 20 -64.5 60.5t-56.5 77.5l-11 23q-4 9 -8 16t-9 7q-11 -1 -22 14t-16 35q1 9 6.5 15t13.5 5q1 7 83.5 87t114.5 103q8 11 16 19l9 4.5t13 9.5q8 4 14.5 11.5t9.5 13.5q6 3 17 11t25 16t23 14t11 8q8 0 20 -9t15 -16q8 -13 8 -15
t-3 -4t-5 -4q-7 -15 -16 -22t-25 -15q-2 -1 -12.5 -6.5t-19.5 -15.5q-13 -14 -41 -32q-2 -2 -16 -10.5t-25 -21.5l-20 -19q-45 -43 -70 -62q-3 -3 -19 -18.5t-47 -47.5l20 -43q44 -62 90 -108t75 -53q15 -5 25 -23q4 -1 6 -5t2 -8q0 -9 -8.5 -17.5t-24.5 -9.5q-2 -4 -17 0z
" />
    <glyph glyph-name="L.ss02" horiz-adv-x="426" 
d="M131 36q-2 6 -6.5 17.5t-4.5 22.5q0 13 8 40q7 74 31 142q1 5 5.5 19t11.5 32q16 49 50 118.5t71 126.5t59 74q16 14 33 14q13 0 13 -10q-2 -5 -2 -6.5t4 -2.5q6 0 6 -7q0 -12 -13 -30.5t-28 -27.5q0 -2 -3 -8t-12 -13q-3 -10 -7 -18l-5 -10t-5.5 -9t-9.5 -18
q-20 -25 -20 -33q-3 -7 -12.5 -25.5t-9.5 -21.5l-7 -5q0 -7 -6.5 -24.5t-16.5 -31.5q-7 -16 -22 -59q-6 -23 -11 -31q-2 -4 -3 -11q-4 -4 -9 -21t-7 -41l-18 -51q-7 1 -7 -26t4 -55q6 -8 13.5 -11.5t22.5 -3.5l33 2q3 -1 10 -1q9 0 24 1.5t23 0.5q29 0 65 6q16 2 32 2
q8 0 11 -1.5t8 -6.5q9 -12 9 -18q0 -11 -25 -17q-58 -15 -114.5 -23.5t-82.5 -6.5q-59 9 -80 67z" />
    <glyph glyph-name="M.ss02" horiz-adv-x="720" 
d="M632.5 -43.5q-5.5 5.5 -6.5 21.5q-4 13 -4 51q0 65 10 169q4 11 4 26t-3 19q0 19 5 24v16q0 17 2 24q5 9 7.5 21.5t1.5 22.5q3 9 6.5 22.5t3.5 16.5q-1 3 -1 14t-2 15q6 17 11.5 52.5t6.5 47.5q-6 -7 -28 -34.5t-47 -63.5q-6 -9 -57 -86q-24 -33 -39 -57.5t-27 -51.5
q-2 -9 -16 -29.5t-19 -28.5q-9 -21 -18.5 -29t-23.5 -11l-8 -1q-26 0 -39.5 30t-18.5 100q-6 23 -9 50t-4 34q3 17 2.5 42.5t-0.5 33.5l-23 -28q-1 -11 -5 -23.5t-7 -16.5q-5 -7 -15 -38q-8 -23 -22 -56q-14 -48 -23 -72t-17 -42l-18 -42q-8 -20 -14 -37q-10 -29 -15 -35
q-1 -2 -9.5 -18t-13.5 -31q-10 -19 -16 -26.5t-14 -7.5q-9 0 -24 12q-18 8 -18 24q0 14 18 43q6 17 35 68q2 4 17 31q-1 2 20 58q4 11 8.5 23t9.5 26q32 80 54 140l8 22q0 3 3 9.5t5 11.5q3 10 14 35q13 17 10 26q-1 3 2 4t4 1q3 0 4 5t3 7q2 14 7 28t9 15q3 1 4 5.5t4 9.5
l-1 5q0 5 1.5 10t1.5 6l16 19q1 3 5 14.5t9 18.5q3 8 10 21t9 17q8 12 19 12q15 0 35 -20q9 -8 12.5 -15.5t-0.5 -11.5q-1 0 -3 -1t-2 -5q0 -1 0.5 -4t0.5 -8q0 -10 -3 -22q-9 -34 -17 -71t-8 -43q0 -12 -7 -12q-1 -1 -2.5 -4t-1.5 -6q3 -6 3 -17q0 -16 -5 -41
q-1 -15 -1 -47q0 -43 3.5 -77t9.5 -38q4 0 15.5 13.5t24.5 38.5l20 32q17 27 32 49t41 56q14 24 30.5 44.5t23.5 26.5q7 2 10.5 8.5t4.5 8.5q-3 5 5 19.5t30 45.5l27 39q29 38 49 38q13 0 31 -15q11 -9 17 -19.5t6 -18.5t-5 -9q-4 -1 -3.5 -2t4.5 -4l-5 -31q-5 -11 -8 -39
l-7 -36q-4 -16 -12 -62q-3 -7 -10 -51l-8 -64q-15 -128 -18 -139q-4 -34 -4 -91q0 -53 5 -73q1 -14 1.5 -24t-0.5 -14q-10 -12 -20 -12q-9 0 -19 5q-11 3 -16.5 8.5z" />
    <glyph glyph-name="N.ss02" horiz-adv-x="566" 
d="M157 -15q-16 0 -26 22q-11 10 -11 33q0 26 11 46q8 13 12 51q11 42 44 141l25 77q36 112 62 177q15 30 14 43q3 14 8 25t10 16q6 7 9.5 11t6.5 4t9 -3q4 -1 13.5 -3t16 -9.5t13.5 -25.5q9 -15 13.5 -26t4.5 -27q0 -11 -1 -17q1 -20 7 -67q1 -8 5 -44t2 -63
q0 -41 10.5 -121.5t20.5 -87.5q12 -7 32 61q3 11 14 31q10 19 16 33t10 33q19 49 38 110l19 57q3 14 13.5 38t21.5 42l13 26q4 8 11 22.5t7 17.5q0 2 1.5 7t5.5 8q2 2 11.5 8t12.5 19q9 7 16 7l9 -2l4.5 -4.5t3.5 -7.5q0 -7 -13 -39q-6 -39 -19 -58q-3 -6 -4.5 -12t-3.5 -10
q-6 -18 -10 -26q-5 -22 -5 -23q-4 -22 -4 -21l-22 -35q-18 -47 -36 -107q-12 -42 -25 -75q-2 -16 -6 -30t-8 -22l-5 -10q0 -11 -22 -54t-33 -61q-9 -14 -17 -17.5t-22 -4.5q-18 -2 -28 6.5t-24 38.5q-24 48 -35.5 92t-11.5 124q0 40 -2 55l-3 29q-6 58 -9 109
q-8 -16 -16.5 -42.5t-16.5 -53.5q-16 -53 -25.5 -81.5t-22.5 -49.5q-4 -29 -9.5 -50.5t-11.5 -29.5q-8 -26 -13 -57l-7 -30q-1 -16 -12.5 -51t-13.5 -43q-8 -19 -22 -19z" />
    </font>
</defs>
</svg>
